<svg xmlns="http://www.w3.org/2000/svg" viewBox="0 0 2877 969"><g fill="#090807"><path d="M2442 774c0-1.3-.7-2-1.9-2-1.1 0-2.1-.6-2.4-1.2-.4-1-.7-1-1.8 0-.8.8-4.6 1.2-11 1.2-11.1 0-12.5-.8-11.6-6.5.3-2 8.9-19.4 19.1-38.8 10.2-19.3 20.1-39.3 22-44.4 7.3-18.9 6.9-6.4 7.3-198.5.4-171.2.4-172.7 2.4-175.2l2-2.6h16.9c9.3 0 17.6.3 18.5.6 2.8 1.1 4.5 6 4.5 13.4 0 5.6.3 7 1.5 7 1.4 0 1.5 17.9 1.2 168.8-.3 167.1-.3 168.8-2.4 178.2-4.2 19-7.7 27-28.8 65-18.7 33.8-21.3 37-30 37-4.8 0-5.5-.2-5.5-2M907.4 728.6c-1.8-4.6-1.9-5.6-.7-6 1-.4 1.9.6 3 3.4.9 2.2 1.9 4 2.2 4s1.6-2.7 2.8-6c1.7-4.9 1.9-6 .7-6-.8 0-1.4-.3-1.4-.8 0-.6 6.2-8.7 8.6-11.1.2-.2.4 3.1.4 7.4 0 6.9-.2 7.6-1.6 6.5-1.3-1.1-1.6-1-2 .6-.3 1-1.6 4.4-2.8 7.4-1.7 4.3-2.7 5.6-4.7 5.8-2.1.2-2.7-.5-4.5-5.2M903.4 718.9c-.7-1.2 1.5-3.1 2.8-2.3.4.3.8 1.2.8 2 0 1.7-2.6 1.9-3.6.3M901.4 713.9c-.8-1.4 1.8-3.1 3-1.9.9.9 0 3-1.4 3-.5 0-1.2-.5-1.6-1.1M899.5 709c-.7-1.1.2-3 1.5-3 .4 0 1 .6 1.3 1.4.6 1.6-1.9 3-2.8 1.6M136.6 680.5c-.4-1.2-1-1.4-2.5-.5-4.1 2.2-20.1.5-35.4-3.7-4.3-1.2-6.6-2.5-9-5.3-1.8-2-5.4-5-8.2-6.5-2.7-1.6-8.4-6.3-12.5-10.4-13.4-13.5-20-30.4-22-56.5-1.3-17.1-1.4-281.5-.1-284.9.6-1.4 2-3.5 3.2-4.6 2.1-1.9 3.4-2.1 18.2-2.1 8.9 0 16.7.4 17.8 1 3.2 1.8 4.9 6.4 4.9 13.5 0 5.1.3 6.5 1.5 6.5 1.3 0 1.5 15.2 1.5 130.8 0 80.3.4 134.2 1 139.7.6 5 2 11.6 3.1 14.8 2.4 6.5 8.4 13.3 14 16 2.2 1 3.9 2.6 4.3 4.1 1.3 5.2 17.8 6.5 85.8 6.6 57.5 0 51.8-1.3 51.8 11.9 0 6.5.3 8.1 1.5 8.1s1.5 1.5 1.5 7.3c0 4.3-.5 8-1.3 9.1-2.2 3-25.7 5-73.4 6.2l-27.3.7v-8.7l-3.6 4.2c-3.3 4-3.9 4.2-8.9 4.2-3.8 0-5.4-.4-5.9-1.5m-2.3-5.1c-.3-.8-.9-1.4-1.3-1.4-1.3 0-2.2 1.9-1.5 3 .9 1.4 3.4 0 2.8-1.6M896.5 681.4c-9.1-.9-24.3-3.7-30-5.5-4.6-1.4-7.2-3-10.2-6.1-2.3-2.4-6.7-5.9-9.8-7.8-11.5-7.1-22.6-21.4-27.6-35.7-5.5-15.9-5.2-9.8-5.6-131.3-.4-107.1-.1-123.2 2.4-129.6.3-.8-.1-1.4-1.1-1.4-3.6 0-.4-13.1 6.1-24.8 3.6-6.5 5.9-8.5 7.3-6.2.6 1 2.3-.1 6.5-4.4 10.6-10.7 23.8-17.6 42.7-22.1 13.8-3.2 29-4.5 54.8-4.5h21.5l9.8-3.5c17.6-6.3 66.4-20.5 70.5-20.5.5 0 1.5 1.8 2.2 4 1.2 3.5 1.7 4.1 3.9 3.8 2-.2 2.9-1.4 4.7-5.8l2.2-5.5 14.8-3.3c8.2-1.7 25-5 37.4-7.2 111.8-19.8 226.4-24.7 425.9-18.4 19.1.6 21.4.5 20.8-.9-.9-2.3 2.1-2.9 3.3-.7 1.7 3.3 4.6 2.4 6.3-1.7 1.3-3.2 1.3-3.8.1-4.1-.8-.2-1.4-.7-1.4-1 0-.6 6.4-8.8 8.6-11.1.2-.2.4 3.1.4 7.4 0 6.7-.2 7.6-1.5 6.5-1.2-1-1.6-.8-2.5 1.5-.5 1.4-1 3.2-1 3.9 0 2.9 153.3 3.4 180 .7 50.5-5.2 75.2-14.2 82.3-30.1 7.7-16.9-7.2-45.1-34.6-65.6-11.1-8.3-31.3-18.7-48.2-24.9-8.7-3.2-29.8-9.5-42.2-12.5l-4.2-1.1-.3-7-.3-7-3.8 4.8c-2.1 2.7-4.1 5.4-4.5 6-.6.9-4.8.5-16.8-1.7-27.2-4.8-72-10-102.3-11.6-7.4-.4-11.6-1-10.5-1.5 1.2-.4 2.8-2.7 3.8-5.4 1.8-4.5 1.9-4.6 5.5-4.1 2 .3 8.1.8 13.6 1.1 51.1 3.1 127 12.5 205.3 25.6l7.3 1.2 7.8 8.1c12.4 12.7 16.4 17.7 15.2 18.9-1.5 1.5-1.4 2.7.3 2.7 1.2 0 1 1.1-.7 6-1.2 3.3-2.5 6-2.8 6s-1.3-1.8-2.2-4c-1.1-2.8-2-3.8-3-3.4-1.2.4-1.1 1.4.7 6 1.8 4.8 2.4 5.4 4.6 5.2 2-.2 2.9-1.5 4.9-6.8 1.4-3.6 2.7-6.7 2.9-7 .4-.6 2.4 1.9 11.5 15 19.4 27.8 36.4 61.4 49.2 97.5l4.5 12.6-4.3-.5c-12.5-1.7-81.5-6.3-127.7-8.5-70.6-3.5-138.5-5.1-222-5.1-113.5 0-174.8 2.2-270.5 9.6-91.2 7.1-175.2 19.1-244.5 35.1l-16.5 3.8 10.6 1c6.2.6 11.3 1.6 12.3 2.4 1.2 1 1.6 3.2 1.6 9.7 0 7.7.2 8.4 2 8.4s2 .7 2 8.1c0 13.2 5.7 11.9-51.8 11.9-27.3 0-56.2.5-64.2 1.1-29.3 2.1-41 9.6-45.5 29.1-1.2 5.4-1.5 14.4-1.5 46.2V461h9.5c7.8 0 9.5.3 9.5 1.5 0 1.3 8.1 1.5 67.3 1.5 67 0 67.3 0 69.6 2.1 3.1 2.9 4.1 6.1 4.1 13 0 4.8.3 5.9 1.6 5.9 1.4 0 1.6 1.1 1.2 7.4-.3 6.2-.7 7.9-2.7 10l-2.4 2.6H860.9l.3 49.3c.3 47.6.4 49.4 2.6 55.7 2.5 7.7 7.3 13.6 14.2 17.9 3.2 1.9 5 3.8 5 5 0 4.6 20 6 86 6.1 36.5 0 48.9.3 49.8 1.2.8.8 1.2 4.5 1.2 10 0 8.3.1 8.8 2.1 8.8s2.1.4 1.8 8.5c-.5 11.1-1.2 11.8-12.7 12.7-10 .8-108.7 1.8-114.7 1.2M1803 142.6c0-.8-.4-1.7-.8-2-1.3-.8-3.5 1.1-2.8 2.3 1 1.6 3.6 1.4 3.6-.3m-2.4-4.7c.3-.6.2-1.5-.2-1.9-1.2-1.2-3.8.5-3 1.9.9 1.4 2.3 1.4 3.2 0m-2.3-6.5c-.3-.8-.9-1.4-1.3-1.4-1.3 0-2.2 1.9-1.5 3 .9 1.4 3.4 0 2.8-1.6m-125.7-25.5c.3-.6.2-1.5-.2-1.9-1.2-1.2-3.8.5-3 1.9.9 1.4 2.3 1.4 3.2 0m-2.3-6.5c-.3-.8-.9-1.4-1.3-1.4-1.3 0-2.2 1.9-1.5 3 .9 1.4 3.4 0 2.8-1.6"/><path d="M1115.5 680.9c-7.9-.7-18-2.6-26.1-4.8-2.7-.7-5.4-2.5-7.6-4.9-1.9-2.1-5.6-5.1-8.4-6.7-6.5-3.8-16.6-13.6-21.4-20.7-5.4-8.1-10-20.9-11.9-32.9-.7-4-.5-4.8.9-5.2.9-.2 2.4-2.4 3.3-4.8s2.1-5.7 2.7-7.3c.9-2.3 1.3-2.6 2.5-1.6 1.3 1.1 1.5.2 1.5-6.5 0-4.3-.2-7.6-.4-7.4-2.4 2.4-8.6 10.5-8.6 11.1 0 .5.6.8 1.4.8 1.2 0 1 1.1-.7 6-1.2 3.3-2.5 6-2.8 6-1.5 0-1.9-9.6-1.9-43.7 0-31.6-.2-36.3-1.5-36.3s-1.5-2.7-1.5-18.5.2-18.5 1.5-18.5 1.5-2.8 1.5-19.4c0-19.3 0-19.5 2.2-19.8 2-.3 5.3-6.2 7.2-13.2.4-1.6.7-1.7 2-.6 1.4 1.1 1.6.4 1.6-6.5 0-4.3-.2-7.6-.4-7.4-2.4 2.4-8.6 10.5-8.6 11.1 0 .5.7.8 1.5.8 1.2 0 1.1 1-.7 5.8-1.2 3.1-2.3 5.9-2.5 6.2-1.7 2.1-2.3-7.4-2.3-40.8 0-33.1-.2-38.3-1.5-38.8s-1.5-3.5-1.5-18.5c0-15.2.2-17.9 1.5-17.9 1.2 0 1.5-1.3 1.5-6 0-6.6 1.8-11.3 4.9-13 1.1-.6 8.9-1 17.9-1 15.8 0 15.9 0 18.5 2.6 1.5 1.4 2.9 4.1 3.3 6 .3 1.9.8 3.4 1 3.4s11.1-2.4 24.2-5.4c36.4-8.4 50.2-11 51.5-9.7 1.5 1.5 3.7 1.4 3.7-.3 0-.8.7-1.7 1.6-2 2.4-.9 5.4-.7 5.4.4 0 .6.7 1 1.4 1 1.2 0 1.3.6.4 3-1.2 3.6-5.5 5.2-7 2.7-1-1.8-3.9-1.2-3.2.7.3.8-3.4 1.7-12.3 3-7.1.9-24.7 3.7-39.2 6.2-14.5 2.4-26.6 4.4-26.8 4.4-.1 0-.3 1.1-.3 2.5 0 1.6.6 2.5 1.5 2.5 1.3 0 1.5 15.4 1.5 132.9 0 89.2.4 135.5 1.1 140.8 1.9 13.8 7.9 23.5 17.4 28 2.1 1 3.5 2.4 3.5 3.5 0 5.2 9.4 6 76.3 6.5 68.3.6 61.7-.8 61.7 12.5 0 7.1.2 7.8 2 7.8 2 0 2-.7 2-173.1 0-129.6.3-173.6 1.2-175.2 2.3-4.4 3.6-4.6 21.1-4.7 16.5 0 16.8 0 19.2 2.5 2.2 2.2 2.5 3.2 2.5 10.5s.2 8 2 8 2 .7 2 7.3c0 7.5-.7 11.7-2 11.7-.4 0-1.4-1.8-2.3-4-1.1-2.8-2-3.8-3-3.4-1.2.4-1.1 1.4.7 6 1.7 4.3 2.6 5.4 4.4 5.4h2.2v75.8c0 41.6-.3 76.7-.6 78-.9 3.2-1.9 2.7-3.7-1.8-1.1-2.8-2-3.8-3-3.4-1.2.4-1.1 1.4.7 6 1.7 4.3 2.6 5.4 4.4 5.4h2.2v75.8c0 41.6-.3 76.7-.6 78-.9 3.2-1.9 2.7-3.7-1.8-1.1-2.8-2-3.8-3-3.4-2.2.8 2.1 11.4 4.6 11.4s2.1 3.2-.6 5.8c-2 1.9-3.5 2.2-11.5 2.2-7.5 0-9.2-.3-9.2-1.5 0-.9-.9-1.5-2.5-1.5s-2.5.6-2.5 1.5c0 2.2-15.6 2.1-18.8 0-1.9-1.4-2.4-1.4-4.4-.1-6.3 3.9-102.2 7.3-130.3 4.5m175.5-26.3c0-.8-.4-1.7-.8-2-1.3-.8-3.5 1.1-2.8 2.3 1 1.6 3.6 1.4 3.6-.3m-2.4-4.7c.3-.6.2-1.5-.2-1.9-1.2-1.2-3.8.5-3 1.9.9 1.4 2.3 1.4 3.2 0m-2.3-6.5c-.3-.8-.9-1.4-1.3-1.4-1.3 0-2.2 1.9-1.5 3 .9 1.4 3.4 0 2.8-1.6m4.7-148.8c0-.8-.4-1.7-.8-2-1.3-.8-3.5 1.1-2.8 2.3 1 1.6 3.6 1.4 3.6-.3m-2.4-4.7c.3-.6.2-1.5-.2-1.9-1.2-1.2-3.8.5-3 1.9.9 1.4 2.3 1.4 3.2 0m-2.3-6.5c-.3-.8-.9-1.4-1.3-1.4-1.3 0-2.2 1.9-1.5 3 .9 1.4 3.4 0 2.8-1.6m4.7-148.8c0-.8-.4-1.7-.8-2-1.3-.8-3.5 1.1-2.8 2.3 1 1.6 3.6 1.4 3.6-.3m-2.4-4.7c.3-.6.2-1.5-.2-1.9-1.2-1.2-3.8.5-3 1.9.9 1.4 2.3 1.4 3.2 0m-2.3-6.5c-.3-.8-.9-1.4-1.3-1.4-1.3 0-2.2 1.9-1.5 3 .9 1.4 3.4 0 2.8-1.6M1416.6 680.5c-.5-1.3-1-1.4-2.7-.4-2.6 1.4-10.4.6-23.9-2.3-11.2-2.4-12.3-2.9-17.5-7.9-2.2-2.1-6.4-5.3-9.2-7.1-15.5-9.8-25.9-25-31.5-46.1-2.2-8.2-2.2-8.4-2.5-123.4-.4-113.6-.3-115.3 1.7-125.5 8.3-40.4 33.9-59.9 85-64.9 13.2-1.2 57.6-.7 96.5 1.1 24.1 1.2 23.5.9 23.5 13.1 0 7.2.2 7.9 2 7.9s2 .7 2 7.4c0 4.1-.4 8.6-1 10l-1 2.6h-49.7c-27.4 0-56.2.5-63.9 1-29.3 2-41.6 9.6-45.8 28.1-1.3 5.5-1.6 14.2-1.6 46.8V461h9.5c7.8 0 9.5.3 9.5 1.5 0 1.3 8.1 1.5 67 1.5h67l3 2.8c2.8 2.4 3.2 3.4 3.7 10.5.4 5.5 1 7.7 1.9 7.7 1 0 1.4 1.5 1.4 5.5 0 6.4-2 11.9-4.8 13.4-1.4.8-26.1 1.1-80.1 1.1H1377v47.3c0 49.3.4 54.7 4.6 63 2.3 4.5 8.2 10.5 12.6 12.8 2.3 1.1 4 2.9 4.4 4.3.5 2 1.6 2.7 5.7 3.6 9.5 2.1 33.7 2.9 81.7 3 35.7 0 47.9.3 48.8 1.2.8.8 1.2 4.5 1.2 10 0 8.3.1 8.8 2.1 8.8s2.1.4 1.8 8.5c-.3 6.2-.8 8.9-2.1 10.1-2.4 2.5-13.9 3.2-61.5 4l-41.3.7v-8.7l-3.6 4.2c-3.3 4-3.9 4.2-8.9 4.2-3.8 0-5.4-.4-5.9-1.5m-2.3-5.1c-.3-.8-.9-1.4-1.3-1.4-1.3 0-2.2 1.9-1.5 3 .9 1.4 3.4 0 2.8-1.6"/><path d="M1942 680.9c-24.1-1.1-28-1.6-28-3.8 0-1.5-1.2-1.9-6.2-2.5-10.1-1-13.7-2.3-15.8-5.9-2-3.1-2-6.4-2-157.9 0-85.2-.2-154.8-.4-154.8s-4.8 1.6-10.2 3.6c-17.8 6.5-53.4 18.3-63.4 21-7.3 2-9.7 3-9.3 4 .3.9-.2 1.4-1.6 1.4s-2.5-.9-3.2-2.7c-1.2-3.1-9.3-15.6-11.2-17.1-.9-.8-.6 1.6.9 7.7 3.2 12.5 4.8 31.2 4 46.1-1.5 29-10 50-27.2 67.4-10.9 11-25.7 20.2-40.4 25.2-3 1-5.9 2.1-6.4 2.5-.4.4 19.1 33.9 43.5 74.5 38.6 64.4 44.3 74.4 44.7 78.6.3 3.4 0 5.5-1.2 7.3l-1.6 2.5h-16.9c-14.1 0-17-.2-17.5-1.5-.4-1.1-2-1.5-5.7-1.5-4.4 0-5.5-.4-8.3-3.2-1.7-1.8-20.4-32.2-41.6-67.5-35.8-59.8-38.7-64.3-41.2-64.3-2.3 0-3.4-1.1-7.5-8-2.9-4.8-5.6-8.2-6.8-8.4-1.1-.3-15.2-.7-31.2-.9l-29.3-.4v150.4l-2.5 2.7c-2.3 2.4-3 2.6-11.5 2.6-7.3 0-9-.3-9-1.5s-1.7-1.5-9.5-1.5-9.5.3-9.5 1.5c0 2.3-2.8 1.8-5.5-1-2.2-2.1-2.5-3.3-2.5-9.5 0-5.6.3-7 1.5-7 1.3 0 1.5-5.4 1.5-42.3 0-42.1 0-42.4 2.4-48.3 1.2-3.2 2.6-6.7 3-7.8.5-1.5.9-1.6 2.1-.6 1.3 1.1 1.5.2 1.5-6.6v-7.9l-3.2 4c-1.8 2.1-3.8 4.6-4.5 5.4-1 1.3-1.2-1.9-1.3-15.6 0-14.7-.2-17.3-1.5-17.3s-1.5-2.7-1.5-18.5.2-18.5 1.5-18.5 1.5-4.6 1.5-35.3c0-34.8 0-35.5 2.4-41.3 1.2-3.2 2.6-6.7 3-7.8.5-1.5.9-1.6 2.1-.6 1.3 1.1 1.5.2 1.5-6.6v-7.9l-3.2 4c-1.8 2.1-3.8 4.6-4.5 5.4-1 1.3-1.2-1.8-1.3-15.2 0-14-.3-16.9-1.5-17.3-1.3-.5-1.5-3.5-1.5-18.5 0-15.2.2-17.9 1.5-17.9 1.2 0 1.5-1.3 1.5-6 0-10.3 2-12.3 13.8-13.9 22.7-3.2 101.3-4.8 117.3-2.4 4.7.6 10.8.8 16.5.3 7.7-.7 65.1-7.4 74.2-8.6 4-.6 4.3-2.4.3-2.4-1.5 0-21.4-1.1-44.2-2.4-22.8-1.4-56.7-3.1-75.4-3.8-44.6-1.7-198.8-1.7-237 0-85.3 3.8-157.2 9.7-223 18.1-12.1 1.5-22.1 2.8-22.1 2.7-.1-.1.2-1.2.7-2.5.8-1.9 1.2-2.1 2.4-1.1 1.3 1.1 1.5.7 1.5-2.3 0-4.2-1.8-3.6 23.5-7.6 97-15.4 167.4-20.6 276.5-20.5 65.2.1 88.5.8 147.5 4.4 52.8 3.3 49.4 3 50.1 5.7.8 3 4.6 3.1 6.5.2 1.4-2 1.4-2 20.9-.5 16.1 1.3 51.4 4.1 89.5 7.1 3.9.3 10.7.9 15.1 1.3 6.8.6 8.4.5 9.2-.8 1-1.3 1.1-1.3 1.1.2.1 1.3 1.7 1.7 9.9 2.3 5.3.3 11.5.9 13.7 1.3 3.6.6 3.3.7-3.5 1.3-16.7 1.4-20 2-20 3.6 0 1-.6 1.4-2 1-1.1-.3-2-.1-2 .4s-1.2.9-2.6.9c-1.9 0-2.5-.4-2-1.5.4-1.2-.4-1.5-4-1.5-4.1 0-4.5.2-3.9 2 .5 1.6.2 2-1.4 2-2.3 0-2.8-1.5-.8-2.3 2.1-.9-3.8-.7-14.5.3-32.6 3.3-68.5 7.2-69.8 7.7-.8.3 1.2 1.3 4.5 2.2 17.7 5.1 33.8 14.5 46.3 27 4.8 4.8 10.7 10.2 13.1 12.1s5.2 5.2 6.2 7.4c1.5 3.3 1.9 3.7 1.9 1.7 0-2.3.1-2.4 2-.6 2.3 2.1 6.4 1.8 34-2.1 22.2-3.1 37.4-6.3 53.4-11l12.6-3.7v-12.9c0-14.9 1-18.1 6.6-20.4 8-3.3 73.2-7.2 101.4-6 47 2 76.6 13 103.3 38.3 5.7 5.4 12.9 12 16 14.6 4.9 4.1 6.5 6.5 10.6 15 5.5 11.3 9.1 22.4 12 36.8 4.1 19.8 4.6 29.2 4.6 85.4 0 46-.3 55.8-1.8 66.2-10.4 72.9-51.3 113.4-123.3 121.8-13.9 1.6-46.4 1.8-77.4.4m59.6-40.9c15.2-1.2 21.1-2.3 31.8-5.6 29-9.2 47.9-29.3 57-60.7 5-17.1 5.8-26.2 6.3-69.7.9-69.8-2.1-93.6-14.7-117.8-2.2-4.4-5.7-9.8-7.6-12.1-2.3-2.6-3.4-4.7-3-5.7.5-1.3.9-1.4 2.1-.4 1.3 1.1 1.5.2 1.5-6.5 0-4.3-.2-7.6-.4-7.4-2.4 2.4-8.6 10.5-8.6 11.1 0 .5.6.8 1.4.8.9 0 1.2.7.9 1.9-.4 1.7-.8 1.8-3.1.8-3.6-1.5-7.2-4.7-8.3-7.4-.6-1.5-1.4-2-2.8-1.6-2.4.6-2.8-1.2-.6-2.4 1-.6 1.1-1.3.4-2.3-.8-1.3-1.2-1.2-2.4.5-1.3 1.6-1.9 1.8-4.3.8-22.1-9.3-27.5-10.7-47.5-12.3-11.3-1-18.3-.9-48.4.6l-11.3.5 1.4-3.3c.7-1.8 1.6-4.1 2-5.2.5-1.5.9-1.6 2.1-.6 1.3 1.1 1.5.2 1.5-6.5 0-4.3-.2-7.6-.4-7.4-2.4 2.4-8.6 10.5-8.6 11.1 0 .5.6.8 1.4.8 1.2 0 1 1.1-.7 6-1.2 3.3-2.5 6-2.8 6s-1.3-1.8-2.2-4c-1.1-2.8-2-3.8-3-3.4-1.2.4-1.1 1.4.7 6 1.7 4.3 2.6 5.4 4.4 5.4h2.2v75.8c0 41.6-.3 76.7-.6 78-.9 3.2-1.9 2.7-3.7-1.8-1.1-2.8-2-3.8-3-3.4-1.2.4-1.1 1.4.7 6 1.7 4.3 2.6 5.4 4.4 5.4h2.2v125.7l4.6.7c2.6.3 7.1.6 10 .6 4 0 5.4.4 5.4 1.4 0 .8 1.2 1.7 2.8 1.9 5.6.8 28.3.7 40.8-.3M1931 494.6c0-.8-.4-1.7-.8-2-1.3-.8-3.5 1.1-2.8 2.3 1 1.6 3.6 1.4 3.6-.3m-2.4-4.7c.3-.6.2-1.5-.2-1.9-1.2-1.2-3.8.5-3 1.9.9 1.4 2.3 1.4 3.2 0m-2.3-6.5c-.3-.8-.9-1.4-1.3-1.4-1.3 0-2.2 1.9-1.5 3 .9 1.4 3.4 0 2.8-1.6m-249.2-2.4c18.1-1.8 29-4.5 39.4-9.7 14.2-7.1 23.1-17.5 28.2-32.7 2.6-7.6 2.7-9.2 2.8-26.6 0-16.7-.2-19.2-2.3-26-3.4-10.7-5.7-14.4-10-16-2.1-.7-5.7-3.1-8.2-5.2-13.1-11.6-30.7-16.9-61.9-18.9-15.4-.9-46.6-.6-58.9.7l-5.2.5.2 65.2.3 65.2 9.8.3c7.5.2 9.7.6 9.7 1.7 0 .7 1.2 1.6 2.8 1.8 5.8.9 43.5.6 53.3-.3M1931 334.6c0-.8-.4-1.7-.8-2-1.3-.8-3.5 1.1-2.8 2.3 1 1.6 3.6 1.4 3.6-.3m-2.4-4.7c.3-.6.2-1.5-.2-1.9-1.2-1.2-3.8.5-3 1.9.9 1.4 2.3 1.4 3.2 0m-2.3-6.5c-.3-.8-.9-1.4-1.3-1.4-1.3 0-2.2 1.9-1.5 3 .9 1.4 3.4 0 2.8-1.6M2240.4 681.1c-8.6-1-21-3.5-28-5.6-3.5-1-6.3-2.7-8.6-5.3-1.8-2-6.4-5.7-10.1-8.1-8.7-5.6-18.4-16.2-23-24.9-4.4-8.3-8.5-22.1-9.3-31.2-.8-7.8-1.8-10.4-3.4-8-.6 1-1-28.6-1-87.2 0-75.1.2-88.8 1.4-88.8 1.1 0 1.5-4.5 1.9-24.7.4-21 .8-26.1 2.6-33.2 9.6-37.7 36.2-56.9 84.6-61.1 14.8-1.3 58.7-.8 96.5 1.1 23.7 1.2 23 .8 23 12.6 0 7.6.2 8.3 2 8.3s2 .7 2 8.3c0 5.1-.5 8.9-1.2 9.9-1.2 1.5-7.5 1.7-60.8 2.1-47.3.4-61 .8-67 2-14.9 3-23.8 8.1-28.3 16.5-5.1 9.4-5.7 14.9-5.7 58V461h10c8.2 0 10 .3 10 1.5 0 1.3 8.7 1.5 67.1 1.7l67.1.3 2.4 2.8c2.1 2.4 2.4 3.8 2.4 10.3 0 6.9.2 7.4 2.1 7.4 2 0 2.1.4 1.7 7.4-.3 6.2-.7 7.9-2.7 10l-2.4 2.6h-157.8l.3 49.3c.4 47.5.4 49.4 2.6 55.7 2.5 7.7 7.2 13.6 14.2 17.9 3.2 2 5 3.8 5 5 0 4.6 20.6 6 85.5 6.1 36.8 0 49.4.3 50.3 1.2.8.8 1.2 4.5 1.2 10 0 8.1.2 8.8 2 8.8s2 .7 2 7.9c0 11.2-1.1 12.4-12.7 13.3-13.7 1.1-109.9 1.8-117.9.9M2196.6 568c1.2-3 2.5-6.4 2.8-7.4.4-1.6.7-1.7 2-.6 1.4 1.1 1.6.4 1.6-6.5 0-4.3-.2-7.6-.4-7.4-2.4 2.4-8.6 10.5-8.6 11.1 0 .5.6.8 1.4.8 1.2 0 1 1.1-.7 6-1.2 3.3-2.5 6-2.8 6s-1.3-1.8-2.2-4c-1.1-2.8-2-3.8-3-3.4-1.2.4-1.1 1.4.7 6 1.8 4.7 2.4 5.4 4.5 5.2 2-.2 3-1.5 4.7-5.8m-9.6-9.4c0-.8-.4-1.7-.8-2-1.3-.8-3.5 1.1-2.8 2.3 1 1.6 3.6 1.4 3.6-.3m-2.4-4.7c.3-.6.2-1.5-.2-1.9-1.2-1.2-3.8.5-3 1.9.9 1.4 2.3 1.4 3.2 0m-2.3-6.5c-.3-.8-.9-1.4-1.3-1.4-1.3 0-2.2 1.9-1.5 3 .9 1.4 3.4 0 2.8-1.6m14.3-139.4c1.2-3 2.5-6.4 2.8-7.4.4-1.6.7-1.7 2-.6 1.4 1.1 1.6.4 1.6-6.5 0-4.3-.2-7.6-.4-7.4-2.4 2.4-8.6 10.5-8.6 11.1 0 .5.6.8 1.4.8 1.2 0 1 1.1-.7 6-1.2 3.3-2.5 6-2.8 6s-1.3-1.8-2.2-4c-1.1-2.8-2-3.8-3-3.4-1.2.4-1.1 1.4.7 6 1.8 4.7 2.4 5.4 4.5 5.2 2-.2 3-1.5 4.7-5.8m-9.6-9.4c0-.8-.4-1.7-.8-2-1.3-.8-3.5 1.1-2.8 2.3 1 1.6 3.6 1.4 3.6-.3m-2.4-4.7c.3-.6.2-1.5-.2-1.9-1.2-1.2-3.8.5-3 1.9.9 1.4 2.3 1.4 3.2 0m-2.3-6.5c-.3-.8-.9-1.4-1.3-1.4-1.3 0-2.2 1.9-1.5 3 .9 1.4 3.4 0 2.8-1.6M2634 680.5c-12-1.7-19.4-3.4-28-6.2-6.1-2-8.6-3.5-13.5-8.1-3.3-3.1-6.9-6.2-8-6.8-1.2-.7-1.6-1.6-1.2-2.8.6-1.5 1-1.6 2.2-.6 1.3 1.1 1.5.2 1.5-6.5 0-4.3-.2-7.6-.4-7.4-2.2 2.3-8.6 10.5-8.6 11.1 0 .3.8.8 1.8 1 1.2.3 1.4.6.5 1.1-1.6 1-14.9-11.7-20.2-19.3-10.8-15.4-17.9-36.1-21.8-63.2-1.4-9.8-1.7-28-2-135.3l-.4-124 2.3-3.5 2.4-3.5 17.5-.3c17.5-.2 17.5-.2 19.8 2.2 1.9 2 2.4 4 3 11 .6 7.3.4 8.9-1.1 10.8-2.1 2.8-2.2 3.8-.4 3.8 1.2 0 1 1.1-.7 6-1.2 3.3-2.5 6-2.8 6s-1.3-1.8-2.2-4c-1.1-2.8-2-3.8-3-3.4-1.2.4-1.1 1.4.7 6 1.7 4.3 2.5 5.4 4.4 5.4 1.7 0 2.7-1 4.2-4.5 1.1-2.5 2.4-4.5 3-4.5.7 0 1 23.1 1 72.3l-.1 72.2-2.9 3.5c-3.3 3.8-3.7 5-1.6 5 1.2 0 1 1.1-.7 6-1.2 3.3-2.5 6-2.8 6s-1.3-1.8-2.2-4c-1.1-2.8-2-3.8-3-3.4-1.2.4-1.1 1.4.7 6 1.7 4.3 2.5 5.4 4.4 5.4 1.7 0 2.7-1 4.2-4.5 1.1-2.5 2.4-4.5 3-4.5s1 7.4 1 21.8c0 35.3 2.5 55.2 9 72.1 4 10.3 8.4 17 16.3 24.6 3.4 3.3 6.9 7.4 7.8 9.1 1.3 2.5 2.9 3.6 8 5.2 12.1 4 21.2 5.3 39.9 5.9 16.7.5 70.7-1 78.8-2.3l3.2-.5V312.2l2.6-3.1 2.6-3.1h16.7c18.8 0 20.3.5 22.1 6.8.5 2 1 6.1 1 9 0 3.9.4 5.2 1.5 5.2 1.3 0 1.5 19.5 1.5 169.5 0 185 .3 174.7-5.7 177.8-1.5.8-6.6 2-11.3 2.6-11.5 1.5-46.8 4.1-55.7 4.1h-7.3v-7.4l-3.6 4.2c-3.3 3.9-3.9 4.2-8.6 4.2-3.5 0-5.4-.5-6.3-1.6-1-1.5-1.3-1.5-2.7 0-1.4 1.4-4.9 1.6-26.5 1.5-14-.1-28.5-.7-33.3-1.4m60.3-5.1c-.3-.8-.9-1.4-1.3-1.4-1.3 0-2.2 1.9-1.5 3 .9 1.4 3.4 0 2.8-1.6M2571 494.6c0-.8-.4-1.7-.8-2-1.3-.8-3.5 1.1-2.8 2.3 1 1.6 3.6 1.4 3.6-.3m-2.4-4.7c.3-.6.2-1.5-.2-1.9-1.2-1.2-3.8.5-3 1.9.9 1.4 2.3 1.4 3.2 0m-2.3-6.5c-.3-.8-.9-1.4-1.3-1.4-1.3 0-2.2 1.9-1.5 3 .9 1.4 3.4 0 2.8-1.6m4.7-148.8c0-.8-.4-1.7-.8-2-1.3-.8-3.5 1.1-2.8 2.3 1 1.6 3.6 1.4 3.6-.3m-2.4-4.7c.3-.6.2-1.5-.2-1.9-1.2-1.2-3.8.5-3 1.9.9 1.4 2.3 1.4 3.2 0m-2.3-6.5c-.3-.8-.9-1.4-1.3-1.4-1.3 0-2.2 1.9-1.5 3 .9 1.4 3.4 0 2.8-1.6M320 676.5c0-1.2-1.6-1.5-8.6-1.5-8.1 0-8.7-.1-11.5-2.9l-2.9-2.9-.2-134.9c-.1-74.1 0-136.7.1-139 .2-3.3-.1-4.3-1.2-4.3-.9 0-1.8.6-2.1 1.3-.9 2.1.5-13.4 2-22 1.9-10.7 4.9-20.3 8.6-27.7 5.1-10.2 8.8-13.9 10.1-10.3.3.7 2.9-1.2 6.8-4.9 10.2-9.7 18.9-14.7 33.3-19 17.2-5.2 24.3-5.8 63.6-5.9 30.8 0 38 .3 46 1.8 13.1 2.5 22.1 5.3 32 10 7.1 3.4 10.1 5.7 18 13.6 5.3 5.3 11.3 10.7 13.3 12.1 4.3 2.9 6.9 8.3 10.2 21.4 3.7 14.6 4.5 25.2 4.5 59.4 0 27.2-.2 32.2-1.4 32.2-.8 0-1.6-.7-1.8-1.5-.2-1.1-1.7.1-4.3 3.5-4.7 5.9-5.2 7-3.2 7 1.3 0 1.2.9-.6 6-1.2 3.3-2.5 6-2.8 6s-1.3-1.8-2.2-4c-1.1-2.8-2-3.8-3-3.4-1.2.4-1.1 1.4.7 6 1.8 4.7 2.4 5.4 4.5 5.2 2-.2 3-1.5 4.7-5.8 1.2-3 2.5-6.4 2.8-7.4.4-1.6.7-1.7 2-.6 1.3 1 1.6 1 1.6-.4 0-.9.7-1.6 1.5-1.6 1.3 0 1.5 9.1 1.5 75.5 0 64.7-.2 75.5-1.4 75.5-.8 0-1.6-.7-1.8-1.5-.2-1.1-1.7.1-4.3 3.5-4.7 5.9-5.2 7-3.2 7 1.3 0 1.2.9-.6 6-1.2 3.3-2.5 6-2.8 6s-1.3-1.8-2.2-4c-1.1-2.8-2-3.8-3-3.4-1.2.4-1.1 1.4.7 6 1.8 4.7 2.4 5.4 4.5 5.2 2-.2 3-1.5 4.7-5.8 1.2-3 2.5-6.4 2.8-7.4.4-1.6.7-1.7 2-.6 1.3 1 1.6 1 1.6-.4 0-.9.7-1.6 1.5-1.6 1.3 0 1.5 3.5 1.5 25.4v25.3l-2.5 2.7c-2.3 2.5-2.9 2.6-12 2.6-7.8 0-9.5-.3-9.5-1.5s-1.7-1.5-9-1.5c-8.5 0-9.2-.2-11.5-2.6l-2.5-2.7v-65.8c0-65.2 0-65.9-2-65.9-1.8 0-2-.7-2-8.5V521H345v73.3c0 47.3-.4 74.5-1 76.9-1.6 5.7-4 6.8-14.7 6.8-7.6 0-9.3-.3-9.3-1.5m203-53.9c0-.8-.4-1.7-.8-2-1.3-.8-3.5 1.1-2.8 2.3 1 1.6 3.6 1.4 3.6-.3m-2.4-4.7c.3-.6.2-1.5-.2-1.9-1.2-1.2-3.8.5-3 1.9.9 1.4 2.3 1.4 3.2 0m-2.3-6.5c-.3-.8-.9-1.4-1.3-1.4-1.3 0-2.2 1.9-1.5 3 .9 1.4 3.4 0 2.8-1.6m-23.5-165.9c.4-39.6-.9-62-4.1-73-2-7.2-2.5-7.9-5.6-9-1.8-.6-4.5-2.5-6-4.2-5.9-6.9-13.6-10.6-26.6-12.9-11.6-2-58.1-1.9-70.1.1-21 3.7-31.7 14-35.7 34.5-2 9.7-2.1 13.4-1.9 57.3l.2 36.7h9.5c8.8 0 9.5.1 9.5 2 0 2 .5 2 65.3 1.8l65.2-.3zm28.2 17.1c0-.8-.4-1.7-.8-2-1.3-.8-3.5 1.1-2.8 2.3 1 1.6 3.6 1.4 3.6-.3m-2.4-4.7c.3-.6.2-1.5-.2-1.9-1.2-1.2-3.8.5-3 1.9.9 1.4 2.3 1.4 3.2 0m-2.3-6.5c-.3-.8-.9-1.4-1.3-1.4-1.3 0-2.2 1.9-1.5 3 .9 1.4 3.4 0 2.8-1.6M678 676.5c0-1.2-1.7-1.5-8.9-1.5-7.6 0-9.2-.3-11.6-2.2-2.6-2-2.7-2.2-.8-2.9 1.1-.4 2.7-2.7 3.6-5.1.9-2.3 2.1-5.6 2.7-7.2.9-2.3 1.3-2.6 2.5-1.6 1.3 1.1 1.5.2 1.5-6.5 0-4.3-.2-7.6-.4-7.4-2.4 2.4-8.6 10.5-8.6 11.1 0 .5.7.8 1.5.8 1.2 0 1.1 1-.7 5.8-1.2 3.1-2.3 5.9-2.5 6.2-1.9 2.3-2.3-11-2.3-79.2v-76.7l2.2-.3c2-.3 5.3-6.2 7.2-13.2.4-1.6.7-1.7 2-.6 1.4 1.1 1.6.4 1.6-6.5 0-4.3-.2-7.6-.4-7.4-2.4 2.4-8.6 10.5-8.6 11.1 0 .5.7.8 1.5.8 1.2 0 1.1 1-.7 5.8-1.2 3.1-2.3 5.9-2.5 6.2-1.9 2.3-2.3-10.3-2.3-72.2 0-61.4-.2-69.8-1.5-69.8-1.2 0-1.5-1.6-1.5-8 0-4.7.4-8 1-8s1 .5 1 1.1 1.2.9 2.7.7c2.2-.2 3.1-1.3 4.9-5.8 1.2-3 2.5-6.4 2.8-7.4.4-1.6.7-1.7 2-.6 1.4 1.1 1.6.4 1.6-6.5 0-4.3-.2-7.6-.4-7.4-2.4 2.4-8.6 10.5-8.6 11.1 0 .5.6.8 1.4.8 1.2 0 1 1.1-.7 6-1.2 3.3-2.5 6-2.8 6s-1.3-1.8-2.2-4c-1.1-2.8-2-3.8-3-3.4-1.3.5-1.4 1-.1 3.9.8 1.9 1.4 3.7 1.4 4s-18.2.5-40.5.5c-35.3 0-40.5-.2-40.5-1.5 0-1.2-1.5-1.5-7.9-1.5-8.7 0-13.7-1.3-15.1-4-.6-1-1-7.9-1-15.3 0-11.8.2-13.8 1.9-15.8l1.9-2.4 124.6-.3 124.7-.2 2.4 2.4c2.2 2.3 2.5 3.3 2.5 10.6 0 7.5.1 8 2.1 8 2.1 0 2.1.4 1.7 7.7-.5 6.8-.8 7.9-3.2 10l-2.7 2.3H702l-.2 162.9-.3 162.9-2.4 2.6c-2.3 2.4-3 2.6-11.8 2.6-7.6 0-9.3-.3-9.3-1.5m-27-341.9c0-.8-.4-1.7-.8-2-1.3-.8-3.5 1.1-2.8 2.3 1 1.6 3.6 1.4 3.6-.3m-2.4-4.7c.3-.6.2-1.5-.2-1.9-1.2-1.2-3.8.5-3 1.9.9 1.4 2.3 1.4 3.2 0m-2.3-6.5c-.3-.8-.9-1.4-1.3-1.4-1.3 0-2.2 1.9-1.5 3 .9 1.4 3.4 0 2.8-1.6"/><path d="M1554 561c0-2 .5-3 1.4-3 1.2 0 1.3.6.5 3-.6 1.7-1.3 3-1.5 3s-.4-1.3-.4-3M255 414.7c0-.9-2.6-1.1-10.9-.9-12.3.5-15.1-.4-15.1-4.6 0-4.8 19-100.4 20.6-103.4.8-1.6 2.6-3.3 4-3.8 1.4-.6 9.9-1 18.9-1H289l1.6 2.5c1.6 2.4 1.5 3-.5 9.8-2.5 8.6-2.5 8.7-.6 8.7.8 0 1.5.6 1.5 1.4 0 3.5-23.7 74.5-24.6 73.6-.6-.6-1.5-.5-2.4.1-1.3.8-1.3 1.1.3 2.3 1.8 1.4 1.8 1.8.3 6.8-.8 2.9-2.2 6.3-3.1 7.6-1.7 2.4-6.5 3.1-6.5.9m9.6-20.8c.3-.6.2-1.5-.2-1.9-1.2-1.2-3.8.5-3 1.9.9 1.4 2.3 1.4 3.2 0m-2.3-6.5c-.3-.8-.9-1.4-1.3-1.4-1.3 0-2.2 1.9-1.5 3 .9 1.4 3.4 0 2.8-1.6M1554 401c0-2 .5-3 1.4-3 1.2 0 1.3.6.5 3-.6 1.7-1.3 3-1.5 3s-.4-1.3-.4-3M1895 283.1l-8.5-7.9 4.5.8c16.2 3.2 36.3-2.7 48.6-14.2 9.6-8.8 10.8-9.2 25.2-9 9.8.2 13.1-.1 15.9-1.5 3.9-1.8 7.3-6.5 7.3-10.2 0-8.5-14-16.3-34.3-19.2-20.6-2.9-31.5 7-37.3 33.9-.9 4.5-2.1 8.2-2.4 8.2-.8 0-2.7-4.2-3.5-8-.3-1.4-1.4-10.3-2.5-19.9-2.4-20.3-2.1-21.5 5-24.3 5.2-1.9 20.5-2.2 47.7-.9 15.4.8 16.6 1 22.5 3.9 10.4 5.1 20.2 16.1 23.9 26.8 3.9 11.1 1.4 21.3-6.4 25.8-6.9 3.9-10.3 4.5-30.2 5-30.6.8-49.9 5.7-62.6 15.7-2 1.6-3.8 2.9-4 2.9-.2-.1-4.2-3.6-8.9-7.9M935 285.8c-4.2-3.5-9.2-6.2-17.5-9.3-11.7-4.4-20.8-5.7-44.5-6.4-20.4-.6-23-.9-27.5-2.9-6.5-3-9.1-5.5-11.1-10.9-3.7-9.6 1.2-23.7 12.1-34.7 11.8-11.9 18-13.4 57-13.9 20.8-.2 22.3-.1 26.7 2 3.3 1.5 4.9 2.9 5.4 4.6.6 2.7-2 29.9-3.8 38.2-1.2 5.5-2.4 8.5-3.7 8.5s-4.4-15.8-5-26l-.6-9.4-1.8 2.8-1.9 2.8-3.7-4.1c-7.9-8.5-18.6-10.2-36.6-5.6-11.4 2.9-19.1 6.9-22.2 11.5-3.3 4.7-3 8.3 1.1 12.8l3.4 3.7 15.4.5c16.8.5 18.8 1.2 25.3 8 8.7 9.2 22.7 15 38.2 15.8 6.4.3 11.4 0 13.5-.7l3.3-1.2-2.5 2.4c-1.4 1.3-5.4 5.1-9 8.4l-6.5 6.1zM1038.5 280c-.8-2.4.1-4 2.1-4 1.6 0 1.7.5.8 3.8-.8 2.7-2.1 2.8-2.9.2M962 262.8c1-2.3 17-37.4 35.4-77.8 30.2-66.2 33.7-73.5 35.6-73.2 1.7.3 2.1-.1 1.8-1.5-.2-1-1-1.7-1.7-1.5-2.1.4 2.3-5 9.3-11.6 6.5-6 15-10.9 24.3-13.8 6.7-2 86.4-14 119.3-17.9 45.9-5.4 82.5-9 117-11.5 21.6-1.5 71.1-3.8 99.7-4.6l25.2-.7-1.7 4.7c-.9 2.5-2 4.6-2.3 4.6s-1.3-1.8-2.2-4c-1.1-2.8-2-3.8-3-3.4-1.4.5-1.4 1-.1 4.1.9 1.9 1.4 3.7 1.2 3.8-.2.2-13.8.9-30.3 1.5-91.4 3.3-165.8 14.4-226 33.7-41 13.1-79.5 33.5-104.2 55.2-31.1 27.3-49.6 63.6-52 101.9-.5 9.3-.8 10.3-2.7 10.7-1.2.2-10 1.4-19.6 2.5s-19.2 2.3-21.2 2.6l-3.8.6zm82.6-142.8c1.2-3 2.5-6.4 2.8-7.4.4-1.6.7-1.7 2-.6 1.4 1.1 1.6.4 1.6-6.5 0-4.3-.2-7.6-.4-7.4-2.4 2.4-8.6 10.5-8.6 11.1 0 .5.6.8 1.4.8 1.2 0 1 1.1-.7 6-1.2 3.3-2.5 6-2.8 6s-1.3-1.8-2.2-4c-1.1-2.8-2-3.8-3-3.4-1.2.4-1.1 1.4.7 6 1.8 4.7 2.4 5.4 4.5 5.2 2-.2 3-1.5 4.7-5.8M267.4 248.6c-1.8-4.6-1.9-5.6-.7-6 1-.4 1.9.6 3 3.4.9 2.2 1.9 4 2.2 4s1.6-2.7 2.8-6c1.7-4.9 1.9-6 .7-6-.8 0-1.4-.3-1.4-.8 0-.6 6.2-8.7 8.6-11.1.2-.2.4 3.1.4 7.4 0 6.9-.2 7.6-1.6 6.5-1.3-1.1-1.6-1-2 .6-.3 1-1.6 4.4-2.8 7.4-1.7 4.3-2.7 5.6-4.7 5.8-2.1.2-2.7-.5-4.5-5.2M263.4 238.9c-.7-1.2 1.5-3.1 2.8-2.3.4.3.8 1.2.8 2 0 1.7-2.6 1.9-3.6.3M1543.4 238.9c-.7-1.2 1.5-3.1 2.8-2.3.4.3.8 1.2.8 2 0 1.7-2.6 1.9-3.6.3M261.4 233.9c-.8-1.4 1.8-3.1 3-1.9.9.9 0 3-1.4 3-.5 0-1.2-.5-1.6-1.1M1541.4 233.9c-.8-1.4 1.8-3.1 3-1.9.9.9 0 3-1.4 3-.5 0-1.2-.5-1.6-1.1M259.5 229c-.7-1.1.2-3 1.5-3 .4 0 1 .6 1.3 1.4.6 1.6-1.9 3-2.8 1.6M1539.5 229c-.7-1.1.2-3 1.5-3 .4 0 1 .6 1.3 1.4.6 1.6-1.9 3-2.8 1.6M11.4 184.6c-1.8-4.6-1.9-5.6-.7-6 1-.4 1.9.6 3 3.4.9 2.2 1.9 4 2.2 4s1.6-2.7 2.8-6c1.7-4.9 1.9-6 .7-6-.8 0-1.4-.3-1.4-.8 0-.6 6.2-8.7 8.6-11.1.2-.2.4 3.1.4 7.4 0 6.9-.2 7.6-1.6 6.5-1.3-1.1-1.6-1-2 .6-.3 1-1.6 4.4-2.8 7.4-1.7 4.3-2.7 5.6-4.7 5.8-2.1.2-2.7-.5-4.5-5.2M7.4 174.9c-.7-1.2 1.5-3.1 2.8-2.3.4.3.8 1.2.8 2 0 1.7-2.6 1.9-3.6.3M5.4 169.9c-.8-1.4 1.8-3.1 3-1.9.9.9 0 3-1.4 3-.5 0-1.2-.5-1.6-1.1M3.5 165c-.7-1.1.2-3 1.5-3 .4 0 1 .6 1.3 1.4.6 1.6-1.9 3-2.8 1.6"/><path d="M1535 93.4c-5.3-1.3-112.2-3.4-173.1-3.5-39.8 0-71.9-.2-71.4-.4 2.4-.9 40.2-4.6 60.7-6 56.7-3.7 121.8-4 181.7-.8l12.3.6 1.9 4.4c1 2.5 1.9 4.9 1.9 5.4 0 .8-10.7 1.1-14 .3M1550.1 87c-.9-2.8-.8-3 1.5-3 2.6 0 2.7.3 1.8 3.8-.9 3-2 2.8-3.3-.8M1737.5 82.9c-79.2-13.5-176.4-21.9-271.7-23.6-20.8-.3-37.8-.9-37.8-1.2s.8-2.5 1.7-5l1.7-4.4 38.5.6c104.5 1.8 195.8 12.8 271.6 32.6 12.7 3.4 11.5 3.7-4 1"/></g><g fill="#9c5100"><path d="M1485.4 913c-1.2-.4-9.7-5.9-19-12.1-16-10.6-25.3-15.9-28.1-15.9-1 0-1.3 3.1-1.3 12.4 0 11.8-.1 12.5-2.1 13.1-1.4.5-2.7.1-3.8-.9-1.4-1.4-1.7-5.3-2.1-27.4-.4-20.3-.2-26.5.9-29.4 1.1-3.1 1.6-3.5 3.1-2.6 1.3.9 2.8.6 6.4-1.1 9.1-4.4 27.5-3.8 37.5 1.3 5.4 2.6 7 4.9 5.5 7.4-1.8 2.9-9.7 7.7-17.5 10.5-4.1 1.4-11.3 4-16.1 5.8-6.3 2.2-8.8 3.6-8.8 4.7s2.8 3.2 7.3 5.6c18.4 9.8 42.6 23.8 44.2 25.6 1.7 1.9 1.7 2-.9 3-1.5.5-2.8 1-2.9.9-.1 0-1.1-.4-2.3-.9m-34-44.1c5-1.6 12.3-4.7 16.1-6.8 5.6-3 7.1-4.3 7.3-6.3.5-4.4-2.4-5.2-16.8-4.4-22.6 1.1-26.5 4-22.9 16.9.9 3.2 1.4 3.7 4 3.7 1.7 0 7.2-1.4 12.3-3.1M2667.4 912.9c-1.1-.4-9.5-5.7-18.8-11.8-15.5-10.2-25.9-16.1-28.5-16.1-.6 0-1.1 4.7-1.3 12.1-.3 10.5-.6 12.3-2.1 13.3-1.5.9-2.2.7-3.8-1.3-1.7-2.1-1.9-4-1.9-22 0-10.8-.3-24-.7-29.3-.6-10.4-.1-11.7 3.8-8.2 1.7 1.6 2.2 1.5 7.1-.6 9.9-4.3 25.3-3.8 36.9 1.1 12.2 5.3 7.3 11.5-15.1 19.4-25.2 9-25.1 8.9-13.7 15 14.8 7.9 39.3 21.9 42.5 24.2 1.8 1.3 3 2.8 2.7 3.2-.7 1.3-4.9 1.9-7.1 1m-39.2-42.5c8.2-2.1 23.5-8.8 26.4-11.5 3.2-3 3.1-5.7-.3-7-3.2-1.3-24.8-.5-30.2 1-6.6 2-8.1 3.6-8.1 9.1 0 6.1 1.7 10 4.3 10 1 0 4.6-.7 7.9-1.6M1292.3 904.3c.4-4.9 1-20.8 1.3-35.5.6-24.1.9-26.9 2.5-28.4 2.5-2.3 3.2-1.6 13.5 13 17.8 25.2 28.9 39.6 30.4 39.3 1.3-.2 1.6-4.2 2.3-25.2.8-22.7 1-25.2 2.8-27 1.5-1.6 2.3-1.7 3.7-.9 1.6 1 1.7 3.9 1.7 34 0 18.1-.3 34.1-.8 35.7-.6 2.2-1.3 2.7-4 2.7-2.8 0-3.7-.7-7.2-6.2-2.2-3.5-10.7-15.3-18.9-26.3-8.1-11-15-20.6-15.3-21.2-.9-2.3-3-1.4-3.7 1.5-.3 1.5-.9 13.5-1.2 26.7-.4 13.3-1.1 24.6-1.7 25.3-.5.6-2.1 1.2-3.5 1.2h-2.5zM1658.5 898c-5.6-12-7.4-15-9-15-1.1 0-7.8 1.5-15 3.3l-12.9 3.3-3.1 9.1c-2.8 8.4-4.9 12.3-6.4 12.3-3.4-.1-2.7-2.6 8.3-32.1 6.2-16.8 11.7-31.9 12-33.7.4-1.8 1.5-3.4 2.7-3.7 4-1.3 8.9 4.6 13.3 16 1.4 3.9 3.8 9.4 5.2 12.3 2.6 5.1 2.7 5.2 7.3 5.2 6 0 9.1.9 9.1 2.6 0 2-3.5 3.5-6.9 2.8-2.8-.6-3.1-.4-3.1 1.9 0 3.3 5.1 17.4 8.4 23.2l2.4 4.4-2.4 1.5c-1.3.9-2.5 1.6-2.6 1.6-.2 0-3.5-6.7-7.3-15m-19.4-17.7c4.5-1.4 8.3-3.2 8.6-4 .8-2-2.6-13.3-5.6-18.9-3.5-6.5-5.6-6.8-7.1-1.3-.7 2.4-3.2 8.7-5.6 14.1s-4.4 10.5-4.4 11.3c0 2.3 5 1.9 14.1-1.2M1754.8 912.3c-1.6-.4-1.8-2.1-1.8-17.6.1-29.7 2-37.4 10.2-41.5 13-6.5 43.6-4 49.3 4.2 4.4 6.2-1.7 16.1-13.8 22.3-6.4 3.2-20.9 6.9-30.9 7.8l-7.8.7v11.4c0 9.8-.2 11.4-1.7 12.2-1 .5-2.6.7-3.5.5m32.3-32.5c11.5-2.5 17.4-6.2 19-11.9 1.6-5.3 0-8.6-5.6-11.4-6-3-23-2.8-30.2.4-6.5 2.9-7.7 4.3-9.1 10.9-2 9.1-1.5 13.3 1.8 14.4 2.6.9 15.1-.3 24.1-2.4M2476.2 912c-1.8-.4-3.5-1-3.8-1.3-1.1-1.1-2.4-38.6-1.8-50.1.6-10.4.5-12.1-1-13.1-6.8-5 24.7-6.6 39.7-2.1 6.8 2 12.5 6 13.3 9.3.6 2.3 0 3.3-4.4 7.4-2.8 2.5-7.6 5.7-10.6 7-3.1 1.2-5.6 2.8-5.6 3.4s3.9 1.6 9.4 2.3c16.3 2 27.7 8 26 13.4-4.3 14-41.5 28.5-61.2 23.8m22.3-7.2c17.6-2.6 30.5-9.5 30.5-16.2s-8.9-10.6-24.5-10.6c-7 0-26.1 2.2-27 3.2-.2.2 1.8 22 2.4 25.6.1.4 9.3-.6 18.6-2m-5.3-35.2c9.7-2.5 18.4-6.2 20.7-9 .7-.8 1.1-3 .9-4.8-.5-5.4-5.3-7.1-21.8-7.5-7.4-.2-14 0-14.6.4-.6.5-1.4 5.7-1.7 12.1l-.6 11.2h3.8c2.1 0 8.1-1.1 13.3-2.4M2756.3 904.3c.4-4.9 1-20.8 1.3-35.5.6-24.1.9-26.9 2.5-28.4 2.5-2.3 3.2-1.6 13.5 13 17.8 25.2 28.9 39.6 30.4 39.3 1.3-.2 1.6-4.2 2.3-25.2.8-22.7 1-25.2 2.8-27 1.5-1.6 2.3-1.7 3.7-.9 1.6 1 1.7 3.9 1.7 34 0 18.1-.3 34.1-.8 35.7-.6 2.2-1.3 2.7-4 2.7-2.8 0-3.7-.7-7.2-6.2-2.2-3.5-10.7-15.3-18.9-26.3-8.1-11-15-20.6-15.3-21.2-.9-2.3-3-1.4-3.7 1.5-.3 1.5-.9 13.5-1.2 26.7-.4 13.3-1.1 24.6-1.7 25.3-.5.6-2.1 1.2-3.5 1.2h-2.5zM1229 879.8v-32.3l17.8-.3c22.1-.4 28.2.2 28.2 2.9 0 2.5-1.4 2.7-21.3 3.2-9.8.2-17.3.9-17.9 1.5-1.3 1.3-2.3 16.6-1.4 22.6l.7 4.7 6.2-.6c3.4-.4 11.4-1.3 17.7-2.1 15.7-1.9 16.2-1.9 15.8.8-.3 2.2-1.2 2.4-20.1 4.7l-19.7 2.4.6 9.1c.4 5 .9 9.3 1.1 9.6.2.2 11-.4 23.9-1.4 13-1 23.8-1.5 24.2-1.2.3.4-.3 1.5-1.4 2.5-1.6 1.5-5.9 2.2-26.4 4-13.5 1.2-25.3 2.1-26.2 2.1-1.7 0-1.8-2.2-1.8-32.2M1377.4 906.3c1.2-11.9 2.8-43.3 2.3-44.7-.4-1-3.3-1.5-11.2-1.8-11.3-.4-13.4-1.3-11.3-5.1.9-1.7 1.7-1.8 11.6-1 5.9.4 19.6.8 30.4.8 18.8 0 19.7.1 20.2 2 .3 1.1.1 2.4-.4 2.9-.6.6-7.7 1.2-15.8 1.4l-14.9.4-1.1 14.2c-.7 7.7-1.5 19.2-1.9 25.4l-.6 11.2h-7.9zM1503 879.8v-32.3l17.8-.3c22.1-.4 28.2.2 28.2 2.9 0 2.5-1.4 2.7-21.3 3.2-9.8.2-17.3.9-17.9 1.5-1.3 1.3-2.3 16.6-1.4 22.6l.7 4.6 6.7-.6c3.7-.3 11.2-1.2 16.7-1.9 7.3-.9 10.5-.9 11.9-.1s2 .8 2.3-.1c.7-2 2.3-1.5 2.3.6 0 2.5-.3 2.6-21.8 5.2l-18.2 2.2.6 9.1c.4 5 .9 9.3 1.1 9.6.2.2 11-.4 23.9-1.4 13-1 23.8-1.5 24.2-1.2.3.4-.3 1.5-1.4 2.5-1.6 1.5-5.9 2.2-26.4 4-13.5 1.2-25.3 2.1-26.2 2.1-1.7 0-1.8-2.2-1.8-32.2M1822 911c-1.3-.8-1.5-5-1.4-28.6.1-28.8.3-29.9 4.4-29.1 1.3.2 1.5 4.2 1.5 29.2s-.2 29-1.5 29.2c-.8.2-2.2-.1-3-.7M1985 879.9v-32.4l17.8-.3c20.6-.3 28.1.3 28.9 2.5.3.8 0 1.8-.7 2.3-.6.4-9.5.9-19.6 1.2s-18.6.7-18.9 1c-1.3 1.3-2.2 11.8-1.7 19.5l.5 8.4 6.6-.6c3.6-.4 11.5-1.3 17.4-2.1 15.3-2 16.9-1.9 16.5.8-.3 2.2-1.2 2.4-20 4.7l-19.8 2.4V906h5.1c2.8 0 13.1-.7 23-1.6 9.9-.8 18.9-1.4 20.1-1.2 2 .3 2 .3.2 2.4-1.7 1.9-3.9 2.3-21.9 3.8-11 1-23 2-26.7 2.3l-6.8.6zM2056.7 910.5c-4.2-1.6-9.7-5.2-9.7-6.4 0-.4.6-1.6 1.4-2.7 1.4-1.8 1.6-1.8 4.3 1.4 3.6 4.3 9.1 5.6 17.7 4.2 14.9-2.4 30.6-10.9 30.6-16.6 0-2.7 1.5-2.2-23.9-7.9-11.3-2.6-21.2-5-22.1-5.5-5.2-2.8-5-7 .6-12.4 3-2.9 4-3.4 6.9-2.9 3 .5 3.6.2 4.6-2.1 1-2.1 2.8-3.1 8.8-5 11.3-3.5 21-5 24.4-3.7 6.5 2.5 1.5 5-16.7 8-17.9 3-23.6 5.7-23.6 11 0 2.5.6 2.7 18.2 7.5 31.9 8.6 30.8 8.2 30.8 11.9 0 6.7-9.2 13.8-25.3 19.3-9 3.2-21.5 4.1-27 1.9M2160.3 887.9c.4-13.3.7-27.9.7-32.3v-8.1l17.3-.3c20-.4 27.6.3 28.4 2.5.3.8 0 1.8-.7 2.3-.6.4-9.5.9-19.6 1.2s-18.7.8-19.1 1.2-.9 6.8-1.1 14.2l-.4 13.6 6.8-.7c3.8-.3 10.4-1.1 14.8-1.6 4.3-.6 8-.8 8.3-.5.3.2.2 1.3-.1 2.4-.8 2.4-6.3 3.6-7 1.5-.3-.7-1.2-1-2.1-.7-.8.3-1.3 1-1 1.4.5.9-2.8 1.6-12.4 2.6l-6.4.7.5 8.9c.3 4.9.8 9.2 1.2 9.5.6.6 12.6-.1 41.1-2.4l8-.6-1.6 2.4c-1.6 2.3-2.6 2.5-19 4-9.6.9-21.9 2-27.3 2.4l-9.9.7zM2242 907.8c0-2.4.7-13.7 1.4-25.3.8-11.5 1.2-21.2.9-21.5-.2-.3-5.1-.7-10.8-1-11.1-.6-13.9-1.7-11.8-4.8.9-1.5 2.4-1.6 11.9-1.2 6 .3 20 .5 31.2.5 18.8 0 20.3.1 20.8 1.8.3 1 .3 2.1 0 2.4-1.2 1.3-9.9 2.2-20.8 2.3h-11.7l-.5 5.3c-1.6 13.7-2.6 28-2.6 36.5v9.2h-8zM2419.5 911.1c-5-1.2-8.3-4-10.6-8.8-1.9-4-2.1-5.6-1.6-13.2.6-8.1 5.2-33.9 6.3-35s3.9 1.7 4.2 4.2c.2 1.4-.9 7.9-2.3 14.4-3.5 15.5-3.3 25 .7 29 2 2 3.9 2.7 8 3.1 8 .6 13.6-1.3 18.5-6.4 6-6.2 8.1-14.2 9.9-38.4.6-8.9 1.3-10.5 4.3-9.5 2 .6 2.1 1.2 2.1 15.9 0 8.4-.3 22.1-.7 30.5l-.6 15.2-2.6-.3c-2.5-.3-2.6-.5-2.3-6.5.4-7.7-.3-7.9-7.8-2.2-9.2 7-18.3 9.8-25.5 8M2544.3 887.9c.4-13.3.7-27.9.7-32.3v-8.1l17.3-.3c20-.4 27.6.3 28.4 2.5.3.8 0 1.8-.7 2.3-.6.4-9.5.9-19.6 1.2s-18.7.8-19.1 1.2-.9 6.8-1.1 14.2l-.4 13.6 6.8-.7c3.8-.3 12.1-1.3 18.4-2.1 15.6-1.9 16.2-1.9 15.8.8-.3 2.2-1.2 2.4-20.2 4.7l-19.9 2.5.5 8.8c.3 4.9.8 9.2 1.2 9.5.6.6 12.6-.1 41.1-2.4l8-.6-1.6 2.4c-1.6 2.3-2.6 2.5-19 4-9.6.9-21.9 2-27.3 2.4l-9.9.7zM1704.3 910.3l-13.3-.4v-6.2l26.7.7c14.7.4 26.9.9 27.2 1.2.3.2-.5 1.5-1.7 2.7-2.1 2-3.2 2.2-14 2.3-6.4 0-17.7-.1-24.9-.3M1858.1 910.3l-18.4-.3.7-4.3c.3-2.3.9-17.6 1.3-33.9l.6-29.8h6.2l-.4 30.8-.3 30.9 27.8.7c15.3.3 28 .9 28.3 1.2.3.2-.5 1.5-1.7 2.7-2.5 2.5-6.9 2.7-44.1 2M1932.6 910.3l-18.8-.3.6-2.8c.4-1.5 1-16.8 1.3-33.9l.6-31.3h6.8l-.7 31-.7 31h12.4c24 0 43.9 1.2 43.9 2.6 0 3-5.6 4.4-16.2 4.2-5.7-.2-18.8-.4-29.2-.5M2355.1 910.3l-18.4-.3.7-4.3c.3-2.3.9-17.6 1.3-33.9l.6-29.8h6.2l-.4 30.8-.3 30.9 27.8.7c15.3.3 28 .9 28.3 1.2.3.2-.5 1.5-1.7 2.7-2.5 2.5-6.9 2.7-44.1 2M2705.5 909.6c-9.2-2.3-15.6-7.1-19.2-14.5-2.2-4.6-2.9-16.8-1.3-22.7 1.5-5.2 6.5-12.6 10.7-15.7 1.6-1.2 2.8-2.7 2.6-3.4-.6-1.6 1.8-2.8 2.6-1.4 1.1 1.7 6.2-.4 6.8-2.9.3-1.1 1.4-2 2.4-2 1.1 0 1.6.5 1.3 1.4-.4 1 1.2 1.4 6.3 1.9 14.1 1.2 24.9 7.9 28.8 18 3.7 9.8.6 26.8-6.3 34-7 7.4-21.7 10.5-34.7 7.3m22.4-6.1c10.4-3.6 16.3-12.4 16.3-24.4.1-8.8-2.2-13.5-8.5-17.8-5.3-3.6-12.1-5.3-20.8-5.3-5.3 0-6.1.3-7 2.4-1.2 2.6-5.8 4.4-6.9 2.7-.9-1.5-6.6 4.6-8.4 9.1-1.9 4.5-2.1 15.5-.4 21.2 1.5 4.9 7.1 10.8 11.8 12.3 5.2 1.6 19.1 1.5 23.9-.2M1681.4 906c.4-2.5.9-17.9 1.3-34.2l.6-29.8h6.2l-.3 29.3c-.4 28.7-.4 29.2-2.6 31.7-1.3 1.4-3.1 3.6-4.1 5l-1.7 2.5z"/><path d="M2199 881.7c0-2.1 1.2-2.8 2.7-1.6 1 .9 1.3.8 1.3-.5 0-1 .8-1.6 2.1-1.6 1.5 0 2 .5 1.7 2.3-.2 1.8-1 2.3-4 2.5-2.7.2-3.8-.1-3.8-1.1M11.4 664.6c-1.8-4.6-1.9-5.6-.7-6 1-.4 1.9.6 3 3.4.9 2.2 1.9 4 2.2 4s1.6-2.7 2.8-6c1.7-4.9 1.9-6 .7-6-.8 0-1.4-.3-1.4-.8 0-.6 6.2-8.7 8.6-11.1.2-.2.4 3.1.4 7.4 0 6.9-.2 7.6-1.6 6.5-1.3-1.1-1.6-1-2 .6-.3 1-1.6 4.4-2.8 7.4-1.7 4.3-2.7 5.6-4.7 5.8-2.1.2-2.7-.5-4.5-5.2M7.4 654.9c-.7-1.2 1.5-3.1 2.8-2.3.4.3.8 1.2.8 2 0 1.7-2.6 1.9-3.6.3M5.4 649.9c-.8-1.4 1.8-3.1 3-1.9.9.9 0 3-1.4 3-.5 0-1.2-.5-1.6-1.1M3.5 645c-.7-1.1.2-3 1.5-3 .4 0 1 .6 1.3 1.4.6 1.6-1.9 3-2.8 1.6M2699.4 536.6c-1.8-4.6-1.9-5.6-.7-6 1-.4 1.9.6 3 3.4.9 2.2 1.9 4 2.2 4s1.6-2.7 2.8-6c1.7-4.9 1.9-6 .7-6-.8 0-1.4-.3-1.4-.8 0-.6 6.2-8.7 8.6-11.1.2-.2.4 3.1.4 7.4 0 6.9-.2 7.6-1.6 6.5-1.3-1.1-1.6-1-2 .6-.3 1-1.6 4.4-2.8 7.4-1.7 4.3-2.7 5.6-4.7 5.8-2.1.2-2.7-.5-4.5-5.2M2695.4 526.9c-.7-1.2 1.5-3.1 2.8-2.3.4.3.8 1.2.8 2 0 1.7-2.6 1.9-3.6.3M2693.4 521.9c-.8-1.4 1.8-3.1 3-1.9.9.9 0 3-1.4 3-.5 0-1.2-.5-1.6-1.1M2691.5 517c-.7-1.1.2-3 1.5-3 .4 0 1 .6 1.3 1.4.6 1.6-1.9 3-2.8 1.6M1800.2 474.8c-1.3-3.5-2.8-7.3-3.3-8.5-.5-1.3-1.3-3.3-1.8-4.5-.4-1.3-1.4-3.5-2-4.9-.7-1.4-1.1-4.1-.9-6 .3-3.2.5-3.4 4.3-3.7 3.9-.3 4.1-.2 5.9 4 .9 2.4 2.1 5.2 2.6 6.3s1.1 2.9 1.3 4c.3 1.4.5 1.2.6-.8 0-1.5.8-3.9 1.7-5.2 1.9-2.9 5.6-3.5 4.8-.7-.3.9.8.1 2.5-1.8l3.1-3.4v7.8c0 7-.2 7.7-1.6 6.6-1.3-1.1-1.6-1-2 .6-.3 1-1.6 4.4-2.8 7.4-1.6 4.1-2.8 5.6-4.5 5.8-1.2.2-2.5 1-2.8 1.8-1.1 2.9-2.9 1.2-5.1-4.8m11.7-10c.6-1.8.7-2.8.2-2.3-1 1.2-2.5 5.5-1.8 5.5.3 0 1-1.5 1.6-3.2M2443.4 472.6c-1.8-4.6-1.9-5.6-.7-6 1-.4 1.9.6 3 3.4.9 2.2 1.9 4 2.2 4s1.6-2.7 2.8-6c1.7-4.9 1.9-6 .7-6-.8 0-1.4-.3-1.4-.8 0-.6 6.2-8.7 8.6-11.1.2-.2.4 3.1.4 7.4 0 6.9-.2 7.6-1.6 6.5-1.3-1.1-1.6-1-2 .6-.3 1-1.6 4.4-2.8 7.4-1.7 4.3-2.7 5.6-4.7 5.8-2.1.2-2.7-.5-4.5-5.2M2439.4 462.9c-.7-1.2 1.5-3.1 2.8-2.3.4.3.8 1.2.8 2 0 1.7-2.6 1.9-3.6.3M2437.4 457.9c-.8-1.4 1.8-3.1 3-1.9.9.9 0 3-1.4 3-.5 0-1.2-.5-1.6-1.1M2435.5 453c-.7-1.1.2-3 1.5-3 .4 0 1 .6 1.3 1.4.6 1.6-1.9 3-2.8 1.6M2827.4 408.6c-1.8-4.6-1.9-5.6-.7-6 1-.4 1.9.6 3 3.4.9 2.2 1.9 4 2.2 4s1.6-2.7 2.8-6c1.7-4.9 1.9-6 .7-6-.8 0-1.4-.3-1.4-.8 0-.6 6.2-8.7 8.6-11.1.2-.2.4 3.1.4 7.4 0 6.9-.2 7.6-1.6 6.5-1.3-1.1-1.6-1-2 .6-.3 1-1.6 4.4-2.8 7.4-1.7 4.3-2.7 5.6-4.7 5.8-2.1.2-2.7-.5-4.5-5.2M2823.4 398.9c-.7-1.2 1.5-3.1 2.8-2.3.4.3.8 1.2.8 2 0 1.7-2.6 1.9-3.6.3M2821.4 393.9c-.8-1.4 1.8-3.1 3-1.9.9.9 0 3-1.4 3-.5 0-1.2-.5-1.6-1.1M2819.5 389c-.7-1.1.2-3 1.5-3 .4 0 1 .6 1.3 1.4.6 1.6-1.9 3-2.8 1.6M1803.4 312.6c-1.8-4.6-1.9-5.6-.7-6 1-.4 1.9.6 3 3.4.9 2.2 1.9 4 2.2 4s1.6-2.7 2.8-6c1.7-4.9 1.9-6 .7-6-.8 0-1.4-.3-1.4-.8 0-.6 6.2-8.7 8.6-11.1.2-.2.4 3.1.4 7.4 0 6.9-.2 7.6-1.6 6.5-1.3-1.1-1.6-1-2 .6-.3 1-1.6 4.4-2.8 7.4-1.7 4.3-2.7 5.6-4.7 5.8-2.1.2-2.7-.5-4.5-5.2M1799.4 302.9c-.7-1.2 1.5-3.1 2.8-2.3.4.3.8 1.2.8 2 0 1.7-2.6 1.9-3.6.3M1797.4 297.9c-.8-1.4 1.8-3.1 3-1.9.9.9 0 3-1.4 3-.5 0-1.2-.5-1.6-1.1M1795.5 293c-.7-1.1.2-3 1.5-3 .4 0 1 .6 1.3 1.4.6 1.6-1.9 3-2.8 1.6M395.4 280.6c-1.8-4.6-1.9-5.6-.7-6 1-.4 1.9.6 3 3.4.9 2.2 1.9 4 2.2 4s1.6-2.7 2.8-6c1.7-4.9 1.9-6 .7-6-.8 0-1.4-.3-1.4-.8 0-.6 6.2-8.7 8.6-11.1.2-.2.4 3.1.4 7.4 0 6.9-.2 7.6-1.6 6.5-1.3-1.1-1.6-1-2 .6-.3 1-1.6 4.4-2.8 7.4-1.7 4.3-2.7 5.6-4.7 5.8-2.1.2-2.7-.5-4.5-5.2M391.4 270.9c-.7-1.2 1.5-3.1 2.8-2.3.4.3.8 1.2.8 2 0 1.7-2.6 1.9-3.6.3M389.4 265.9c-.8-1.4 1.8-3.1 3-1.9.9.9 0 3-1.4 3-.5 0-1.2-.5-1.6-1.1M387.5 261c-.7-1.1.2-3 1.5-3 .4 0 1 .6 1.3 1.4.6 1.6-1.9 3-2.8 1.6"/></g><g fill="#7d675b"><path d="M1035.4 920.6c-1.8-4.6-1.9-5.6-.7-6 1-.4 1.9.6 3 3.4.9 2.2 1.9 4 2.2 4s1.6-2.7 2.8-6c1.7-4.9 1.9-6 .7-6-.8 0-1.4-.3-1.4-.8 0-.6 6.2-8.7 8.6-11.1.2-.2.4 3.1.4 7.4 0 6.9-.2 7.6-1.6 6.5-1.3-1.1-1.6-1-2 .6-.3 1-1.6 4.4-2.8 7.4-1.7 4.3-2.7 5.6-4.7 5.8-2.1.2-2.7-.5-4.5-5.2M1031.4 910.9c-.7-1.2 1.5-3.1 2.8-2.3.4.3.8 1.2.8 2 0 1.7-2.6 1.9-3.6.3M1029.4 905.9c-.8-1.4 1.8-3.1 3-1.9.9.9 0 3-1.4 3-.5 0-1.2-.5-1.6-1.1M1027.5 901c-.7-1.1.2-3 1.5-3 .4 0 1 .6 1.3 1.4.6 1.6-1.9 3-2.8 1.6M2699.4 856.6c-1.8-4.6-1.9-5.6-.7-6 1-.4 1.9.6 3 3.4.9 2.2 1.9 4 2.2 4s1.6-2.7 2.8-6c1.7-4.9 1.9-6 .7-6-.8 0-1.4-.3-1.4-.8 0-.6 6.2-8.7 8.6-11.1.2-.2.4 3.1.4 7.4 0 6.9-.2 7.6-1.6 6.5-1.3-1.1-1.6-1-2 .6-.3 1-1.6 4.4-2.8 7.4-1.7 4.3-2.7 5.6-4.7 5.8-2.1.2-2.7-.5-4.5-5.2M2695.4 846.9c-.7-1.2 1.5-3.1 2.8-2.3.4.3.8 1.2.8 2 0 1.7-2.6 1.9-3.6.3M2693.4 841.9c-.8-1.4 1.8-3.1 3-1.9.9.9 0 3-1.4 3-.5 0-1.2-.5-1.6-1.1M2691.5 837c-.7-1.1.2-3 1.5-3 .4 0 1 .6 1.3 1.4.6 1.6-1.9 3-2.8 1.6M1536.3 477.5c0-2.2.2-3 .4-1.7.2 1.2.2 3 0 4-.3.9-.5-.1-.4-2.3"/></g><g fill="#d6af9a"><path d="M2438 790.5c-1.6-2-.4-9.3 1.3-7.6s3.9 1.3 3.5-.6c-.2-1-1.1-1.7-2-1.5-1.6.2-1.6 0 0-3.8 1.5-3.6 2.1-4 5.2-4 3.9 0 7.8-2.2 10.8-6 2.7-3.5 32.8-58.1 36.5-66 4.5-9.9 7.7-19.5 10-30 2.1-9.4 2.1-11.2 2.4-176.7l.4-167.3h8.8c8.7 0 9 .1 11.5 3.1l2.6 3.1v165.1c0 113.3-.3 168.7-1.1 176.6-1.6 16.5-5.7 31.6-12.1 45.2-5.6 11.8-30.8 57.9-35.4 64.9-4.2 6.3-6 7-17.4 7-10 0-10.1 0-9.4-2.2 2-6.5 2.4-7.1 3.9-5.8 1.3 1.1 1.5.2 1.5-6.5 0-4.3-.2-7.6-.4-7.4-2.4 2.4-8.6 10.5-8.6 11.1 0 .5.7.8 1.5.8 1.2 0 1.2.7-.4 4.8-2.2 5.6-4.2 6.4-5.8 2.2-.8-2.1-1.6-2.8-2.7-2.4-1.2.5-1.3 1.1-.6 2.4.6 1 1 2.1 1 2.4 0 1.2-3.8.5-5-.9M160.5 698.4c-4.4-.2-9-.6-10.2-.9-2.1-.5-2.1-.7-.9-3.8.7-1.7 1.6-4 2-5.1.5-1.5.9-1.6 2.1-.6 1.3 1.1 1.5.6 1.5-3.7v-5l25.8-.7c28.2-.7 54.1-2.2 64.2-3.6 7.9-1.1 9-2.4 9-10.2V659h9.5c13.5 0 13.5.1 13.5 17.4 0 16.8-.2 17.1-11.5 18.5-17.2 2.2-84.6 4.4-105 3.5M923.4 698c-21.4-2.1-41.3-8.1-53.4-16.2-6.9-4.6-18.1-15.8-13.5-13.5 5.1 2.5 18.6 6.4 29 8.3 8.8 1.7 15.3 1.9 55.5 1.9 25-.1 52.1-.5 60.3-.9 18.4-1 18.9-1.3 19.5-11.5l.4-7.1h9.3c13 0 13 0 13 18.6 0 18.9.7 18.2-18.1 19.4-20.4 1.3-91.4 2-102 1M1148.9 698c-29.5-2-48.7-9-62.9-22.8-5.6-5.5-6.7-6.9-4.3-5.8 4.2 2.1 16.2 5.3 26.4 7.1 17.4 3.2 84 2.8 120.9-.6 14.9-1.4 16.4-2.3 16.8-10.8.3-5.3.6-6.1 2.2-6.1 1.7 0 2 .7 2 5.5 0 4.6.4 6 2.5 8 2.1 2.2 3.3 2.5 9.5 2.5h7v6.5c0 6.6-1.3 11-3.6 11.9-8.3 3.2-90.3 6.5-116.5 4.6M1446 698.5c-1.4-.2-5.9-.7-10.2-1l-7.6-.7 1.2-3.1c.7-1.8 1.6-4 2-5.1.5-1.5.9-1.6 2.1-.6 1.3 1.1 1.5.6 1.5-3.7v-5l39.8-.7c46-.8 57.6-1.6 60-4 1.1-1.1 1.8-3.9 2-8.6l.4-7h16.8v5.5c0 4.6.4 6 2.5 8.1 2.3 2.3 2.5 3.3 2.5 10.8 0 12.4-.1 12.5-17.5 13.6-14.6.9-91.1 2.1-95.5 1.5M1980.2 697.9c-24.4-.8-52-3.1-58.5-5-4.9-1.3-7.7-5.7-7.7-12.1 0-3.9.3-4.8 1.8-4.8.9 0 7.1.5 13.7 1s25.7 1.2 42.5 1.5c24.8.6 33 .4 43.9-.9 72.7-8.7 113.4-48.8 123.8-121.9 1.5-10.3 1.8-20.1 1.8-63.2 0-53-.6-62.8-4.6-82.4-4.2-20.8-10.4-36.4-20.4-51.8l-5.7-8.6 4.9 4c18.7 15.7 32.3 36.6 39.4 60.3 1.3 4.4 3 8 3.7 8 .9 0 1.2 18.2 1.2 87.4 0 48.1-.4 87.6-.8 87.8-.5.2-2.2 4.8-4 10.3-10.7 34.1-31.8 59.5-61.8 74.4-11.3 5.5-22.4 9.4-22.4 7.7 0-2 1.2-2.7 2.7-1.5 1.1.9 1.3-.2 1.3-6.6 0-4.3-.2-7.6-.4-7.4-2.4 2.4-8.6 10.5-8.6 11.1 0 .5.7.8 1.4.8 1.2 0 1.3.6.4 3-1.2 3.6-5.3 5.1-7.1 2.6-1.3-1.7-3.2-.9-3.2 1.4 0 1.8-8.2 3.3-26.3 4.9-13.3 1.2-15.8 1.2-51 0m78.8-11.3c0-.8-.4-1.7-.8-2-1.3-.8-3.5 1.1-2.8 2.3 1 1.6 3.6 1.4 3.6-.3m-2.4-4.7c.3-.6.2-1.5-.2-1.9-1.2-1.2-3.8.5-3 1.9.9 1.4 2.3 1.4 3.2 0m-2.3-6.5c-.3-.8-.9-1.4-1.3-1.4-1.3 0-2.2 1.9-1.5 3 .9 1.4 3.4 0 2.8-1.6M2275 698.4c-33.2-2.9-54.8-11.2-70-26.8l-4.5-4.6 6.1 2.4c6.7 2.7 18.1 5.7 29.4 7.8 8.6 1.5 86.7 1.8 112.4.4 13.7-.8 15.1-1 17.3-3.2 1.9-1.9 2.3-3.3 2.3-8.9V659h9.4c9.1 0 9.5.1 11.6 2.7 2 2.6 2.1 3.7 1.8 16.5-.4 18.2.2 17.6-18.4 18.8-14.9 1-89.9 2.1-97.4 1.4M2666 697.9c-18.3-2.1-39.7-8.3-52-15.2-6.7-3.7-15.3-10.2-19.9-15.1l-3.5-3.6 8.4 3.6c19.9 8.4 39.2 11.4 72.8 11.4 15.2 0 23.2.4 22.2 1-1.1.7-1.2 1.2-.3 2.1 1.4 1.4 3.6.2 2.9-1.6-.4-1 1.3-1.4 6.8-1.7l7.3-.3-2.3 3.1c-2.8 3.6-2.9 4.4-1 4.4 1.2 0 1 1.1-.7 6-1.2 3.3-2.5 6-2.8 6s-1.3-1.8-2.2-4c-1.1-2.8-2-3.8-3-3.4-1.3.5-1.4 1-.1 3.9.8 1.9 1.4 3.7 1.4 4 0 .8-25.5.4-34-.6m33-11.3c0-.8-.4-1.7-.8-2-1.3-.8-3.5 1.1-2.8 2.3 1 1.6 3.6 1.4 3.6-.3M2708 698.2c0-.5.6-2.5 1.4-4.3.7-1.9 1.6-4.2 2-5.3.5-1.5.9-1.6 2.1-.6 1.3 1.1 1.5.5 1.5-4.2v-5.4l21.2-1.2c26.8-1.6 46.3-3.9 50-5.8 6.1-3.2 5.8 7.3 5.8-176.4V327h8.5c7.7 0 8.8.2 11 2.4 1.3 1.3 2.6 3.9 3 5.7.3 1.9.4 81.2.3 176.4-.2 142.1-.5 173.4-1.6 175.3-2.3 4-8.6 6-24.2 7.6-28.2 2.9-81 5.4-81 3.8M141.6 693.5c-1.1-2.4-1.9-3.3-3-2.9-1.2.5-1.3 1-.5 2.6.6 1.1.9 2.2.6 2.4-.2.2-4.8-.7-10.2-2.1-13.7-3.4-24.9-9.2-33.5-17.2-3.9-3.6-6.9-6.7-6.7-6.9.1-.2 4.3 1 9.2 2.5 11.1 3.6 25.4 5.9 40.7 6.7l11.8.6-2 2.8c-2.4 3.3-2.4 3.8-.6 4.2 1.1.2 1 1.3-.7 5.6-1.1 2.8-2.4 5.2-2.8 5.2-.5 0-1.5-1.6-2.3-3.5m-2.6-6.9c0-.8-.4-1.7-.8-2-1.3-.8-3.5 1.1-2.8 2.3 1 1.6 3.6 1.4 3.6-.3m-2.4-4.7c.3-.6.2-1.5-.2-1.9-1.2-1.2-3.8.5-3 1.9.9 1.4 2.3 1.4 3.2 0M1421.3 693c-.8-2.1-1.6-2.8-2.7-2.4-1.2.5-1.3 1-.5 2.5.9 1.8.7 1.9-1.8 1.3-15.8-3.6-29.5-10.6-39.3-20.1l-7.5-7.2 7.2 2.9c9.8 3.9 24.1 6.9 39.9 8.2l13.3 1.2-2 2.7c-2.3 3.3-2.4 3.9-.4 3.9 1.2 0 1.2.7-.4 4.8-2.2 5.6-4.2 6.4-5.8 2.2m-2.3-6.4c0-.8-.4-1.7-.8-2-1.3-.8-3.5 1.1-2.8 2.3 1 1.6 3.6 1.4 3.6-.3m-2.4-4.7c.3-.6.2-1.5-.2-1.9-1.2-1.2-3.8.5-3 1.9.9 1.4 2.3 1.4 3.2 0M324.7 693c-3-2.3-4.7-7.4-4.7-13.7V675h7.8c9.1 0 11.6-1.3 13.2-6.8.6-2.4 1-29.6 1-76.9V518h152v20H364v151.2l-2.9 2.9-2.9 2.9h-15.5c-14 0-15.7-.2-18-2M521.8 692.5c-2.6-2.5-3.8-6.9-3.8-13.7V675h8c7.5 0 8.3-.2 10.5-2.6l2.5-2.7V530.6c0-94.9-.4-142-1.1-148.1-1.6-13-5.3-26.8-9.6-35.5-2-4.1-3.9-7.9-4.1-8.3-1.3-2.6 5.4 2.7 12.9 10.2 12.2 12.3 17.9 24.3 22.5 47.1 1.6 7.7 1.8 21.1 2.1 149.4.3 106.6.1 141.7-.8 143.8-2.2 5.3-3.9 5.8-21 5.8-15.3 0-15.7 0-18.1-2.5M681.3 692.6c-2.5-2.1-2.8-3.1-3.1-10l-.4-7.6h7.9c7.3 0 8.2-.2 10.4-2.6l2.4-2.6.3-162.9.2-162.9h100.9l2.6-2.3c2.2-1.8 2.7-3.4 3.2-8.5l.6-6.2h7.9c8.8 0 11.1.8 13.1 4.7 1.3 2.4 1.2 3-1.6 7.1-3.5 5.2-8.3 16.2-9.2 21.5l-.7 3.7h-20.7l-.3-5-.3-5.1-4 5.1-4 5H722l-.2 162.6-.3 162.6-3.3 2.9-3.2 2.9h-15.5c-14.8 0-15.5-.1-18.2-2.4m95.3-330.7c.3-.6.2-1.5-.2-1.9-1.2-1.2-3.8.5-3 1.9.9 1.4 2.3 1.4 3.2 0m-2.3-6.5c-.3-.8-.9-1.4-1.3-1.4-1.3 0-2.2 1.9-1.5 3 .9 1.4 3.4 0 2.8-1.6M1276.9 692.1c-2.7-2.7-2.9-3.5-2.9-10V675h7.8c7 0 8.1-.3 10.1-2.4 1.3-1.4 3.3-2.6 4.4-2.8 1.9-.3 5.2-6.5 7.1-13.2.4-1.6.7-1.7 2-.6 1.4 1.1 1.6.4 1.6-6.5 0-4.3-.2-7.6-.4-7.4-2.4 2.4-8.6 10.5-8.6 11.1 0 .5.6.8 1.4.8 1.2 0 1 1.1-.7 6-1.2 3.3-2.5 6-2.9 6-.5 0-.8-35-.8-77.9 0-74.3.1-77.9 1.8-78.3 1-.3 2.5-2.4 3.5-4.9.9-2.4 2.1-5.7 2.7-7.3.9-2.3 1.3-2.6 2.5-1.6 1.3 1.1 1.5.2 1.5-6.5 0-4.3-.2-7.6-.4-7.4-2.4 2.4-8.6 10.5-8.6 11.1 0 .5.6.8 1.4.8 1.2 0 1 1.1-.7 6-1.2 3.3-2.5 6-2.9 6-.5 0-.8-35-.8-77.9 0-74.3.1-77.9 1.8-78.3 1-.3 2.5-2.4 3.5-4.9.9-2.4 2.1-5.7 2.7-7.3.9-2.3 1.3-2.6 2.5-1.6 1.3 1.1 1.5.5 1.5-3.9 0-4.8.1-5.1 2.5-5.1 3.4 0 7.2 3.9 8 8.1.3 1.9.4 82.2.3 178.4-.3 189.6 0 177.9-5.5 180.4-1.4.6-8.9 1.1-17.4 1.1h-15.1zM1580.9 692.1c-2.7-2.7-2.9-3.5-2.9-10V675h7.5c6.9 0 7.8-.2 10-2.6l2.5-2.7V519.1l32.3.5c17.7.3 33.1.7 34.2 1 1.2.2 4.2 4.1 7.8 10l5.8 9.6-28.6-.7-28.5-.8v74.2c0 79.6.1 78.4-4.9 81.1-1.1.5-8.6 1-17.1 1h-15.2zM1783.5 692.8c-1.4-1.3-4.6-5.7-7-9.8l-4.4-7.5 15.9-.3c15.7-.2 16-.3 17.6-2.7 1-1.5 1.3-3.2.9-4.7-.4-1.3-21.2-36.4-46.2-78.1-25-41.8-45.1-76.2-44.7-76.6.5-.4 4.1-1.8 7.9-3.1 29.8-9.7 53-31.3 62.8-58.5 4.6-13.1 6.1-22.7 6.1-40-.1-24.3-4-42.1-12.5-56.9-2.1-3.8-3.8-7-3.6-7.2.1-.1 3.3 2.3 7 5.4 21.3 18 31.8 43.8 31.8 78.2-.1 15.2-1.2 24-3.7 27.8-1 1.6-1.3 2.7-.7 2.9.7.3.6 1.9-.3 4.9-2.3 7.6-2.8 8-4.6 3.5-1.2-2.9-2.1-3.9-3.1-3.5-1.3.5-1.2 1.4.8 6.2l2.4 5.7-3.6 6.5c-10.8 19.9-32.9 37.3-57.2 45.1-5.1 1.7-7.1 2.8-7.1 4 0 .9 20.5 35.9 45.5 77.8 25 41.8 45.5 76.9 45.5 77.9s-.8 2.6-1.8 3.5c-1.6 1.5-4.6 1.7-21.5 1.7-18.9 0-19.7-.1-22.2-2.2m19.5-230.2c0-.8-.4-1.7-.8-2-1.3-.8-3.5 1.1-2.8 2.3 1 1.6 3.6 1.4 3.6-.3m-2.4-4.7c.3-.6.2-1.5-.2-1.9-1.2-1.2-3.8.5-3 1.9.9 1.4 2.3 1.4 3.2 0m-2.3-6.5c-.3-.8-.9-1.4-1.3-1.4-1.3 0-2.2 1.9-1.5 3 .9 1.4 3.4 0 2.8-1.6"/><path d="m1938.3 639.3-3.3-.4v-64.3c0-61.3.1-64.4 1.8-64.8 1-.3 2.5-2.4 3.5-4.9.9-2.4 2.1-5.7 2.7-7.3.9-2.3 1.3-2.6 2.5-1.6 1.3 1.1 1.5.2 1.5-6.5 0-4.3-.2-7.6-.4-7.4-2.4 2.4-8.6 10.5-8.6 11.1 0 .5.6.8 1.4.8 1.2 0 1 1.1-.7 6-1.2 3.3-2.5 6-2.9 6-.5 0-.8-35.1-.8-78 0-70.4.2-78 1.6-78 .9 0 2.2-1.7 3.1-3.9 1.5-3.9 1.7-4 7.7-4.6 11.5-1.3 57.7-1 66.1.3 17.4 2.8 38.4 10.5 38.1 14-.1 1.3.6 1.6 2.5 1.4 2-.2 4 .9 8.3 4.8 6.9 6.4 7.4 8.5 1.4 6.2-2.4-.9-4.6-2.1-5-2.6-.3-.5-1.9-1-3.5-1.1-1.5-.1-7.1-1.1-12.3-2.1-8.3-1.7-13.7-1.9-42.6-1.8-18.2.1-35.2.4-37.8.8l-4.6.7V640l-8.2-.2c-4.6 0-9.8-.3-11.5-.5m118.3-277.4c.3-.6.2-1.5-.2-1.9-1.2-1.2-3.8.5-3 1.9.9 1.4 2.3 1.4 3.2 0M110 631.7c-10.6-5.1-16.2-14.7-18-31.2-.6-5.5-1-59.9-1-141.2V327h8.1c8.7 0 11.1.8 13.1 4.3 1 1.7 1.4 32.8 1.8 149.2.4 107.9.8 147.9 1.7 150.3 1.4 3.9.7 4-5.7.9M876.2 631.4c-7.1-3.5-12.7-10.2-15.4-18.3-2.2-6.4-2.3-7.9-2.6-58.8l-.3-52.3h157.8l2.3-2.5c1.8-1.9 2.5-4 2.8-8.5l.4-6h16.8v37H880v41.3c.1 38.2 1 63 2.6 68.5.8 2.8 0 2.8-6.4-.4M1102.4 632.1c-10.2-4.7-16.4-14.2-18.3-28.4-.7-5.3-1.1-52.1-1.1-142.3V327h8.3c8.2.1 9.7.6 12.7 4.4 1.3 1.7 1.6 20.4 2.1 149.5.3 81.2.9 148.8 1.3 150.4 1 3.2.5 3.3-5 .8M1392.5 631.8c-5.2-2.7-11.2-8.4-13.6-13-4.5-8.8-4.9-13.4-4.9-66.5V502h78.1c54 0 78.7-.3 80.1-1.1 2.6-1.4 4.8-6.8 4.8-11.9v-4h17v37h-119v-8.4l-3.6 4.2c-3.3 3.9-3.9 4.2-8.6 4.2-3.5 0-5.4-.5-6.3-1.6-1-1.5-1.3-1.5-2.7 0-1.3 1.2-3.6 1.6-9.7 1.6h-8.1v45.8c0 40.9.7 58.6 2.5 64.3.8 2.5-.9 2.4-6-.3m21.8-116.4c-.3-.8-.9-1.4-1.3-1.4-1.3 0-2.2 1.9-1.5 3 .9 1.4 3.4 0 2.8-1.6M2223.2 631.4c-7.1-3.5-12.7-10.2-15.4-18.3-2.2-6.4-2.2-8-2.6-58.8l-.3-52.3h157.8l2.3-2.5c1.8-1.9 2.5-4 2.8-8.5l.4-6h7.7c12.2 0 15.1 3.5 15.1 18.5 0 9.5-1.5 14.3-5.1 16.9-2.1 1.4-9.8 1.6-80.2 1.6h-77.8l.4 53.8c.2 29.5.7 54.7 1.1 56 1.1 2.8.2 2.8-6.2-.4M2609.1 624.5c-13.9-10.2-22.4-28.4-26.3-56-1.7-12.5-1.8-66.9 0-70.9 1-2.3 1.5-2.6 2.7-1.6 1.3 1.1 1.5.2 1.5-6.6v-7.8l-3 3.4-2.9 3.5.2-74c.2-77.1.5-81.6 4.2-78.5 1.3 1.1 1.5.5 1.5-3.9V327h5.8c5 0 6.2.4 8.3 2.6l2.4 2.6.6 127.6c.5 109.7.8 128.8 2.1 135.7 2.5 12.5 4.7 20.3 7.8 27.2 1.6 3.5 2.5 6.3 2 6.3-.4 0-3.5-2-6.9-4.5M1598.7 480.3c-.4-.3-.7-31.1-.7-68.4v-67.7l4.8-.6c11.2-1.3 48-1.7 64.7-.7 28.2 1.8 46 6.5 58.3 15.5 5.2 3.8 12.6 11.5 11.9 12.3-.2.1-2.7-.7-5.6-1.8s-10.5-2.9-17-4.1c-10.6-2-15.1-2.2-51.1-2.2-21.7-.1-40.3.2-41.2.6-1.7.7-1.8 4.5-1.8 59.3V481h-10.8c-6 0-11.2-.3-11.5-.7M341.8 441.3c-.4-46.1-.2-52.9 1.8-62.8 4.1-21 14.6-31.3 35.8-35 6.6-1.1 16.3-1.5 38.5-1.5 37.9 0 47.8 1.6 58.8 9.3 3.7 2.6 11 11.4 10.2 12.1-.2.2-4.9-.3-10.4-1.1-14-2-67.8-1.3-78 1.1-17.9 4.1-26.6 12.7-31.7 31.4-2 7.1-2.2 10.9-2.6 45.5l-.4 37.7H342zM858 421.4c0-34.5.3-43.8 1.5-49.2 4.5-19.5 16.2-27 45.5-29.1 8-.6 36.9-1.1 64.2-1.1 57.1 0 51.8 1.1 51.8-10.4V325h3.3c1.7 0 5.6.3 8.5.6l5.2.7v36.2l-49.7-.3c-63.5-.4-78.4.7-90.3 6.8-4.8 2.5-10.3 8-12.5 12.6-4.2 8.8-4.7 13.7-5.2 48.7l-.5 33.7H858zM1373.8 427.8c-.2-43.9 0-48.5 1.8-56.9 4.1-18.3 16.6-25.9 45.8-27.9 7.7-.5 36.5-1 63.9-1h49.7l1-2.6c.6-1.4 1-5.2 1-8.5V325h3.3c1.7 0 5.6.3 8.5.6l5.2.7v36.2h-118.9l-.3-4.3-.3-4.3-4.3 5.4c-4.5 5.7-10.5 8.9-11.6 6.1-.3-.8-1.2-1.1-2.1-.8-.9.4-1.4 1.2-1.1 2 .3.7-1.3 2.3-4 3.9-5.7 3.4-9.8 9.1-12.6 17.4-2 6.1-2.2 9.1-2.6 41.4l-.4 34.7H1374zm42.8-65.9c.3-.6.2-1.5-.2-1.9-1.2-1.2-3.8.5-3 1.9.9 1.4 2.3 1.4 3.2 0m-2.3-6.5c-.3-.8-.9-1.4-1.3-1.4-1.3 0-2.2 1.9-1.5 3 .9 1.4 3.4 0 2.8-1.6M2205 421.8c0-46.3.5-51.4 5.7-61 4.5-8.4 13.4-13.5 28.3-16.5 6-1.2 19.7-1.6 67-2 53.3-.4 59.6-.6 60.8-2.1.7-.9 1.2-4.5 1.2-8.5v-7l9.3.7c13.1 1 13.1 1.1 13.5 17.9.2 9.4-.1 13.9-1.1 15.7l-1.3 2.5-60.4.6c-60.9.6-66 .9-76.8 4.5-6.5 2.2-9.3 3.9-13.3 8.1-9.2 9.6-10.3 15.5-10 56.6l.2 32.7H2205zM253.5 431c-1-3.3 1.7-17.3 3.7-18.8.9-.7 2.7-3.9 3.8-7.1 1.8-4.9 2.5-5.8 4.2-5.3 1.6.4 1.9.1 1.6-1.4-.2-1-1-1.8-1.6-1.6-1.6.3-1.9 1.3 11.2-39.3l11.4-35 12.1-.3c11.6-.3 12.1-.2 13.5 2 2 3.3 1.3 9.2-1.7 13.6-6.9 9.9-13.2 29.4-14.4 44.2-.3 4.1-1.1 8-1.7 8.5-.7.6-4 9.6-7.4 20.2-4.6 14.2-6.8 19.6-8.4 20.8-1.7 1.1-5 1.5-14 1.5-10.8 0-11.7-.2-12.3-2m23.1-23c1.2-3 2.5-6.4 2.8-7.4.4-1.6.7-1.7 2-.6 1.4 1.1 1.6.4 1.6-6.5 0-4.3-.2-7.6-.4-7.4-2.4 2.4-8.6 10.5-8.6 11.1 0 .5.6.8 1.4.8 1.2 0 1 1.1-.7 6-1.2 3.3-2.5 6-2.8 6s-1.3-1.8-2.2-4c-1.1-2.8-2-3.8-3-3.4-1.2.4-1.1 1.4.7 6 1.8 4.7 2.4 5.4 4.5 5.2 2-.2 3-1.5 4.7-5.8M577.3 363.2c-5.2-1.5-6.3-3.7-6.3-11.7V344h80.1l1.5 3.5c.7 1.9 1.4 6.4 1.4 10v6.5l-37.2-.1c-20.5-.1-38.3-.4-39.5-.7M1295 336.5V327h7.1l-2 2.9c-2.5 3.4-2.6 4.1-.7 4.1 1.2 0 1 1.1-.7 6-1.2 3.3-2.5 6-2.9 6-.5 0-.8-4.3-.8-9.5M1935 344c0-1.1.6-2 1.4-2 .9 0 1.2.7.9 2-.3 1.1-.9 2-1.4 2s-.9-.9-.9-2M651.4 184.6c-1.8-4.6-1.9-5.6-.7-6 1-.4 1.9.6 3 3.4.9 2.2 1.9 4 2.2 4s1.6-2.7 2.8-6c1.7-4.9 1.9-6 .7-6-.8 0-1.4-.3-1.4-.8 0-.6 6.2-8.7 8.6-11.1.2-.2.4 3.1.4 7.4 0 6.9-.2 7.6-1.6 6.5-1.3-1.1-1.6-1-2 .6-.3 1-1.6 4.4-2.8 7.4-1.7 4.3-2.7 5.6-4.7 5.8-2.1.2-2.7-.5-4.5-5.2M647.4 174.9c-.7-1.2 1.5-3.1 2.8-2.3.4.3.8 1.2.8 2 0 1.7-2.6 1.9-3.6.3M645.4 169.9c-.8-1.4 1.8-3.1 3-1.9.9.9 0 3-1.4 3-.5 0-1.2-.5-1.6-1.1M643.5 165c-.7-1.1.2-3 1.5-3 .4 0 1 .6 1.3 1.4.6 1.6-1.9 3-2.8 1.6M1163.4 152.6c-1.8-4.6-1.9-5.6-.7-6 1-.4 1.9.6 3 3.4.9 2.2 1.9 4 2.2 4s1.6-2.7 2.8-6c1.7-4.9 1.9-6 .7-6-.8 0-1.4-.3-1.4-.8 0-.6 6.2-8.7 8.6-11.1.2-.2.4 3.1.4 7.4 0 6.9-.2 7.6-1.6 6.5-1.3-1.1-1.6-1-2 .6-.3 1-1.6 4.4-2.8 7.4-1.7 4.3-2.7 5.6-4.7 5.8-2.1.2-2.7-.5-4.5-5.2M1159.4 142.9c-.7-1.2 1.5-3.1 2.8-2.3.4.3.8 1.2.8 2 0 1.7-2.6 1.9-3.6.3M1157.4 137.9c-.8-1.4 1.8-3.1 3-1.9.9.9 0 3-1.4 3-.5 0-1.2-.5-1.6-1.1M1155.5 133c-.7-1.1.2-3 1.5-3 .4 0 1 .6 1.3 1.4.6 1.6-1.9 3-2.8 1.6"/></g></svg>