<?xml version="1.0" encoding="utf-8"?>
<!DOCTYPE svg PUBLIC "-//W3C//DTD SVG 1.0//EN" "http://www.w3.org/TR/2001/REC-SVG-20010904/DTD/svg10.dtd">
<svg version="1.0" xmlns="http://www.w3.org/2000/svg" width="2877px" height="969px" viewBox="0 0 2877 969" preserveAspectRatio="xMidYMid meet">
 <g fill="#090807">
  <path d="M2442 774 c0 -1.3 -0.7 -2 -1.9 -2 -1.1 0 -2.1 -0.6 -2.4 -1.2 -0.4 -1 -0.7 -1 -1.8 0 -0.8 0.8 -4.6 1.2 -11 1.2 -11.1 0 -12.5 -0.8 -11.6 -6.5 0.3 -2 8.9 -19.4 19.1 -38.8 10.2 -19.3 20.1 -39.3 22 -44.4 7.3 -18.9 6.9 -6.4 7.3 -198.5 0.4 -171.2 0.4 -172.7 2.4 -175.2 l2 -2.6 16.9 0 c9.3 0 17.6 0.3 18.5 0.6 2.8 1.1 4.5 6 4.5 13.4 0 5.6 0.3 7 1.5 7 1.4 0 1.5 17.9 1.2 168.8 -0.3 167.1 -0.3 168.8 -2.4 178.2 -4.2 19 -7.7 27 -28.8 65 -18.7 33.8 -21.3 37 -30 37 -4.8 0 -5.5 -0.2 -5.5 -2z"/>
  <path d="M907.4 728.6 c-1.8 -4.6 -1.9 -5.6 -0.7 -6 1 -0.4 1.9 0.6 3 3.4 0.9 2.2 1.9 4 2.2 4 0.3 0 1.6 -2.7 2.8 -6 1.7 -4.9 1.9 -6 0.7 -6 -0.8 0 -1.4 -0.3 -1.4 -0.8 0 -0.6 6.2 -8.7 8.6 -11.1 0.2 -0.2 0.4 3.1 0.4 7.4 0 6.9 -0.2 7.6 -1.6 6.5 -1.3 -1.1 -1.6 -1 -2 0.6 -0.3 1 -1.6 4.4 -2.8 7.4 -1.7 4.3 -2.7 5.6 -4.7 5.8 -2.1 0.2 -2.7 -0.5 -4.5 -5.2z"/>
  <path d="M903.4 718.9 c-0.7 -1.2 1.5 -3.1 2.8 -2.3 0.4 0.3 0.8 1.2 0.8 2 0 1.7 -2.6 1.9 -3.6 0.3z"/>
  <path d="M901.4 713.9 c-0.8 -1.4 1.8 -3.1 3 -1.9 0.9 0.9 0 3 -1.4 3 -0.5 0 -1.2 -0.5 -1.6 -1.1z"/>
  <path d="M899.5 709 c-0.7 -1.1 0.2 -3 1.5 -3 0.4 0 1 0.6 1.3 1.4 0.6 1.6 -1.9 3 -2.8 1.6z"/>
  <path d="M136.6 680.5 c-0.4 -1.2 -1 -1.4 -2.5 -0.5 -4.1 2.2 -20.1 0.5 -35.4 -3.7 -4.3 -1.2 -6.6 -2.5 -9 -5.3 -1.8 -2 -5.4 -5 -8.2 -6.5 -2.7 -1.6 -8.4 -6.3 -12.5 -10.4 -13.4 -13.5 -20 -30.4 -22 -56.5 -1.3 -17.1 -1.4 -281.5 -0.1 -284.9 0.6 -1.4 2 -3.5 3.2 -4.6 2.1 -1.9 3.4 -2.1 18.2 -2.1 8.9 0 16.7 0.4 17.8 1 3.2 1.8 4.9 6.4 4.9 13.5 0 5.1 0.3 6.5 1.5 6.5 1.3 0 1.5 15.2 1.5 130.8 0 80.3 0.4 134.2 1 139.7 0.6 5 2 11.6 3.1 14.8 2.4 6.5 8.4 13.3 14 16 2.2 1 3.9 2.6 4.3 4.1 1.3 5.2 17.8 6.5 85.8 6.6 57.5 0 51.8 -1.3 51.8 11.9 0 6.5 0.3 8.1 1.5 8.1 1.2 0 1.5 1.5 1.5 7.3 0 4.3 -0.5 8 -1.3 9.1 -2.2 3 -25.7 5 -73.4 6.2 l-27.3 0.7 0 -4.3 0 -4.4 -3.6 4.2 c-3.3 4 -3.9 4.2 -8.9 4.2 -3.8 0 -5.4 -0.4 -5.9 -1.5z m-2.3 -5.1 c-0.3 -0.8 -0.9 -1.4 -1.3 -1.4 -1.3 0 -2.2 1.9 -1.5 3 0.9 1.4 3.4 0 2.8 -1.6z"/>
  <path d="M896.5 681.4 c-9.1 -0.9 -24.3 -3.7 -30 -5.5 -4.6 -1.4 -7.2 -3 -10.2 -6.1 -2.3 -2.4 -6.7 -5.9 -9.8 -7.8 -11.5 -7.1 -22.6 -21.4 -27.6 -35.7 -5.5 -15.9 -5.2 -9.8 -5.6 -131.3 -0.4 -107.1 -0.1 -123.2 2.4 -129.6 0.3 -0.8 -0.1 -1.4 -1.1 -1.4 -3.6 0 -0.4 -13.1 6.1 -24.8 3.6 -6.5 5.9 -8.5 7.3 -6.2 0.6 1 2.3 -0.1 6.5 -4.4 10.6 -10.7 23.8 -17.6 42.7 -22.1 13.8 -3.2 29 -4.5 54.8 -4.5 l21.5 0 9.8 -3.5 c17.6 -6.3 66.4 -20.5 70.5 -20.5 0.5 0 1.5 1.8 2.2 4 1.2 3.5 1.7 4.1 3.9 3.8 2 -0.2 2.9 -1.4 4.7 -5.8 l2.2 -5.5 14.8 -3.3 c8.2 -1.7 25 -5 37.4 -7.2 111.8 -19.8 226.4 -24.7 425.9 -18.4 19.1 0.6 21.4 0.5 20.8 -0.9 -0.9 -2.3 2.1 -2.9 3.3 -0.7 1.7 3.3 4.6 2.4 6.3 -1.7 1.3 -3.2 1.3 -3.8 0.1 -4.1 -0.8 -0.2 -1.4 -0.7 -1.4 -1 0 -0.6 6.4 -8.8 8.6 -11.1 0.2 -0.2 0.4 3.1 0.4 7.4 0 6.7 -0.2 7.6 -1.5 6.5 -1.2 -1 -1.6 -0.8 -2.5 1.5 -0.5 1.4 -1 3.2 -1 3.9 0 2.9 153.3 3.4 180 0.7 50.5 -5.2 75.2 -14.2 82.3 -30.1 7.7 -16.9 -7.2 -45.1 -34.6 -65.6 -11.1 -8.3 -31.3 -18.7 -48.2 -24.9 -8.7 -3.2 -29.8 -9.5 -42.2 -12.5 l-4.2 -1.1 -0.3 -7 -0.3 -7 -3.8 4.8 c-2.1 2.7 -4.1 5.4 -4.5 6 -0.6 0.9 -4.8 0.5 -16.8 -1.7 -27.2 -4.8 -72 -10 -102.3 -11.6 -7.4 -0.4 -11.6 -1 -10.5 -1.5 1.2 -0.4 2.8 -2.7 3.8 -5.4 1.8 -4.5 1.9 -4.6 5.5 -4.1 2 0.3 8.1 0.8 13.6 1.1 51.1 3.1 127 12.5 205.3 25.6 l7.3 1.2 7.8 8.1 c12.4 12.7 16.4 17.7 15.2 18.9 -1.5 1.5 -1.4 2.7 0.3 2.7 1.2 0 1 1.1 -0.7 6 -1.2 3.3 -2.5 6 -2.8 6 -0.3 0 -1.3 -1.8 -2.2 -4 -1.1 -2.8 -2 -3.8 -3 -3.4 -1.2 0.4 -1.1 1.4 0.7 6 1.8 4.8 2.4 5.4 4.6 5.2 2 -0.2 2.9 -1.5 4.9 -6.8 1.4 -3.6 2.7 -6.7 2.9 -7 0.4 -0.6 2.4 1.9 11.5 15 19.4 27.8 36.4 61.4 49.2 97.5 l4.5 12.6 -4.3 -0.5 c-12.5 -1.7 -81.5 -6.3 -127.7 -8.5 -70.6 -3.5 -138.5 -5.1 -222 -5.1 -113.5 0 -174.8 2.2 -270.5 9.6 -91.2 7.1 -175.2 19.1 -244.5 35.1 l-16.5 3.8 10.6 1 c6.2 0.6 11.3 1.6 12.3 2.4 1.2 1 1.6 3.2 1.6 9.7 0 7.7 0.2 8.4 2 8.4 1.8 0 2 0.7 2 8.1 0 13.2 5.7 11.9 -51.8 11.9 -27.3 0 -56.2 0.5 -64.2 1.1 -29.3 2.1 -41 9.6 -45.5 29.1 -1.2 5.4 -1.5 14.4 -1.5 46.2 l0 39.6 9.5 0 c7.8 0 9.5 0.3 9.5 1.5 0 1.3 8.1 1.5 67.3 1.5 67 0 67.3 0 69.6 2.1 3.1 2.9 4.1 6.1 4.1 13 0 4.8 0.3 5.9 1.6 5.9 1.4 0 1.6 1.1 1.2 7.4 -0.3 6.2 -0.7 7.9 -2.7 10 l-2.4 2.6 -78.9 0 -78.9 0 0.3 49.3 c0.3 47.6 0.4 49.4 2.6 55.7 2.5 7.7 7.3 13.6 14.2 17.9 3.2 1.9 5 3.8 5 5 0 4.6 20 6 86 6.1 36.5 0 48.9 0.3 49.8 1.2 0.8 0.8 1.2 4.5 1.2 10 0 8.3 0.1 8.8 2.1 8.8 2 0 2.1 0.4 1.8 8.5 -0.5 11.1 -1.2 11.8 -12.7 12.7 -10 0.8 -108.7 1.8 -114.7 1.2z m906.5 -538.8 c0 -0.8 -0.4 -1.7 -0.8 -2 -1.3 -0.8 -3.5 1.1 -2.8 2.3 1 1.6 3.6 1.4 3.6 -0.3z m-2.4 -4.7 c0.3 -0.6 0.2 -1.5 -0.2 -1.9 -1.2 -1.2 -3.8 0.5 -3 1.9 0.9 1.4 2.3 1.4 3.2 0z m-2.3 -6.5 c-0.3 -0.8 -0.9 -1.4 -1.3 -1.4 -1.3 0 -2.2 1.9 -1.5 3 0.9 1.4 3.4 0 2.8 -1.6z m-125.7 -25.5 c0.3 -0.6 0.2 -1.5 -0.2 -1.9 -1.2 -1.2 -3.8 0.5 -3 1.9 0.9 1.4 2.3 1.4 3.2 0z m-2.3 -6.5 c-0.3 -0.8 -0.9 -1.4 -1.3 -1.4 -1.3 0 -2.2 1.9 -1.5 3 0.9 1.4 3.4 0 2.8 -1.6z"/>
  <path d="M1115.5 680.9 c-7.9 -0.7 -18 -2.6 -26.1 -4.8 -2.7 -0.7 -5.4 -2.5 -7.6 -4.9 -1.9 -2.1 -5.6 -5.1 -8.4 -6.7 -6.5 -3.8 -16.6 -13.6 -21.4 -20.7 -5.4 -8.1 -10 -20.9 -11.9 -32.9 -0.7 -4 -0.5 -4.8 0.9 -5.2 0.9 -0.2 2.4 -2.4 3.3 -4.8 0.9 -2.4 2.1 -5.7 2.7 -7.3 0.9 -2.3 1.3 -2.6 2.5 -1.6 1.3 1.1 1.5 0.2 1.5 -6.5 0 -4.3 -0.2 -7.6 -0.4 -7.4 -2.4 2.4 -8.6 10.5 -8.6 11.1 0 0.5 0.6 0.8 1.4 0.8 1.2 0 1 1.1 -0.7 6 -1.2 3.3 -2.5 6 -2.8 6 -1.5 0 -1.9 -9.6 -1.9 -43.7 0 -31.6 -0.2 -36.3 -1.5 -36.3 -1.3 0 -1.5 -2.7 -1.5 -18.5 0 -15.8 0.2 -18.5 1.5 -18.5 1.3 0 1.5 -2.8 1.5 -19.4 0 -19.3 0 -19.5 2.2 -19.8 2 -0.3 5.3 -6.2 7.2 -13.2 0.4 -1.6 0.7 -1.7 2 -0.6 1.4 1.1 1.6 0.4 1.6 -6.5 0 -4.3 -0.2 -7.6 -0.4 -7.4 -2.4 2.4 -8.6 10.5 -8.6 11.1 0 0.5 0.7 0.8 1.5 0.8 1.2 0 1.1 1 -0.7 5.8 -1.2 3.1 -2.3 5.9 -2.5 6.2 -1.7 2.1 -2.3 -7.4 -2.3 -40.8 0 -33.1 -0.2 -38.3 -1.5 -38.8 -1.3 -0.5 -1.5 -3.5 -1.5 -18.5 0 -15.2 0.2 -17.9 1.5 -17.9 1.2 0 1.5 -1.3 1.5 -6 0 -6.6 1.8 -11.3 4.9 -13 1.1 -0.6 8.9 -1 17.9 -1 15.8 0 15.9 0 18.5 2.6 1.5 1.4 2.9 4.1 3.3 6 0.3 1.9 0.8 3.4 1 3.4 0.2 0 11.1 -2.4 24.2 -5.4 36.4 -8.4 50.2 -11 51.5 -9.7 1.5 1.5 3.7 1.4 3.7 -0.3 0 -0.8 0.7 -1.7 1.6 -2 2.4 -0.9 5.4 -0.7 5.4 0.4 0 0.6 0.7 1 1.4 1 1.2 0 1.3 0.6 0.4 3 -1.2 3.6 -5.5 5.2 -7 2.7 -1 -1.8 -3.9 -1.2 -3.2 0.7 0.3 0.8 -3.4 1.7 -12.3 3 -7.1 0.9 -24.7 3.7 -39.2 6.2 -14.5 2.4 -26.6 4.4 -26.8 4.4 -0.1 0 -0.3 1.1 -0.3 2.5 0 1.6 0.6 2.5 1.5 2.5 1.3 0 1.5 15.4 1.5 132.9 0 89.2 0.4 135.5 1.1 140.8 1.9 13.8 7.9 23.5 17.4 28 2.1 1 3.5 2.4 3.5 3.5 0 5.2 9.4 6 76.3 6.5 68.3 0.6 61.7 -0.8 61.7 12.5 0 7.1 0.2 7.8 2 7.8 2 0 2 -0.7 2 -173.1 0 -129.6 0.3 -173.6 1.2 -175.2 2.3 -4.4 3.6 -4.6 21.1 -4.7 16.5 0 16.8 0 19.2 2.5 2.2 2.2 2.5 3.2 2.5 10.5 0 7.3 0.2 8 2 8 1.8 0 2 0.7 2 7.3 0 7.5 -0.7 11.7 -2 11.7 -0.4 0 -1.4 -1.8 -2.3 -4 -1.1 -2.8 -2 -3.8 -3 -3.4 -1.2 0.4 -1.1 1.4 0.7 6 1.7 4.3 2.6 5.4 4.4 5.4 l2.2 0 0 75.8 c0 41.6 -0.3 76.7 -0.6 78 -0.9 3.2 -1.9 2.7 -3.7 -1.8 -1.1 -2.8 -2 -3.8 -3 -3.4 -1.2 0.4 -1.1 1.4 0.7 6 1.7 4.3 2.6 5.4 4.4 5.4 l2.2 0 0 75.8 c0 41.6 -0.3 76.7 -0.6 78 -0.9 3.2 -1.9 2.7 -3.7 -1.8 -1.1 -2.8 -2 -3.8 -3 -3.4 -2.2 0.8 2.1 11.4 4.6 11.4 2.5 0 2.1 3.2 -0.6 5.8 -2 1.9 -3.5 2.2 -11.5 2.2 -7.5 0 -9.2 -0.3 -9.2 -1.5 0 -0.9 -0.9 -1.5 -2.5 -1.5 -1.6 0 -2.5 0.6 -2.5 1.5 0 2.2 -15.6 2.1 -18.8 0 -1.9 -1.4 -2.4 -1.4 -4.4 -0.1 -6.3 3.9 -102.2 7.3 -130.3 4.5z m175.5 -26.3 c0 -0.8 -0.4 -1.7 -0.8 -2 -1.3 -0.8 -3.5 1.1 -2.8 2.3 1 1.6 3.6 1.4 3.6 -0.3z m-2.4 -4.7 c0.3 -0.6 0.2 -1.5 -0.2 -1.9 -1.2 -1.2 -3.8 0.5 -3 1.9 0.9 1.4 2.3 1.4 3.2 0z m-2.3 -6.5 c-0.3 -0.8 -0.9 -1.4 -1.3 -1.4 -1.3 0 -2.2 1.9 -1.5 3 0.9 1.4 3.4 0 2.8 -1.6z m4.7 -148.8 c0 -0.8 -0.4 -1.7 -0.8 -2 -1.3 -0.8 -3.5 1.1 -2.8 2.3 1 1.6 3.6 1.4 3.6 -0.3z m-2.4 -4.7 c0.3 -0.6 0.2 -1.5 -0.2 -1.9 -1.2 -1.2 -3.8 0.5 -3 1.9 0.9 1.4 2.3 1.4 3.2 0z m-2.3 -6.5 c-0.3 -0.8 -0.9 -1.4 -1.3 -1.4 -1.3 0 -2.2 1.9 -1.5 3 0.9 1.4 3.4 0 2.8 -1.6z m4.7 -148.8 c0 -0.8 -0.4 -1.7 -0.8 -2 -1.3 -0.8 -3.5 1.1 -2.8 2.3 1 1.6 3.6 1.4 3.6 -0.3z m-2.4 -4.7 c0.3 -0.6 0.2 -1.5 -0.2 -1.9 -1.2 -1.2 -3.8 0.5 -3 1.9 0.9 1.4 2.3 1.4 3.2 0z m-2.3 -6.5 c-0.3 -0.8 -0.9 -1.4 -1.3 -1.4 -1.3 0 -2.2 1.9 -1.5 3 0.9 1.4 3.4 0 2.8 -1.6z"/>
  <path d="M1416.6 680.5 c-0.5 -1.3 -1 -1.4 -2.7 -0.4 -2.6 1.4 -10.4 0.6 -23.9 -2.3 -11.2 -2.4 -12.3 -2.9 -17.5 -7.9 -2.2 -2.1 -6.4 -5.3 -9.2 -7.1 -15.5 -9.8 -25.9 -25 -31.5 -46.1 -2.2 -8.2 -2.2 -8.4 -2.5 -123.4 -0.4 -113.6 -0.3 -115.3 1.7 -125.5 8.3 -40.4 33.9 -59.9 85 -64.9 13.2 -1.2 57.6 -0.7 96.5 1.1 24.1 1.2 23.5 0.9 23.5 13.1 0 7.2 0.2 7.9 2 7.9 1.8 0 2 0.7 2 7.4 0 4.1 -0.4 8.6 -1 10 l-1 2.6 -49.7 0 c-27.4 0 -56.2 0.5 -63.9 1 -29.3 2 -41.6 9.6 -45.8 28.1 -1.3 5.5 -1.6 14.2 -1.6 46.8 l0 40.1 9.5 0 c7.8 0 9.5 0.3 9.5 1.5 0 1.3 8.1 1.5 67 1.5 l67 0 3 2.8 c2.8 2.4 3.2 3.4 3.7 10.5 0.4 5.5 1 7.7 1.9 7.7 1 0 1.4 1.5 1.4 5.5 0 6.4 -2 11.9 -4.8 13.4 -1.4 0.8 -26.1 1.1 -80.1 1.1 l-78.1 0 0 47.3 c0 49.3 0.4 54.7 4.6 63 2.3 4.5 8.2 10.5 12.6 12.8 2.3 1.1 4 2.9 4.4 4.3 0.5 2 1.6 2.7 5.7 3.6 9.5 2.1 33.7 2.9 81.7 3 35.7 0 47.9 0.3 48.8 1.2 0.8 0.8 1.2 4.5 1.2 10 0 8.3 0.1 8.8 2.1 8.8 2 0 2.1 0.4 1.8 8.5 -0.3 6.2 -0.8 8.9 -2.1 10.1 -2.4 2.5 -13.9 3.2 -61.5 4 l-41.3 0.7 0 -4.3 0 -4.4 -3.6 4.2 c-3.3 4 -3.9 4.2 -8.9 4.2 -3.8 0 -5.4 -0.4 -5.9 -1.5z m-2.3 -5.1 c-0.3 -0.8 -0.9 -1.4 -1.3 -1.4 -1.3 0 -2.2 1.9 -1.5 3 0.9 1.4 3.4 0 2.8 -1.6z"/>
  <path d="M1942 680.9 c-24.1 -1.1 -28 -1.6 -28 -3.8 0 -1.5 -1.2 -1.9 -6.2 -2.5 -10.1 -1 -13.7 -2.3 -15.8 -5.9 -2 -3.1 -2 -6.4 -2 -157.9 0 -85.2 -0.2 -154.8 -0.4 -154.8 -0.2 0 -4.8 1.6 -10.2 3.6 -17.8 6.5 -53.4 18.3 -63.4 21 -7.3 2 -9.7 3 -9.3 4 0.3 0.9 -0.2 1.4 -1.6 1.4 -1.4 0 -2.5 -0.9 -3.2 -2.7 -1.2 -3.1 -9.3 -15.6 -11.2 -17.1 -0.9 -0.8 -0.6 1.6 0.9 7.7 3.2 12.5 4.8 31.2 4 46.1 -1.5 29 -10 50 -27.2 67.4 -10.9 11 -25.7 20.2 -40.4 25.2 -3 1 -5.9 2.1 -6.4 2.5 -0.4 0.4 19.1 33.9 43.5 74.5 38.6 64.4 44.3 74.4 44.7 78.6 0.3 3.4 0 5.5 -1.2 7.3 l-1.6 2.5 -16.9 0 c-14.1 0 -17 -0.2 -17.5 -1.5 -0.4 -1.1 -2 -1.5 -5.7 -1.5 -4.4 0 -5.5 -0.4 -8.3 -3.2 -1.7 -1.8 -20.4 -32.2 -41.6 -67.5 -35.8 -59.8 -38.7 -64.3 -41.2 -64.3 -2.3 0 -3.4 -1.1 -7.5 -8 -2.9 -4.8 -5.6 -8.2 -6.8 -8.4 -1.1 -0.3 -15.2 -0.7 -31.2 -0.9 l-29.3 -0.4 0 75.2 0 75.2 -2.5 2.7 c-2.3 2.4 -3 2.6 -11.5 2.6 -7.3 0 -9 -0.3 -9 -1.5 0 -1.2 -1.7 -1.5 -9.5 -1.5 -7.8 0 -9.5 0.3 -9.5 1.5 0 2.3 -2.8 1.8 -5.5 -1 -2.2 -2.1 -2.5 -3.3 -2.5 -9.5 0 -5.6 0.3 -7 1.5 -7 1.3 0 1.5 -5.4 1.5 -42.3 0 -42.1 0 -42.4 2.4 -48.3 1.2 -3.2 2.6 -6.7 3 -7.8 0.5 -1.5 0.9 -1.6 2.1 -0.6 1.3 1.1 1.5 0.2 1.5 -6.6 l0 -7.9 -3.2 4 c-1.8 2.1 -3.8 4.6 -4.5 5.4 -1 1.3 -1.2 -1.9 -1.3 -15.6 0 -14.7 -0.2 -17.3 -1.5 -17.3 -1.3 0 -1.5 -2.7 -1.5 -18.5 0 -15.8 0.2 -18.5 1.5 -18.5 1.3 0 1.5 -4.6 1.5 -35.3 0 -34.8 0 -35.5 2.4 -41.3 1.2 -3.2 2.6 -6.7 3 -7.8 0.5 -1.5 0.9 -1.6 2.1 -0.6 1.3 1.1 1.5 0.2 1.5 -6.6 l0 -7.9 -3.2 4 c-1.8 2.1 -3.8 4.6 -4.5 5.4 -1 1.3 -1.2 -1.8 -1.3 -15.2 0 -14 -0.3 -16.9 -1.5 -17.3 -1.3 -0.5 -1.5 -3.5 -1.5 -18.5 0 -15.2 0.2 -17.9 1.5 -17.9 1.2 0 1.5 -1.3 1.5 -6 0 -10.3 2 -12.3 13.8 -13.9 22.7 -3.2 101.3 -4.8 117.3 -2.4 4.7 0.6 10.8 0.8 16.5 0.3 7.7 -0.7 65.1 -7.4 74.2 -8.6 4 -0.6 4.3 -2.4 0.3 -2.4 -1.5 0 -21.4 -1.1 -44.2 -2.4 -22.8 -1.4 -56.7 -3.1 -75.4 -3.8 -44.6 -1.7 -198.8 -1.7 -237 0 -85.3 3.8 -157.2 9.7 -223 18.1 -12.1 1.5 -22.1 2.8 -22.1 2.7 -0.1 -0.1 0.2 -1.2 0.7 -2.5 0.8 -1.9 1.2 -2.1 2.4 -1.1 1.3 1.1 1.5 0.7 1.5 -2.3 0 -4.2 -1.8 -3.6 23.5 -7.6 97 -15.4 167.4 -20.6 276.5 -20.5 65.2 0.1 88.5 0.8 147.5 4.4 52.8 3.3 49.4 3 50.1 5.7 0.8 3 4.6 3.1 6.5 0.2 1.4 -2 1.4 -2 20.9 -0.5 16.1 1.3 51.4 4.1 89.5 7.1 3.9 0.3 10.7 0.9 15.1 1.3 6.8 0.6 8.4 0.5 9.2 -0.8 1 -1.3 1.1 -1.3 1.1 0.2 0.1 1.3 1.7 1.7 9.9 2.3 5.3 0.3 11.5 0.9 13.7 1.3 3.6 0.6 3.3 0.7 -3.5 1.3 -16.7 1.4 -20 2 -20 3.6 0 1 -0.6 1.4 -2 1 -1.1 -0.3 -2 -0.1 -2 0.4 0 0.5 -1.2 0.9 -2.6 0.9 -1.9 0 -2.5 -0.4 -2 -1.5 0.4 -1.2 -0.4 -1.5 -4 -1.5 -4.1 0 -4.5 0.2 -3.9 2 0.5 1.6 0.2 2 -1.4 2 -2.3 0 -2.8 -1.5 -0.8 -2.3 2.1 -0.9 -3.8 -0.7 -14.5 0.3 -32.6 3.3 -68.5 7.2 -69.8 7.7 -0.8 0.3 1.2 1.3 4.5 2.2 17.7 5.1 33.8 14.5 46.3 27 4.8 4.8 10.7 10.2 13.1 12.1 2.4 1.9 5.2 5.2 6.2 7.4 1.5 3.3 1.9 3.7 1.9 1.7 0 -2.3 0.1 -2.4 2 -0.6 2.3 2.1 6.4 1.8 34 -2.1 22.2 -3.1 37.4 -6.3 53.4 -11 l12.6 -3.7 0 -12.9 c0 -14.9 1 -18.1 6.6 -20.4 8 -3.3 73.2 -7.2 101.4 -6 47 2 76.6 13 103.3 38.3 5.7 5.4 12.9 12 16 14.6 4.9 4.1 6.5 6.5 10.6 15 5.5 11.3 9.1 22.4 12 36.8 4.1 19.8 4.6 29.2 4.6 85.4 0 46 -0.3 55.8 -1.8 66.2 -10.4 72.9 -51.3 113.4 -123.3 121.8 -13.9 1.6 -46.4 1.8 -77.4 0.4z m59.6 -40.9 c15.2 -1.2 21.1 -2.3 31.8 -5.6 29 -9.2 47.9 -29.3 57 -60.7 5 -17.1 5.8 -26.2 6.3 -69.7 0.9 -69.8 -2.1 -93.6 -14.7 -117.8 -2.2 -4.4 -5.7 -9.8 -7.6 -12.1 -2.3 -2.6 -3.4 -4.7 -3 -5.7 0.5 -1.3 0.9 -1.4 2.1 -0.4 1.3 1.1 1.5 0.2 1.5 -6.5 0 -4.3 -0.2 -7.6 -0.4 -7.4 -2.4 2.4 -8.6 10.5 -8.6 11.1 0 0.5 0.6 0.8 1.4 0.8 0.9 0 1.2 0.7 0.9 1.9 -0.4 1.7 -0.8 1.8 -3.1 0.8 -3.6 -1.5 -7.2 -4.7 -8.3 -7.4 -0.6 -1.5 -1.4 -2 -2.8 -1.6 -2.4 0.6 -2.8 -1.2 -0.6 -2.4 1 -0.6 1.1 -1.3 0.4 -2.3 -0.8 -1.3 -1.2 -1.2 -2.4 0.5 -1.3 1.6 -1.9 1.8 -4.3 0.8 -22.1 -9.3 -27.5 -10.7 -47.5 -12.3 -11.3 -1 -18.3 -0.9 -48.4 0.6 l-11.3 0.5 1.4 -3.3 c0.7 -1.8 1.6 -4.1 2 -5.2 0.5 -1.5 0.9 -1.6 2.1 -0.6 1.3 1.1 1.5 0.2 1.5 -6.5 0 -4.3 -0.2 -7.6 -0.4 -7.4 -2.4 2.4 -8.6 10.5 -8.6 11.1 0 0.5 0.6 0.8 1.4 0.8 1.2 0 1 1.1 -0.7 6 -1.2 3.3 -2.5 6 -2.8 6 -0.3 0 -1.3 -1.8 -2.2 -4 -1.1 -2.8 -2 -3.8 -3 -3.4 -1.2 0.4 -1.1 1.4 0.7 6 1.7 4.3 2.6 5.4 4.4 5.4 l2.2 0 0 75.8 c0 41.6 -0.3 76.7 -0.6 78 -0.9 3.2 -1.9 2.7 -3.7 -1.8 -1.1 -2.8 -2 -3.8 -3 -3.4 -1.2 0.4 -1.1 1.4 0.7 6 1.7 4.3 2.6 5.4 4.4 5.4 l2.2 0 0 62.9 0 62.8 4.6 0.7 c2.6 0.3 7.1 0.6 10 0.6 4 0 5.4 0.4 5.4 1.4 0 0.8 1.2 1.7 2.8 1.9 5.6 0.8 28.3 0.7 40.8 -0.3z m-70.6 -145.4 c0 -0.8 -0.4 -1.7 -0.8 -2 -1.3 -0.8 -3.5 1.1 -2.8 2.3 1 1.6 3.6 1.4 3.6 -0.3z m-2.4 -4.7 c0.3 -0.6 0.2 -1.5 -0.2 -1.9 -1.2 -1.2 -3.8 0.5 -3 1.9 0.9 1.4 2.3 1.4 3.2 0z m-2.3 -6.5 c-0.3 -0.8 -0.9 -1.4 -1.3 -1.4 -1.3 0 -2.2 1.9 -1.5 3 0.9 1.4 3.4 0 2.8 -1.6z m-249.2 -2.4 c18.1 -1.8 29 -4.5 39.4 -9.7 14.2 -7.1 23.1 -17.5 28.2 -32.7 2.6 -7.6 2.7 -9.2 2.8 -26.6 0 -16.7 -0.2 -19.2 -2.3 -26 -3.4 -10.7 -5.7 -14.4 -10 -16 -2.1 -0.7 -5.7 -3.1 -8.2 -5.2 -13.1 -11.6 -30.7 -16.9 -61.9 -18.9 -15.4 -0.9 -46.6 -0.6 -58.9 0.7 l-5.2 0.5 0.2 65.2 0.3 65.2 9.8 0.3 c7.5 0.2 9.7 0.6 9.7 1.7 0 0.7 1.2 1.6 2.8 1.8 5.8 0.9 43.5 0.6 53.3 -0.3z m253.9 -146.4 c0 -0.8 -0.4 -1.7 -0.8 -2 -1.3 -0.8 -3.5 1.1 -2.8 2.3 1 1.6 3.6 1.4 3.6 -0.3z m-2.4 -4.7 c0.3 -0.6 0.2 -1.5 -0.2 -1.9 -1.2 -1.2 -3.8 0.5 -3 1.9 0.9 1.4 2.3 1.4 3.2 0z m-2.3 -6.5 c-0.3 -0.8 -0.9 -1.4 -1.3 -1.4 -1.3 0 -2.2 1.9 -1.5 3 0.9 1.4 3.4 0 2.8 -1.6z"/>
  <path d="M2240.4 681.1 c-8.6 -1 -21 -3.5 -28 -5.6 -3.5 -1 -6.3 -2.7 -8.6 -5.3 -1.8 -2 -6.4 -5.7 -10.1 -8.1 -8.7 -5.6 -18.4 -16.2 -23 -24.9 -4.4 -8.3 -8.5 -22.1 -9.3 -31.2 -0.8 -7.8 -1.8 -10.4 -3.4 -8 -0.6 1 -1 -28.6 -1 -87.2 0 -75.1 0.2 -88.8 1.4 -88.8 1.1 0 1.5 -4.5 1.9 -24.7 0.4 -21 0.8 -26.1 2.6 -33.2 9.6 -37.7 36.2 -56.9 84.6 -61.1 14.8 -1.3 58.7 -0.8 96.5 1.1 23.7 1.2 23 0.8 23 12.6 0 7.6 0.2 8.3 2 8.3 1.8 0 2 0.7 2 8.3 0 5.1 -0.5 8.9 -1.2 9.9 -1.2 1.5 -7.5 1.7 -60.8 2.1 -47.3 0.4 -61 0.8 -67 2 -14.9 3 -23.8 8.1 -28.3 16.5 -5.1 9.4 -5.7 14.9 -5.7 58 l0 39.2 10 0 c8.2 0 10 0.3 10 1.5 0 1.3 8.7 1.5 67.1 1.7 l67.1 0.3 2.4 2.8 c2.1 2.4 2.4 3.8 2.4 10.3 0 6.9 0.2 7.4 2.1 7.4 2 0 2.1 0.4 1.7 7.4 -0.3 6.2 -0.7 7.9 -2.7 10 l-2.4 2.6 -78.9 0 -78.9 0 0.3 49.3 c0.4 47.5 0.4 49.4 2.6 55.7 2.5 7.7 7.2 13.6 14.2 17.9 3.2 2 5 3.8 5 5 0 4.6 20.6 6 85.5 6.1 36.8 0 49.4 0.3 50.3 1.2 0.8 0.8 1.2 4.5 1.2 10 0 8.1 0.2 8.8 2 8.8 1.8 0 2 0.7 2 7.9 0 11.2 -1.1 12.4 -12.7 13.3 -13.7 1.1 -109.9 1.8 -117.9 0.9z m-43.8 -113.1 c1.2 -3 2.5 -6.4 2.8 -7.4 0.4 -1.6 0.7 -1.7 2 -0.6 1.4 1.1 1.6 0.4 1.6 -6.5 0 -4.3 -0.2 -7.6 -0.4 -7.4 -2.4 2.4 -8.6 10.5 -8.6 11.1 0 0.5 0.6 0.8 1.4 0.8 1.2 0 1 1.1 -0.7 6 -1.2 3.3 -2.5 6 -2.8 6 -0.3 0 -1.3 -1.8 -2.2 -4 -1.1 -2.8 -2 -3.8 -3 -3.4 -1.2 0.4 -1.1 1.4 0.7 6 1.8 4.7 2.4 5.4 4.5 5.2 2 -0.2 3 -1.5 4.7 -5.8z m-9.6 -9.4 c0 -0.8 -0.4 -1.7 -0.8 -2 -1.3 -0.8 -3.5 1.1 -2.8 2.3 1 1.6 3.6 1.4 3.6 -0.3z m-2.4 -4.7 c0.3 -0.6 0.2 -1.5 -0.2 -1.9 -1.2 -1.2 -3.8 0.5 -3 1.9 0.9 1.4 2.3 1.4 3.2 0z m-2.3 -6.5 c-0.3 -0.8 -0.9 -1.4 -1.3 -1.4 -1.3 0 -2.2 1.9 -1.5 3 0.9 1.4 3.4 0 2.8 -1.6z m14.3 -139.4 c1.2 -3 2.5 -6.4 2.8 -7.4 0.4 -1.6 0.7 -1.7 2 -0.6 1.4 1.1 1.6 0.4 1.6 -6.5 0 -4.3 -0.2 -7.6 -0.4 -7.4 -2.4 2.4 -8.6 10.5 -8.6 11.1 0 0.5 0.6 0.8 1.4 0.8 1.2 0 1 1.1 -0.7 6 -1.2 3.3 -2.5 6 -2.8 6 -0.3 0 -1.3 -1.8 -2.2 -4 -1.1 -2.8 -2 -3.8 -3 -3.4 -1.2 0.4 -1.1 1.4 0.7 6 1.8 4.7 2.4 5.4 4.5 5.2 2 -0.2 3 -1.5 4.7 -5.8z m-9.6 -9.4 c0 -0.8 -0.4 -1.7 -0.8 -2 -1.3 -0.8 -3.5 1.1 -2.8 2.3 1 1.6 3.6 1.4 3.6 -0.3z m-2.4 -4.7 c0.3 -0.6 0.2 -1.5 -0.2 -1.9 -1.2 -1.2 -3.8 0.5 -3 1.9 0.9 1.4 2.3 1.4 3.2 0z m-2.3 -6.5 c-0.3 -0.8 -0.9 -1.4 -1.3 -1.4 -1.3 0 -2.2 1.9 -1.5 3 0.9 1.4 3.4 0 2.8 -1.6z"/>
  <path d="M2634 680.5 c-12 -1.7 -19.4 -3.4 -28 -6.2 -6.1 -2 -8.6 -3.5 -13.5 -8.1 -3.3 -3.1 -6.9 -6.2 -8 -6.8 -1.2 -0.7 -1.6 -1.6 -1.2 -2.8 0.6 -1.5 1 -1.6 2.2 -0.6 1.3 1.1 1.5 0.2 1.5 -6.5 0 -4.3 -0.2 -7.6 -0.4 -7.4 -2.2 2.3 -8.6 10.5 -8.6 11.1 0 0.3 0.8 0.8 1.8 1 1.2 0.3 1.4 0.6 0.5 1.1 -1.6 1 -14.9 -11.7 -20.2 -19.3 -10.8 -15.4 -17.9 -36.1 -21.8 -63.2 -1.4 -9.8 -1.7 -28 -2 -135.3 l-0.4 -124 2.3 -3.5 2.4 -3.5 17.5 -0.3 c17.5 -0.2 17.5 -0.2 19.8 2.2 1.9 2 2.4 4 3 11 0.6 7.3 0.4 8.9 -1.1 10.8 -2.1 2.8 -2.2 3.8 -0.4 3.8 1.2 0 1 1.1 -0.7 6 -1.2 3.3 -2.5 6 -2.8 6 -0.3 0 -1.3 -1.8 -2.2 -4 -1.1 -2.8 -2 -3.8 -3 -3.4 -1.2 0.4 -1.1 1.4 0.7 6 1.7 4.3 2.5 5.4 4.4 5.4 1.7 0 2.7 -1 4.2 -4.5 1.1 -2.5 2.4 -4.5 3 -4.5 0.7 0 1 23.1 1 72.3 l-0.1 72.2 -2.9 3.5 c-3.3 3.8 -3.7 5 -1.6 5 1.2 0 1 1.1 -0.7 6 -1.2 3.3 -2.5 6 -2.8 6 -0.3 0 -1.3 -1.8 -2.2 -4 -1.1 -2.8 -2 -3.8 -3 -3.4 -1.2 0.4 -1.1 1.4 0.7 6 1.7 4.3 2.5 5.4 4.4 5.4 1.7 0 2.7 -1 4.2 -4.5 1.1 -2.5 2.4 -4.5 3 -4.5 0.6 0 1 7.4 1 21.8 0 35.3 2.5 55.2 9 72.1 4 10.3 8.4 17 16.3 24.6 3.4 3.3 6.9 7.4 7.8 9.1 1.3 2.5 2.9 3.6 8 5.2 12.1 4 21.2 5.3 39.9 5.9 16.7 0.5 70.7 -1 78.8 -2.3 l3.2 -0.5 0 -162.4 0 -162.3 2.6 -3.1 2.6 -3.1 16.7 0 c18.8 0 20.3 0.5 22.1 6.8 0.5 2 1 6.1 1 9 0 3.9 0.4 5.2 1.5 5.2 1.3 0 1.5 19.5 1.5 169.5 0 185 0.3 174.7 -5.7 177.8 -1.5 0.8 -6.6 2 -11.3 2.6 -11.5 1.5 -46.8 4.1 -55.7 4.1 l-7.3 0 0 -3.7 0 -3.7 -3.6 4.2 c-3.3 3.9 -3.9 4.2 -8.6 4.2 -3.5 0 -5.4 -0.5 -6.3 -1.6 -1 -1.5 -1.3 -1.5 -2.7 0 -1.4 1.4 -4.9 1.6 -26.5 1.5 -14 -0.1 -28.5 -0.7 -33.3 -1.4z m60.3 -5.1 c-0.3 -0.8 -0.9 -1.4 -1.3 -1.4 -1.3 0 -2.2 1.9 -1.5 3 0.9 1.4 3.4 0 2.8 -1.6z m-123.3 -180.8 c0 -0.8 -0.4 -1.7 -0.8 -2 -1.3 -0.8 -3.5 1.1 -2.8 2.3 1 1.6 3.6 1.4 3.6 -0.3z m-2.4 -4.7 c0.3 -0.6 0.2 -1.5 -0.2 -1.9 -1.2 -1.2 -3.8 0.5 -3 1.9 0.9 1.4 2.3 1.4 3.2 0z m-2.3 -6.5 c-0.3 -0.8 -0.9 -1.4 -1.3 -1.4 -1.3 0 -2.2 1.9 -1.5 3 0.9 1.4 3.4 0 2.8 -1.6z m4.7 -148.8 c0 -0.8 -0.4 -1.7 -0.8 -2 -1.3 -0.8 -3.5 1.1 -2.8 2.3 1 1.6 3.6 1.4 3.6 -0.3z m-2.4 -4.7 c0.3 -0.6 0.2 -1.5 -0.2 -1.9 -1.2 -1.2 -3.8 0.5 -3 1.9 0.9 1.4 2.3 1.4 3.2 0z m-2.3 -6.5 c-0.3 -0.8 -0.9 -1.4 -1.3 -1.4 -1.3 0 -2.2 1.9 -1.5 3 0.9 1.4 3.4 0 2.8 -1.6z"/>
  <path d="M320 676.5 c0 -1.2 -1.6 -1.5 -8.6 -1.5 -8.1 0 -8.7 -0.1 -11.5 -2.9 l-2.9 -2.9 -0.2 -134.9 c-0.1 -74.1 0 -136.7 0.1 -139 0.2 -3.3 -0.1 -4.3 -1.2 -4.3 -0.9 0 -1.8 0.6 -2.1 1.3 -0.9 2.1 0.5 -13.4 2 -22 1.9 -10.7 4.9 -20.3 8.6 -27.7 5.1 -10.2 8.8 -13.9 10.1 -10.3 0.3 0.7 2.9 -1.2 6.8 -4.9 10.2 -9.7 18.9 -14.7 33.3 -19 17.2 -5.2 24.3 -5.8 63.6 -5.9 30.8 0 38 0.3 46 1.8 13.1 2.5 22.1 5.3 32 10 7.1 3.4 10.1 5.7 18 13.6 5.3 5.3 11.3 10.7 13.3 12.1 4.3 2.9 6.9 8.3 10.2 21.4 3.7 14.6 4.5 25.2 4.5 59.4 0 27.2 -0.2 32.2 -1.4 32.2 -0.8 0 -1.6 -0.7 -1.8 -1.5 -0.2 -1.1 -1.7 0.1 -4.3 3.5 -4.7 5.9 -5.2 7 -3.2 7 1.3 0 1.2 0.9 -0.6 6 -1.2 3.3 -2.5 6 -2.8 6 -0.3 0 -1.3 -1.8 -2.2 -4 -1.1 -2.8 -2 -3.8 -3 -3.4 -1.2 0.4 -1.1 1.4 0.7 6 1.8 4.7 2.4 5.4 4.5 5.2 2 -0.2 3 -1.5 4.7 -5.8 1.2 -3 2.5 -6.4 2.8 -7.4 0.4 -1.6 0.7 -1.7 2 -0.6 1.3 1 1.6 1 1.6 -0.4 0 -0.9 0.7 -1.6 1.5 -1.6 1.3 0 1.5 9.1 1.5 75.5 0 64.7 -0.2 75.5 -1.4 75.5 -0.8 0 -1.6 -0.7 -1.8 -1.5 -0.2 -1.1 -1.7 0.1 -4.3 3.5 -4.7 5.9 -5.2 7 -3.2 7 1.3 0 1.2 0.9 -0.6 6 -1.2 3.3 -2.5 6 -2.8 6 -0.3 0 -1.3 -1.8 -2.2 -4 -1.1 -2.8 -2 -3.8 -3 -3.4 -1.2 0.4 -1.1 1.4 0.7 6 1.8 4.7 2.4 5.4 4.5 5.2 2 -0.2 3 -1.5 4.7 -5.8 1.2 -3 2.5 -6.4 2.8 -7.4 0.4 -1.6 0.7 -1.7 2 -0.6 1.3 1 1.6 1 1.6 -0.4 0 -0.9 0.7 -1.6 1.5 -1.6 1.3 0 1.5 3.5 1.5 25.4 l0 25.3 -2.5 2.7 c-2.3 2.5 -2.9 2.6 -12 2.6 -7.8 0 -9.5 -0.3 -9.5 -1.5 0 -1.2 -1.7 -1.5 -9 -1.5 -8.5 0 -9.2 -0.2 -11.5 -2.6 l-2.5 -2.7 0 -65.8 c0 -65.2 0 -65.9 -2 -65.9 -1.8 0 -2 -0.7 -2 -8.5 l0 -8.5 -73 0 -73 0 0 73.3 c0 47.3 -0.4 74.5 -1 76.9 -1.6 5.7 -4 6.8 -14.7 6.8 -7.6 0 -9.3 -0.3 -9.3 -1.5z m203 -53.9 c0 -0.8 -0.4 -1.7 -0.8 -2 -1.3 -0.8 -3.5 1.1 -2.8 2.3 1 1.6 3.6 1.4 3.6 -0.3z m-2.4 -4.7 c0.3 -0.6 0.2 -1.5 -0.2 -1.9 -1.2 -1.2 -3.8 0.5 -3 1.9 0.9 1.4 2.3 1.4 3.2 0z m-2.3 -6.5 c-0.3 -0.8 -0.9 -1.4 -1.3 -1.4 -1.3 0 -2.2 1.9 -1.5 3 0.9 1.4 3.4 0 2.8 -1.6z m-23.5 -165.9 c0.4 -39.6 -0.9 -62 -4.1 -73 -2 -7.2 -2.5 -7.9 -5.6 -9 -1.8 -0.6 -4.5 -2.5 -6 -4.2 -5.9 -6.9 -13.6 -10.6 -26.6 -12.9 -11.6 -2 -58.1 -1.9 -70.1 0.1 -21 3.7 -31.7 14 -35.7 34.5 -2 9.7 -2.1 13.4 -1.9 57.3 l0.2 36.7 9.5 0 c8.8 0 9.5 0.1 9.5 2 0 2 0.5 2 65.3 1.8 l65.2 -0.3 0.3 -33z m28.2 17.1 c0 -0.8 -0.4 -1.7 -0.8 -2 -1.3 -0.8 -3.5 1.1 -2.8 2.3 1 1.6 3.6 1.4 3.6 -0.3z m-2.4 -4.7 c0.3 -0.6 0.2 -1.5 -0.2 -1.9 -1.2 -1.2 -3.8 0.5 -3 1.9 0.9 1.4 2.3 1.4 3.2 0z m-2.3 -6.5 c-0.3 -0.8 -0.9 -1.4 -1.3 -1.4 -1.3 0 -2.2 1.9 -1.5 3 0.9 1.4 3.4 0 2.8 -1.6z"/>
  <path d="M678 676.5 c0 -1.2 -1.7 -1.5 -8.9 -1.5 -7.6 0 -9.2 -0.3 -11.6 -2.2 -2.6 -2 -2.7 -2.2 -0.8 -2.9 1.1 -0.4 2.7 -2.7 3.6 -5.1 0.9 -2.3 2.1 -5.6 2.7 -7.2 0.9 -2.3 1.3 -2.6 2.5 -1.6 1.3 1.1 1.5 0.2 1.5 -6.5 0 -4.3 -0.2 -7.6 -0.4 -7.4 -2.4 2.4 -8.6 10.5 -8.6 11.1 0 0.5 0.7 0.8 1.5 0.8 1.2 0 1.1 1 -0.7 5.8 -1.2 3.1 -2.3 5.9 -2.5 6.2 -1.9 2.3 -2.3 -11 -2.3 -79.2 l0 -76.7 2.2 -0.3 c2 -0.3 5.3 -6.2 7.2 -13.2 0.4 -1.6 0.7 -1.7 2 -0.6 1.4 1.1 1.6 0.4 1.6 -6.5 0 -4.3 -0.2 -7.6 -0.4 -7.4 -2.4 2.4 -8.6 10.5 -8.6 11.1 0 0.5 0.7 0.8 1.5 0.8 1.2 0 1.1 1 -0.7 5.8 -1.2 3.1 -2.3 5.9 -2.5 6.2 -1.9 2.3 -2.3 -10.3 -2.3 -72.2 0 -61.4 -0.2 -69.8 -1.5 -69.8 -1.2 0 -1.5 -1.6 -1.5 -8 0 -4.7 0.4 -8 1 -8 0.6 0 1 0.5 1 1.1 0 0.6 1.2 0.9 2.7 0.7 2.2 -0.2 3.1 -1.3 4.9 -5.8 1.2 -3 2.5 -6.4 2.8 -7.4 0.4 -1.6 0.7 -1.7 2 -0.6 1.4 1.1 1.6 0.4 1.6 -6.5 0 -4.3 -0.2 -7.6 -0.4 -7.4 -2.4 2.4 -8.6 10.5 -8.6 11.1 0 0.5 0.6 0.8 1.4 0.8 1.2 0 1 1.1 -0.7 6 -1.2 3.3 -2.5 6 -2.8 6 -0.3 0 -1.3 -1.8 -2.2 -4 -1.1 -2.8 -2 -3.8 -3 -3.4 -1.3 0.5 -1.4 1 -0.1 3.9 0.8 1.9 1.4 3.7 1.4 4 0 0.3 -18.2 0.5 -40.5 0.5 -35.3 0 -40.5 -0.2 -40.5 -1.5 0 -1.2 -1.5 -1.5 -7.9 -1.5 -8.7 0 -13.7 -1.3 -15.1 -4 -0.6 -1 -1 -7.9 -1 -15.3 0 -11.8 0.2 -13.8 1.9 -15.8 l1.9 -2.4 124.6 -0.3 124.7 -0.2 2.4 2.4 c2.2 2.3 2.5 3.3 2.5 10.6 0 7.5 0.1 8 2.1 8 2.1 0 2.1 0.4 1.7 7.7 -0.5 6.8 -0.8 7.9 -3.2 10 l-2.7 2.3 -50.4 0 -50.5 0 -0.2 162.9 -0.3 162.9 -2.4 2.6 c-2.3 2.4 -3 2.6 -11.8 2.6 -7.6 0 -9.3 -0.3 -9.3 -1.5z m-27 -341.9 c0 -0.8 -0.4 -1.7 -0.8 -2 -1.3 -0.8 -3.5 1.1 -2.8 2.3 1 1.6 3.6 1.4 3.6 -0.3z m-2.4 -4.7 c0.3 -0.6 0.2 -1.5 -0.2 -1.9 -1.2 -1.2 -3.8 0.5 -3 1.9 0.9 1.4 2.3 1.4 3.2 0z m-2.3 -6.5 c-0.3 -0.8 -0.9 -1.4 -1.3 -1.4 -1.3 0 -2.2 1.9 -1.5 3 0.9 1.4 3.4 0 2.8 -1.6z"/>
  <path d="M1554 561 c0 -2 0.5 -3 1.4 -3 1.2 0 1.3 0.6 0.5 3 -0.6 1.7 -1.3 3 -1.5 3 -0.2 0 -0.4 -1.3 -0.4 -3z"/>
  <path d="M255 414.7 c0 -0.9 -2.6 -1.1 -10.9 -0.9 -12.3 0.5 -15.1 -0.4 -15.1 -4.6 0 -4.8 19 -100.4 20.6 -103.4 0.8 -1.6 2.6 -3.3 4 -3.8 1.4 -0.6 9.9 -1 18.9 -1 l16.5 0 1.6 2.5 c1.6 2.4 1.5 3 -0.5 9.8 -2.5 8.6 -2.5 8.7 -0.6 8.7 0.8 0 1.5 0.6 1.5 1.4 0 3.5 -23.7 74.5 -24.6 73.6 -0.6 -0.6 -1.5 -0.5 -2.4 0.1 -1.3 0.8 -1.3 1.1 0.3 2.3 1.8 1.4 1.8 1.8 0.3 6.8 -0.8 2.9 -2.2 6.3 -3.1 7.6 -1.7 2.4 -6.5 3.1 -6.5 0.9z m9.6 -20.8 c0.3 -0.6 0.2 -1.5 -0.2 -1.9 -1.2 -1.2 -3.8 0.5 -3 1.9 0.9 1.4 2.3 1.4 3.2 0z m-2.3 -6.5 c-0.3 -0.8 -0.9 -1.4 -1.3 -1.4 -1.3 0 -2.2 1.9 -1.5 3 0.9 1.4 3.4 0 2.8 -1.6z"/>
  <path d="M1554 401 c0 -2 0.5 -3 1.4 -3 1.2 0 1.3 0.6 0.5 3 -0.6 1.7 -1.3 3 -1.5 3 -0.2 0 -0.4 -1.3 -0.4 -3z"/>
  <path d="M1895 283.1 l-8.5 -7.9 4.5 0.8 c16.2 3.2 36.3 -2.7 48.6 -14.2 9.6 -8.8 10.8 -9.2 25.2 -9 9.8 0.2 13.1 -0.1 15.9 -1.5 3.9 -1.8 7.3 -6.5 7.3 -10.2 0 -8.5 -14 -16.3 -34.3 -19.2 -20.6 -2.9 -31.5 7 -37.3 33.9 -0.9 4.5 -2.1 8.2 -2.4 8.2 -0.8 0 -2.7 -4.2 -3.5 -8 -0.3 -1.4 -1.4 -10.3 -2.5 -19.9 -2.4 -20.3 -2.1 -21.5 5 -24.3 5.2 -1.9 20.5 -2.2 47.7 -0.9 15.4 0.8 16.6 1 22.5 3.9 10.4 5.1 20.2 16.1 23.9 26.8 3.9 11.1 1.4 21.3 -6.4 25.8 -6.9 3.9 -10.3 4.5 -30.2 5 -30.6 0.8 -49.9 5.7 -62.6 15.7 -2 1.6 -3.8 2.9 -4 2.9 -0.2 -0.1 -4.2 -3.6 -8.9 -7.9z"/>
  <path d="M935 285.8 c-4.2 -3.5 -9.2 -6.2 -17.5 -9.3 -11.7 -4.4 -20.8 -5.7 -44.5 -6.4 -20.4 -0.6 -23 -0.9 -27.5 -2.9 -6.5 -3 -9.1 -5.5 -11.1 -10.9 -3.7 -9.6 1.2 -23.7 12.1 -34.7 11.8 -11.9 18 -13.4 57 -13.9 20.8 -0.2 22.3 -0.1 26.7 2 3.3 1.5 4.9 2.9 5.4 4.6 0.6 2.7 -2 29.9 -3.8 38.2 -1.2 5.5 -2.4 8.5 -3.7 8.5 -1.3 0 -4.4 -15.8 -5 -26 l-0.6 -9.4 -1.8 2.8 -1.9 2.8 -3.7 -4.1 c-7.9 -8.5 -18.6 -10.2 -36.6 -5.6 -11.4 2.9 -19.1 6.9 -22.2 11.5 -3.3 4.7 -3 8.3 1.1 12.8 l3.4 3.7 15.4 0.5 c16.8 0.5 18.8 1.2 25.3 8 8.7 9.2 22.7 15 38.2 15.8 6.4 0.3 11.4 0 13.5 -0.7 l3.3 -1.2 -2.5 2.4 c-1.4 1.3 -5.4 5.1 -9 8.4 l-6.5 6.1 -3.5 -3z"/>
  <path d="M1038.5 280 c-0.8 -2.4 0.1 -4 2.1 -4 1.6 0 1.7 0.5 0.8 3.8 -0.8 2.7 -2.1 2.8 -2.9 0.2z"/>
  <path d="M962 262.8 c1 -2.3 17 -37.4 35.4 -77.8 30.2 -66.2 33.7 -73.5 35.6 -73.2 1.7 0.3 2.1 -0.1 1.8 -1.5 -0.2 -1 -1 -1.7 -1.7 -1.5 -2.1 0.4 2.3 -5 9.3 -11.6 6.5 -6 15 -10.9 24.3 -13.8 6.7 -2 86.4 -14 119.3 -17.9 45.9 -5.4 82.5 -9 117 -11.5 21.6 -1.5 71.1 -3.8 99.7 -4.6 l25.2 -0.7 -1.7 4.7 c-0.9 2.5 -2 4.6 -2.3 4.6 -0.3 0 -1.3 -1.8 -2.2 -4 -1.1 -2.8 -2 -3.8 -3 -3.4 -1.4 0.5 -1.4 1 -0.1 4.1 0.9 1.9 1.4 3.7 1.2 3.8 -0.2 0.2 -13.8 0.9 -30.3 1.5 -91.4 3.3 -165.8 14.4 -226 33.7 -41 13.1 -79.5 33.5 -104.2 55.2 -31.1 27.3 -49.6 63.6 -52 101.9 -0.5 9.3 -0.8 10.3 -2.7 10.7 -1.2 0.2 -10 1.4 -19.6 2.5 -9.6 1.1 -19.2 2.3 -21.2 2.6 l-3.8 0.6 2 -4.4z m82.6 -142.8 c1.2 -3 2.5 -6.4 2.8 -7.4 0.4 -1.6 0.7 -1.7 2 -0.6 1.4 1.1 1.6 0.4 1.6 -6.5 0 -4.3 -0.2 -7.6 -0.4 -7.4 -2.4 2.4 -8.6 10.5 -8.6 11.1 0 0.5 0.6 0.8 1.4 0.8 1.2 0 1 1.1 -0.7 6 -1.2 3.3 -2.5 6 -2.8 6 -0.3 0 -1.3 -1.8 -2.2 -4 -1.1 -2.8 -2 -3.8 -3 -3.4 -1.2 0.4 -1.1 1.4 0.7 6 1.8 4.7 2.4 5.4 4.5 5.2 2 -0.2 3 -1.5 4.7 -5.8z"/>
  <path d="M267.4 248.6 c-1.8 -4.6 -1.9 -5.6 -0.7 -6 1 -0.4 1.9 0.6 3 3.4 0.9 2.2 1.9 4 2.2 4 0.3 0 1.6 -2.7 2.8 -6 1.7 -4.9 1.9 -6 0.7 -6 -0.8 0 -1.4 -0.3 -1.4 -0.8 0 -0.6 6.2 -8.7 8.6 -11.1 0.2 -0.2 0.4 3.1 0.4 7.4 0 6.9 -0.2 7.6 -1.6 6.5 -1.3 -1.1 -1.6 -1 -2 0.6 -0.3 1 -1.6 4.4 -2.8 7.4 -1.7 4.3 -2.7 5.6 -4.7 5.8 -2.1 0.2 -2.7 -0.5 -4.5 -5.2z"/>
  <path d="M263.4 238.9 c-0.7 -1.2 1.5 -3.1 2.8 -2.3 0.4 0.3 0.8 1.2 0.8 2 0 1.7 -2.6 1.9 -3.6 0.3z"/>
  <path d="M1543.4 238.9 c-0.7 -1.2 1.5 -3.1 2.8 -2.3 0.4 0.3 0.8 1.2 0.8 2 0 1.7 -2.6 1.9 -3.6 0.3z"/>
  <path d="M261.4 233.9 c-0.8 -1.4 1.8 -3.1 3 -1.9 0.9 0.9 0 3 -1.4 3 -0.5 0 -1.2 -0.5 -1.6 -1.1z"/>
  <path d="M1541.4 233.9 c-0.8 -1.4 1.8 -3.1 3 -1.9 0.9 0.9 0 3 -1.4 3 -0.5 0 -1.2 -0.5 -1.6 -1.1z"/>
  <path d="M259.5 229 c-0.7 -1.1 0.2 -3 1.5 -3 0.4 0 1 0.6 1.3 1.4 0.6 1.6 -1.9 3 -2.8 1.6z"/>
  <path d="M1539.5 229 c-0.7 -1.1 0.2 -3 1.5 -3 0.4 0 1 0.6 1.3 1.4 0.6 1.6 -1.9 3 -2.8 1.6z"/>
  <path d="M11.4 184.6 c-1.8 -4.6 -1.9 -5.6 -0.7 -6 1 -0.4 1.9 0.6 3 3.4 0.9 2.2 1.9 4 2.2 4 0.3 0 1.6 -2.7 2.8 -6 1.7 -4.9 1.9 -6 0.7 -6 -0.8 0 -1.4 -0.3 -1.4 -0.8 0 -0.6 6.2 -8.7 8.6 -11.1 0.2 -0.2 0.4 3.1 0.4 7.4 0 6.9 -0.2 7.6 -1.6 6.5 -1.3 -1.1 -1.6 -1 -2 0.6 -0.3 1 -1.6 4.4 -2.8 7.4 -1.7 4.3 -2.7 5.6 -4.7 5.8 -2.1 0.2 -2.7 -0.5 -4.5 -5.2z"/>
  <path d="M7.4 174.9 c-0.7 -1.2 1.5 -3.1 2.8 -2.3 0.4 0.3 0.8 1.2 0.8 2 0 1.7 -2.6 1.9 -3.6 0.3z"/>
  <path d="M5.4 169.9 c-0.8 -1.4 1.8 -3.1 3 -1.9 0.9 0.9 0 3 -1.4 3 -0.5 0 -1.2 -0.5 -1.6 -1.1z"/>
  <path d="M3.5 165 c-0.7 -1.1 0.2 -3 1.5 -3 0.4 0 1 0.6 1.3 1.4 0.6 1.6 -1.9 3 -2.8 1.6z"/>
  <path d="M1535 93.4 c-5.3 -1.3 -112.2 -3.4 -173.1 -3.5 -39.8 0 -71.9 -0.2 -71.4 -0.4 2.4 -0.9 40.2 -4.6 60.7 -6 56.7 -3.7 121.8 -4 181.7 -0.8 l12.3 0.6 1.9 4.4 c1 2.5 1.9 4.9 1.9 5.4 0 0.8 -10.7 1.1 -14 0.3z"/>
  <path d="M1550.1 87 c-0.9 -2.8 -0.8 -3 1.5 -3 2.6 0 2.7 0.3 1.8 3.8 -0.9 3 -2 2.8 -3.3 -0.8z"/>
  <path d="M1737.5 82.9 c-79.2 -13.5 -176.4 -21.9 -271.7 -23.6 -20.8 -0.3 -37.8 -0.9 -37.8 -1.2 0 -0.3 0.8 -2.5 1.7 -5 l1.7 -4.4 38.5 0.6 c104.5 1.8 195.8 12.8 271.6 32.6 12.7 3.4 11.5 3.7 -4 1z"/>
 </g>
 <g fill="#9c5100">
  <path d="M1485.4 913 c-1.2 -0.4 -9.7 -5.9 -19 -12.1 -16 -10.6 -25.3 -15.9 -28.1 -15.9 -1 0 -1.3 3.1 -1.3 12.4 0 11.8 -0.1 12.5 -2.1 13.1 -1.4 0.5 -2.7 0.1 -3.8 -0.9 -1.4 -1.4 -1.7 -5.3 -2.1 -27.4 -0.4 -20.3 -0.2 -26.5 0.9 -29.4 1.1 -3.1 1.6 -3.5 3.1 -2.6 1.3 0.9 2.8 0.6 6.4 -1.1 9.1 -4.4 27.5 -3.8 37.5 1.3 5.4 2.6 7 4.9 5.5 7.4 -1.8 2.9 -9.7 7.7 -17.5 10.5 -4.1 1.4 -11.3 4 -16.1 5.8 -6.3 2.2 -8.8 3.6 -8.8 4.7 0 1.1 2.8 3.2 7.3 5.6 18.4 9.8 42.6 23.8 44.2 25.6 1.7 1.9 1.7 2 -0.9 3 -1.5 0.5 -2.8 1 -2.9 0.9 -0.1 0 -1.1 -0.4 -2.3 -0.9z m-34 -44.1 c5 -1.6 12.3 -4.7 16.1 -6.8 5.6 -3 7.1 -4.3 7.3 -6.3 0.5 -4.4 -2.4 -5.2 -16.8 -4.4 -22.6 1.1 -26.5 4 -22.9 16.9 0.9 3.2 1.4 3.7 4 3.7 1.7 0 7.2 -1.4 12.3 -3.1z"/>
  <path d="M2667.4 912.9 c-1.1 -0.4 -9.5 -5.7 -18.8 -11.8 -15.5 -10.2 -25.9 -16.1 -28.5 -16.1 -0.6 0 -1.1 4.7 -1.3 12.1 -0.3 10.5 -0.6 12.3 -2.1 13.3 -1.5 0.9 -2.2 0.7 -3.8 -1.3 -1.7 -2.1 -1.9 -4 -1.9 -22 0 -10.8 -0.3 -24 -0.7 -29.3 -0.6 -10.4 -0.1 -11.7 3.8 -8.2 1.7 1.6 2.2 1.5 7.1 -0.6 9.9 -4.3 25.3 -3.8 36.9 1.1 12.2 5.3 7.3 11.5 -15.1 19.4 -25.2 9 -25.1 8.9 -13.7 15 14.8 7.9 39.3 21.9 42.5 24.2 1.8 1.3 3 2.8 2.7 3.2 -0.7 1.3 -4.9 1.9 -7.1 1z m-39.2 -42.5 c8.2 -2.1 23.5 -8.8 26.4 -11.5 3.2 -3 3.1 -5.7 -0.3 -7 -3.2 -1.3 -24.8 -0.5 -30.2 1 -6.6 2 -8.1 3.6 -8.1 9.1 0 6.1 1.7 10 4.3 10 1 0 4.6 -0.7 7.9 -1.6z"/>
  <path d="M1292.3 904.3 c0.4 -4.9 1 -20.8 1.3 -35.5 0.6 -24.1 0.9 -26.9 2.5 -28.4 2.5 -2.3 3.2 -1.6 13.5 13 17.8 25.2 28.9 39.6 30.4 39.3 1.3 -0.2 1.6 -4.2 2.3 -25.2 0.8 -22.7 1 -25.2 2.8 -27 1.5 -1.6 2.3 -1.7 3.7 -0.9 1.6 1 1.7 3.9 1.7 34 0 18.1 -0.3 34.1 -0.8 35.7 -0.6 2.2 -1.3 2.7 -4 2.7 -2.8 0 -3.7 -0.7 -7.2 -6.2 -2.2 -3.5 -10.7 -15.3 -18.9 -26.3 -8.1 -11 -15 -20.6 -15.3 -21.2 -0.9 -2.3 -3 -1.4 -3.7 1.5 -0.3 1.5 -0.9 13.5 -1.2 26.7 -0.4 13.3 -1.1 24.6 -1.7 25.3 -0.5 0.6 -2.1 1.2 -3.5 1.2 l-2.5 0 0.6 -8.7z"/>
  <path d="M1658.5 898 c-5.6 -12 -7.4 -15 -9 -15 -1.1 0 -7.8 1.5 -15 3.3 l-12.9 3.3 -3.1 9.1 c-2.8 8.4 -4.9 12.3 -6.4 12.3 -3.4 -0.1 -2.7 -2.6 8.3 -32.1 6.2 -16.8 11.7 -31.9 12 -33.7 0.4 -1.8 1.5 -3.4 2.7 -3.7 4 -1.3 8.9 4.6 13.3 16 1.4 3.9 3.8 9.4 5.2 12.3 2.6 5.1 2.7 5.2 7.3 5.2 6 0 9.1 0.9 9.1 2.6 0 2 -3.5 3.5 -6.9 2.8 -2.8 -0.6 -3.1 -0.4 -3.1 1.9 0 3.3 5.1 17.4 8.4 23.2 l2.4 4.4 -2.4 1.5 c-1.3 0.9 -2.5 1.6 -2.6 1.6 -0.2 0 -3.5 -6.7 -7.3 -15z m-19.4 -17.7 c4.5 -1.4 8.3 -3.2 8.6 -4 0.8 -2 -2.6 -13.3 -5.6 -18.9 -3.5 -6.5 -5.6 -6.8 -7.1 -1.3 -0.7 2.4 -3.2 8.7 -5.6 14.1 -2.4 5.4 -4.4 10.5 -4.4 11.3 0 2.3 5 1.9 14.1 -1.2z"/>
  <path d="M1754.8 912.3 c-1.6 -0.4 -1.8 -2.1 -1.8 -17.6 0.1 -29.7 2 -37.4 10.2 -41.5 13 -6.5 43.6 -4 49.3 4.2 4.4 6.2 -1.7 16.1 -13.8 22.3 -6.4 3.2 -20.9 6.9 -30.9 7.8 l-7.8 0.7 0 11.4 c0 9.8 -0.2 11.4 -1.7 12.2 -1 0.5 -2.6 0.7 -3.5 0.5z m32.3 -32.5 c11.5 -2.5 17.4 -6.2 19 -11.9 1.6 -5.3 0 -8.6 -5.6 -11.4 -6 -3 -23 -2.8 -30.2 0.4 -6.5 2.9 -7.7 4.3 -9.1 10.9 -2 9.1 -1.5 13.3 1.8 14.4 2.6 0.9 15.1 -0.3 24.1 -2.4z"/>
  <path d="M2476.2 912 c-1.8 -0.4 -3.5 -1 -3.8 -1.3 -1.1 -1.1 -2.4 -38.6 -1.8 -50.1 0.6 -10.4 0.5 -12.1 -1 -13.1 -6.8 -5 24.7 -6.6 39.7 -2.1 6.8 2 12.5 6 13.3 9.3 0.6 2.3 0 3.3 -4.4 7.4 -2.8 2.5 -7.6 5.7 -10.6 7 -3.1 1.2 -5.6 2.8 -5.6 3.4 0 0.6 3.9 1.6 9.4 2.3 16.3 2 27.7 8 26 13.4 -4.3 14 -41.5 28.5 -61.2 23.8z m22.3 -7.2 c17.6 -2.6 30.5 -9.5 30.5 -16.2 0 -6.7 -8.9 -10.6 -24.5 -10.6 -7 0 -26.1 2.2 -27 3.2 -0.2 0.2 1.8 22 2.4 25.6 0.1 0.4 9.3 -0.6 18.6 -2z m-5.3 -35.2 c9.7 -2.5 18.4 -6.2 20.7 -9 0.7 -0.8 1.1 -3 0.9 -4.8 -0.5 -5.4 -5.3 -7.1 -21.8 -7.5 -7.4 -0.2 -14 0 -14.6 0.4 -0.6 0.5 -1.4 5.7 -1.7 12.1 l-0.6 11.2 3.8 0 c2.1 0 8.1 -1.1 13.3 -2.4z"/>
  <path d="M2756.3 904.3 c0.4 -4.9 1 -20.8 1.3 -35.5 0.6 -24.1 0.9 -26.9 2.5 -28.4 2.5 -2.3 3.2 -1.6 13.5 13 17.8 25.2 28.9 39.6 30.4 39.3 1.3 -0.2 1.6 -4.2 2.3 -25.2 0.8 -22.7 1 -25.2 2.8 -27 1.5 -1.6 2.3 -1.7 3.7 -0.9 1.6 1 1.7 3.9 1.7 34 0 18.1 -0.3 34.1 -0.8 35.7 -0.6 2.2 -1.3 2.7 -4 2.7 -2.8 0 -3.7 -0.7 -7.2 -6.2 -2.2 -3.5 -10.7 -15.3 -18.9 -26.3 -8.1 -11 -15 -20.6 -15.3 -21.2 -0.9 -2.3 -3 -1.4 -3.7 1.5 -0.3 1.5 -0.9 13.5 -1.2 26.7 -0.4 13.3 -1.1 24.6 -1.7 25.3 -0.5 0.6 -2.1 1.2 -3.5 1.2 l-2.5 0 0.6 -8.7z"/>
  <path d="M1229 879.8 l0 -32.3 17.8 -0.3 c22.1 -0.4 28.2 0.2 28.2 2.9 0 2.5 -1.4 2.7 -21.3 3.2 -9.8 0.2 -17.3 0.9 -17.9 1.5 -1.3 1.3 -2.3 16.6 -1.4 22.6 l0.7 4.7 6.2 -0.6 c3.4 -0.4 11.4 -1.3 17.7 -2.1 15.7 -1.9 16.2 -1.9 15.8 0.8 -0.3 2.2 -1.2 2.4 -20.1 4.7 l-19.7 2.4 0.6 9.1 c0.4 5 0.9 9.3 1.1 9.6 0.2 0.2 11 -0.4 23.9 -1.4 13 -1 23.8 -1.5 24.2 -1.2 0.3 0.4 -0.3 1.5 -1.4 2.5 -1.6 1.5 -5.9 2.2 -26.4 4 -13.5 1.2 -25.3 2.1 -26.2 2.1 -1.7 0 -1.8 -2.2 -1.8 -32.2z"/>
  <path d="M1377.4 906.3 c1.2 -11.9 2.8 -43.3 2.3 -44.7 -0.4 -1 -3.3 -1.5 -11.2 -1.8 -11.3 -0.4 -13.4 -1.3 -11.3 -5.1 0.9 -1.7 1.7 -1.8 11.6 -1 5.9 0.4 19.6 0.8 30.4 0.8 18.8 0 19.7 0.1 20.2 2 0.3 1.1 0.1 2.4 -0.4 2.9 -0.6 0.6 -7.7 1.2 -15.8 1.4 l-14.9 0.4 -1.1 14.2 c-0.7 7.7 -1.5 19.2 -1.9 25.4 l-0.6 11.2 -4 0 -3.9 0 0.6 -5.7z"/>
  <path d="M1503 879.8 l0 -32.3 17.8 -0.3 c22.1 -0.4 28.2 0.2 28.2 2.9 0 2.5 -1.4 2.7 -21.3 3.2 -9.8 0.2 -17.3 0.9 -17.9 1.5 -1.3 1.3 -2.3 16.6 -1.4 22.6 l0.7 4.6 6.7 -0.6 c3.7 -0.3 11.2 -1.2 16.7 -1.9 7.3 -0.9 10.5 -0.9 11.9 -0.1 1.4 0.8 2 0.8 2.3 -0.1 0.7 -2 2.3 -1.5 2.3 0.6 0 2.5 -0.3 2.6 -21.8 5.2 l-18.2 2.2 0.6 9.1 c0.4 5 0.9 9.3 1.1 9.6 0.2 0.2 11 -0.4 23.9 -1.4 13 -1 23.8 -1.5 24.2 -1.2 0.3 0.4 -0.3 1.5 -1.4 2.5 -1.6 1.5 -5.9 2.2 -26.4 4 -13.5 1.2 -25.3 2.1 -26.2 2.1 -1.7 0 -1.8 -2.2 -1.8 -32.2z"/>
  <path d="M1822 911 c-1.3 -0.8 -1.5 -5 -1.4 -28.6 0.1 -28.8 0.3 -29.9 4.4 -29.1 1.3 0.2 1.5 4.2 1.5 29.2 0 25 -0.2 29 -1.5 29.2 -0.8 0.2 -2.2 -0.1 -3 -0.7z"/>
  <path d="M1985 879.9 l0 -32.4 17.8 -0.3 c20.6 -0.3 28.1 0.3 28.9 2.5 0.3 0.8 0 1.8 -0.7 2.3 -0.6 0.4 -9.5 0.9 -19.6 1.2 -10.1 0.3 -18.6 0.7 -18.9 1 -1.3 1.3 -2.2 11.8 -1.7 19.5 l0.5 8.4 6.6 -0.6 c3.6 -0.4 11.5 -1.3 17.4 -2.1 15.3 -2 16.9 -1.9 16.5 0.8 -0.3 2.2 -1.2 2.4 -20 4.7 l-19.8 2.4 0 9.4 0 9.3 5.1 0 c2.8 0 13.1 -0.7 23 -1.6 9.9 -0.8 18.9 -1.4 20.1 -1.2 2 0.3 2 0.3 0.2 2.4 -1.7 1.9 -3.9 2.3 -21.9 3.8 -11 1 -23 2 -26.7 2.3 l-6.8 0.6 0 -32.4z"/>
  <path d="M2056.7 910.5 c-4.2 -1.6 -9.7 -5.2 -9.7 -6.4 0 -0.4 0.6 -1.6 1.4 -2.7 1.4 -1.8 1.6 -1.8 4.3 1.4 3.6 4.3 9.1 5.6 17.7 4.2 14.9 -2.4 30.6 -10.9 30.6 -16.6 0 -2.7 1.5 -2.2 -23.9 -7.9 -11.3 -2.6 -21.2 -5 -22.1 -5.5 -5.2 -2.8 -5 -7 0.6 -12.4 3 -2.9 4 -3.4 6.9 -2.9 3 0.5 3.6 0.2 4.6 -2.1 1 -2.1 2.8 -3.1 8.8 -5 11.3 -3.5 21 -5 24.4 -3.7 6.5 2.5 1.5 5 -16.7 8 -17.9 3 -23.6 5.7 -23.6 11 0 2.5 0.6 2.7 18.2 7.5 31.9 8.6 30.8 8.2 30.8 11.9 0 6.7 -9.2 13.8 -25.3 19.3 -9 3.2 -21.5 4.1 -27 1.9z"/>
  <path d="M2160.3 887.9 c0.4 -13.3 0.7 -27.9 0.7 -32.3 l0 -8.1 17.3 -0.3 c20 -0.4 27.6 0.3 28.4 2.5 0.3 0.8 0 1.8 -0.7 2.3 -0.6 0.4 -9.5 0.9 -19.6 1.2 -10.1 0.3 -18.7 0.8 -19.1 1.2 -0.4 0.4 -0.9 6.8 -1.1 14.2 l-0.4 13.6 6.8 -0.7 c3.8 -0.3 10.4 -1.1 14.8 -1.6 4.3 -0.6 8 -0.8 8.3 -0.5 0.3 0.2 0.2 1.3 -0.1 2.4 -0.8 2.4 -6.3 3.6 -7 1.5 -0.3 -0.7 -1.2 -1 -2.1 -0.7 -0.8 0.3 -1.3 1 -1 1.4 0.5 0.9 -2.8 1.6 -12.4 2.6 l-6.4 0.7 0.5 8.9 c0.3 4.9 0.8 9.2 1.2 9.5 0.6 0.6 12.6 -0.1 41.1 -2.4 l8 -0.6 -1.6 2.4 c-1.6 2.3 -2.6 2.5 -19 4 -9.6 0.9 -21.9 2 -27.3 2.4 l-9.9 0.7 0.6 -24.3z"/>
  <path d="M2242 907.8 c0 -2.4 0.7 -13.7 1.4 -25.3 0.8 -11.5 1.2 -21.2 0.9 -21.5 -0.2 -0.3 -5.1 -0.7 -10.8 -1 -11.1 -0.6 -13.9 -1.7 -11.8 -4.8 0.9 -1.5 2.4 -1.6 11.9 -1.2 6 0.3 20 0.5 31.2 0.5 18.8 0 20.3 0.1 20.8 1.8 0.3 1 0.3 2.1 0 2.4 -1.2 1.3 -9.9 2.2 -20.8 2.3 l-11.7 0 -0.5 5.3 c-1.6 13.7 -2.6 28 -2.6 36.5 l0 9.2 -4 0 -4 0 0 -4.2z"/>
  <path d="M2419.5 911.1 c-5 -1.2 -8.3 -4 -10.6 -8.8 -1.9 -4 -2.1 -5.6 -1.6 -13.2 0.6 -8.1 5.2 -33.9 6.3 -35 1.1 -1.1 3.9 1.7 4.2 4.2 0.2 1.4 -0.9 7.9 -2.3 14.4 -3.5 15.5 -3.3 25 0.7 29 2 2 3.9 2.7 8 3.1 8 0.6 13.6 -1.3 18.5 -6.4 6 -6.2 8.1 -14.2 9.9 -38.4 0.6 -8.9 1.3 -10.5 4.3 -9.5 2 0.6 2.1 1.2 2.1 15.9 0 8.4 -0.3 22.1 -0.7 30.5 l-0.6 15.2 -2.6 -0.3 c-2.5 -0.3 -2.6 -0.5 -2.3 -6.5 0.4 -7.7 -0.3 -7.9 -7.8 -2.2 -9.2 7 -18.3 9.8 -25.5 8z"/>
  <path d="M2544.3 887.9 c0.4 -13.3 0.7 -27.9 0.7 -32.3 l0 -8.1 17.3 -0.3 c20 -0.4 27.6 0.3 28.4 2.5 0.3 0.8 0 1.8 -0.7 2.3 -0.6 0.4 -9.5 0.9 -19.6 1.2 -10.1 0.3 -18.7 0.8 -19.1 1.2 -0.4 0.4 -0.9 6.8 -1.1 14.2 l-0.4 13.6 6.8 -0.7 c3.8 -0.3 12.1 -1.3 18.4 -2.1 15.6 -1.9 16.2 -1.9 15.8 0.8 -0.3 2.2 -1.2 2.4 -20.2 4.7 l-19.9 2.5 0.5 8.8 c0.3 4.9 0.8 9.2 1.2 9.5 0.6 0.6 12.6 -0.1 41.1 -2.4 l8 -0.6 -1.6 2.4 c-1.6 2.3 -2.6 2.5 -19 4 -9.6 0.9 -21.9 2 -27.3 2.4 l-9.9 0.7 0.6 -24.3z"/>
  <path d="M1704.3 910.3 l-13.3 -0.4 0 -3.1 0 -3.1 26.7 0.7 c14.7 0.4 26.9 0.9 27.2 1.2 0.3 0.2 -0.5 1.5 -1.7 2.7 -2.1 2 -3.2 2.2 -14 2.3 -6.4 0 -17.7 -0.1 -24.9 -0.3z"/>
  <path d="M1858.1 910.3 l-18.4 -0.3 0.7 -4.3 c0.3 -2.3 0.9 -17.6 1.3 -33.9 l0.6 -29.8 3.1 0 3.1 0 -0.4 30.8 -0.3 30.9 27.8 0.7 c15.3 0.3 28 0.9 28.3 1.2 0.3 0.2 -0.5 1.5 -1.7 2.7 -2.5 2.5 -6.9 2.7 -44.1 2z"/>
  <path d="M1932.6 910.3 l-18.8 -0.3 0.6 -2.8 c0.4 -1.5 1 -16.8 1.3 -33.9 l0.6 -31.3 3.4 0 3.4 0 -0.7 31 -0.7 31 12.4 0 c24 0 43.9 1.2 43.9 2.6 0 3 -5.6 4.4 -16.2 4.2 -5.7 -0.2 -18.8 -0.4 -29.2 -0.5z"/>
  <path d="M2355.1 910.3 l-18.4 -0.3 0.7 -4.3 c0.3 -2.3 0.9 -17.6 1.3 -33.9 l0.6 -29.8 3.1 0 3.1 0 -0.4 30.8 -0.3 30.9 27.8 0.7 c15.3 0.3 28 0.9 28.3 1.2 0.3 0.2 -0.5 1.5 -1.7 2.7 -2.5 2.5 -6.9 2.7 -44.1 2z"/>
  <path d="M2705.5 909.6 c-9.2 -2.3 -15.6 -7.1 -19.2 -14.5 -2.2 -4.6 -2.9 -16.8 -1.3 -22.7 1.5 -5.2 6.5 -12.6 10.7 -15.7 1.6 -1.2 2.8 -2.7 2.6 -3.4 -0.6 -1.6 1.8 -2.8 2.6 -1.4 1.1 1.7 6.2 -0.4 6.8 -2.9 0.3 -1.1 1.4 -2 2.4 -2 1.1 0 1.6 0.5 1.3 1.4 -0.4 1 1.2 1.4 6.3 1.9 14.1 1.2 24.9 7.9 28.8 18 3.7 9.8 0.6 26.8 -6.3 34 -7 7.4 -21.7 10.5 -34.7 7.3z m22.4 -6.1 c10.4 -3.6 16.3 -12.4 16.3 -24.4 0.1 -8.8 -2.2 -13.5 -8.5 -17.8 -5.3 -3.6 -12.1 -5.3 -20.8 -5.3 -5.3 0 -6.1 0.3 -7 2.4 -1.2 2.6 -5.8 4.4 -6.9 2.7 -0.9 -1.5 -6.6 4.6 -8.4 9.1 -1.9 4.5 -2.1 15.5 -0.4 21.2 1.5 4.9 7.1 10.8 11.8 12.3 5.2 1.6 19.1 1.5 23.9 -0.2z"/>
  <path d="M1681.4 906 c0.4 -2.5 0.9 -17.9 1.3 -34.2 l0.6 -29.8 3.1 0 3.1 0 -0.3 29.3 c-0.4 28.7 -0.4 29.2 -2.6 31.7 -1.3 1.4 -3.1 3.6 -4.1 5 l-1.7 2.5 0.6 -4.5z"/>
  <path d="M2199 881.7 c0 -2.1 1.2 -2.8 2.7 -1.6 1 0.9 1.3 0.8 1.3 -0.5 0 -1 0.8 -1.6 2.1 -1.6 1.5 0 2 0.5 1.7 2.3 -0.2 1.8 -1 2.3 -4 2.5 -2.7 0.2 -3.8 -0.1 -3.8 -1.1z"/>
  <path d="M11.4 664.6 c-1.8 -4.6 -1.9 -5.6 -0.7 -6 1 -0.4 1.9 0.6 3 3.4 0.9 2.2 1.9 4 2.2 4 0.3 0 1.6 -2.7 2.8 -6 1.7 -4.9 1.9 -6 0.7 -6 -0.8 0 -1.4 -0.3 -1.4 -0.8 0 -0.6 6.2 -8.7 8.6 -11.1 0.2 -0.2 0.4 3.1 0.4 7.4 0 6.9 -0.2 7.6 -1.6 6.5 -1.3 -1.1 -1.6 -1 -2 0.6 -0.3 1 -1.6 4.4 -2.8 7.4 -1.7 4.3 -2.7 5.6 -4.7 5.8 -2.1 0.2 -2.7 -0.5 -4.5 -5.2z"/>
  <path d="M7.4 654.9 c-0.7 -1.2 1.5 -3.1 2.8 -2.3 0.4 0.3 0.8 1.2 0.8 2 0 1.7 -2.6 1.9 -3.6 0.3z"/>
  <path d="M5.4 649.9 c-0.8 -1.4 1.8 -3.1 3 -1.9 0.9 0.9 0 3 -1.4 3 -0.5 0 -1.2 -0.5 -1.6 -1.1z"/>
  <path d="M3.5 645 c-0.7 -1.1 0.2 -3 1.5 -3 0.4 0 1 0.6 1.3 1.4 0.6 1.6 -1.9 3 -2.8 1.6z"/>
  <path d="M2699.4 536.6 c-1.8 -4.6 -1.9 -5.6 -0.7 -6 1 -0.4 1.9 0.6 3 3.4 0.9 2.2 1.9 4 2.2 4 0.3 0 1.6 -2.7 2.8 -6 1.7 -4.9 1.9 -6 0.7 -6 -0.8 0 -1.4 -0.3 -1.4 -0.8 0 -0.6 6.2 -8.7 8.6 -11.1 0.2 -0.2 0.4 3.1 0.4 7.4 0 6.9 -0.2 7.6 -1.6 6.5 -1.3 -1.1 -1.6 -1 -2 0.6 -0.3 1 -1.6 4.4 -2.8 7.4 -1.7 4.3 -2.7 5.6 -4.7 5.8 -2.1 0.2 -2.7 -0.5 -4.5 -5.2z"/>
  <path d="M2695.4 526.9 c-0.7 -1.2 1.5 -3.1 2.8 -2.3 0.4 0.3 0.8 1.2 0.8 2 0 1.7 -2.6 1.9 -3.6 0.3z"/>
  <path d="M2693.4 521.9 c-0.8 -1.4 1.8 -3.1 3 -1.9 0.9 0.9 0 3 -1.4 3 -0.5 0 -1.2 -0.5 -1.6 -1.1z"/>
  <path d="M2691.5 517 c-0.7 -1.1 0.2 -3 1.5 -3 0.4 0 1 0.6 1.3 1.4 0.6 1.6 -1.9 3 -2.8 1.6z"/>
  <path d="M1800.2 474.8 c-1.3 -3.5 -2.8 -7.3 -3.3 -8.5 -0.5 -1.3 -1.3 -3.3 -1.8 -4.5 -0.4 -1.3 -1.4 -3.5 -2 -4.9 -0.7 -1.4 -1.1 -4.1 -0.9 -6 0.3 -3.2 0.5 -3.4 4.3 -3.7 3.9 -0.3 4.1 -0.2 5.9 4 0.9 2.4 2.1 5.2 2.6 6.3 0.5 1.1 1.1 2.9 1.3 4 0.3 1.4 0.5 1.2 0.6 -0.8 0 -1.5 0.8 -3.9 1.7 -5.2 1.9 -2.9 5.6 -3.5 4.8 -0.7 -0.3 0.9 0.8 0.1 2.5 -1.8 l3.1 -3.4 0 7.8 c0 7 -0.2 7.7 -1.6 6.6 -1.3 -1.1 -1.6 -1 -2 0.6 -0.3 1 -1.6 4.4 -2.8 7.4 -1.6 4.1 -2.8 5.6 -4.5 5.8 -1.2 0.2 -2.5 1 -2.8 1.8 -1.1 2.9 -2.9 1.2 -5.1 -4.8z m11.7 -10 c0.6 -1.8 0.7 -2.8 0.2 -2.3 -1 1.2 -2.5 5.5 -1.8 5.5 0.3 0 1 -1.5 1.6 -3.2z"/>
  <path d="M2443.4 472.6 c-1.8 -4.6 -1.9 -5.6 -0.7 -6 1 -0.4 1.9 0.6 3 3.4 0.9 2.2 1.9 4 2.2 4 0.3 0 1.6 -2.7 2.8 -6 1.7 -4.9 1.9 -6 0.7 -6 -0.8 0 -1.4 -0.3 -1.4 -0.8 0 -0.6 6.2 -8.7 8.6 -11.1 0.2 -0.2 0.4 3.1 0.4 7.4 0 6.9 -0.2 7.6 -1.6 6.5 -1.3 -1.1 -1.6 -1 -2 0.6 -0.3 1 -1.6 4.4 -2.8 7.4 -1.7 4.3 -2.7 5.6 -4.7 5.8 -2.1 0.2 -2.7 -0.5 -4.5 -5.2z"/>
  <path d="M2439.4 462.9 c-0.7 -1.2 1.5 -3.1 2.8 -2.3 0.4 0.3 0.8 1.2 0.8 2 0 1.7 -2.6 1.9 -3.6 0.3z"/>
  <path d="M2437.4 457.9 c-0.8 -1.4 1.8 -3.1 3 -1.9 0.9 0.9 0 3 -1.4 3 -0.5 0 -1.2 -0.5 -1.6 -1.1z"/>
  <path d="M2435.5 453 c-0.7 -1.1 0.2 -3 1.5 -3 0.4 0 1 0.6 1.3 1.4 0.6 1.6 -1.9 3 -2.8 1.6z"/>
  <path d="M2827.4 408.6 c-1.8 -4.6 -1.9 -5.6 -0.7 -6 1 -0.4 1.9 0.6 3 3.4 0.9 2.2 1.9 4 2.2 4 0.3 0 1.6 -2.7 2.8 -6 1.7 -4.9 1.9 -6 0.7 -6 -0.8 0 -1.4 -0.3 -1.4 -0.8 0 -0.6 6.2 -8.7 8.6 -11.1 0.2 -0.2 0.4 3.1 0.4 7.4 0 6.9 -0.2 7.6 -1.6 6.5 -1.3 -1.1 -1.6 -1 -2 0.6 -0.3 1 -1.6 4.4 -2.8 7.4 -1.7 4.3 -2.7 5.6 -4.7 5.8 -2.1 0.2 -2.7 -0.5 -4.5 -5.2z"/>
  <path d="M2823.4 398.9 c-0.7 -1.2 1.5 -3.1 2.8 -2.3 0.4 0.3 0.8 1.2 0.8 2 0 1.7 -2.6 1.9 -3.6 0.3z"/>
  <path d="M2821.4 393.9 c-0.8 -1.4 1.8 -3.1 3 -1.9 0.9 0.9 0 3 -1.4 3 -0.5 0 -1.2 -0.5 -1.6 -1.1z"/>
  <path d="M2819.5 389 c-0.7 -1.1 0.2 -3 1.5 -3 0.4 0 1 0.6 1.3 1.4 0.6 1.6 -1.9 3 -2.8 1.6z"/>
  <path d="M1803.4 312.6 c-1.8 -4.6 -1.9 -5.6 -0.7 -6 1 -0.4 1.9 0.6 3 3.4 0.9 2.2 1.9 4 2.2 4 0.3 0 1.6 -2.7 2.8 -6 1.7 -4.9 1.9 -6 0.7 -6 -0.8 0 -1.4 -0.3 -1.4 -0.8 0 -0.6 6.2 -8.7 8.6 -11.1 0.2 -0.2 0.4 3.1 0.4 7.4 0 6.9 -0.2 7.6 -1.6 6.5 -1.3 -1.1 -1.6 -1 -2 0.6 -0.3 1 -1.6 4.4 -2.8 7.4 -1.7 4.3 -2.7 5.6 -4.7 5.8 -2.1 0.2 -2.7 -0.5 -4.5 -5.2z"/>
  <path d="M1799.4 302.9 c-0.7 -1.2 1.5 -3.1 2.8 -2.3 0.4 0.3 0.8 1.2 0.8 2 0 1.7 -2.6 1.9 -3.6 0.3z"/>
  <path d="M1797.4 297.9 c-0.8 -1.4 1.8 -3.1 3 -1.9 0.9 0.9 0 3 -1.4 3 -0.5 0 -1.2 -0.5 -1.6 -1.1z"/>
  <path d="M1795.5 293 c-0.7 -1.1 0.2 -3 1.5 -3 0.4 0 1 0.6 1.3 1.4 0.6 1.6 -1.9 3 -2.8 1.6z"/>
  <path d="M395.4 280.6 c-1.8 -4.6 -1.9 -5.6 -0.7 -6 1 -0.4 1.9 0.6 3 3.4 0.9 2.2 1.9 4 2.2 4 0.3 0 1.6 -2.7 2.8 -6 1.7 -4.9 1.9 -6 0.7 -6 -0.8 0 -1.4 -0.3 -1.4 -0.8 0 -0.6 6.2 -8.7 8.6 -11.1 0.2 -0.2 0.4 3.1 0.4 7.4 0 6.9 -0.2 7.6 -1.6 6.5 -1.3 -1.1 -1.6 -1 -2 0.6 -0.3 1 -1.6 4.4 -2.8 7.4 -1.7 4.3 -2.7 5.6 -4.7 5.8 -2.1 0.2 -2.7 -0.5 -4.5 -5.2z"/>
  <path d="M391.4 270.9 c-0.7 -1.2 1.5 -3.1 2.8 -2.3 0.4 0.3 0.8 1.2 0.8 2 0 1.7 -2.6 1.9 -3.6 0.3z"/>
  <path d="M389.4 265.9 c-0.8 -1.4 1.8 -3.1 3 -1.9 0.9 0.9 0 3 -1.4 3 -0.5 0 -1.2 -0.5 -1.6 -1.1z"/>
  <path d="M387.5 261 c-0.7 -1.1 0.2 -3 1.5 -3 0.4 0 1 0.6 1.3 1.4 0.6 1.6 -1.9 3 -2.8 1.6z"/>
 </g>
 <g fill="#7d675b">
  <path d="M1035.4 920.6 c-1.8 -4.6 -1.9 -5.6 -0.7 -6 1 -0.4 1.9 0.6 3 3.4 0.9 2.2 1.9 4 2.2 4 0.3 0 1.6 -2.7 2.8 -6 1.7 -4.9 1.9 -6 0.7 -6 -0.8 0 -1.4 -0.3 -1.4 -0.8 0 -0.6 6.2 -8.7 8.6 -11.1 0.2 -0.2 0.4 3.1 0.4 7.4 0 6.9 -0.2 7.6 -1.6 6.5 -1.3 -1.1 -1.6 -1 -2 0.6 -0.3 1 -1.6 4.4 -2.8 7.4 -1.7 4.3 -2.7 5.6 -4.7 5.8 -2.1 0.2 -2.7 -0.5 -4.5 -5.2z"/>
  <path d="M1031.4 910.9 c-0.7 -1.2 1.5 -3.1 2.8 -2.3 0.4 0.3 0.8 1.2 0.8 2 0 1.7 -2.6 1.9 -3.6 0.3z"/>
  <path d="M1029.4 905.9 c-0.8 -1.4 1.8 -3.1 3 -1.9 0.9 0.9 0 3 -1.4 3 -0.5 0 -1.2 -0.5 -1.6 -1.1z"/>
  <path d="M1027.5 901 c-0.7 -1.1 0.2 -3 1.5 -3 0.4 0 1 0.6 1.3 1.4 0.6 1.6 -1.9 3 -2.8 1.6z"/>
  <path d="M2699.4 856.6 c-1.8 -4.6 -1.9 -5.6 -0.7 -6 1 -0.4 1.9 0.6 3 3.4 0.9 2.2 1.9 4 2.2 4 0.3 0 1.6 -2.7 2.8 -6 1.7 -4.9 1.9 -6 0.7 -6 -0.8 0 -1.4 -0.3 -1.4 -0.8 0 -0.6 6.2 -8.7 8.6 -11.1 0.2 -0.2 0.4 3.1 0.4 7.4 0 6.9 -0.2 7.6 -1.6 6.5 -1.3 -1.1 -1.6 -1 -2 0.6 -0.3 1 -1.6 4.4 -2.8 7.4 -1.7 4.3 -2.7 5.6 -4.7 5.8 -2.1 0.2 -2.7 -0.5 -4.5 -5.2z"/>
  <path d="M2695.4 846.9 c-0.7 -1.2 1.5 -3.1 2.8 -2.3 0.4 0.3 0.8 1.2 0.8 2 0 1.7 -2.6 1.9 -3.6 0.3z"/>
  <path d="M2693.4 841.9 c-0.8 -1.4 1.8 -3.1 3 -1.9 0.9 0.9 0 3 -1.4 3 -0.5 0 -1.2 -0.5 -1.6 -1.1z"/>
  <path d="M2691.5 837 c-0.7 -1.1 0.2 -3 1.5 -3 0.4 0 1 0.6 1.3 1.4 0.6 1.6 -1.9 3 -2.8 1.6z"/>
  <path d="M1536.3 477.5 c0 -2.2 0.2 -3 0.4 -1.7 0.2 1.2 0.2 3 0 4 -0.3 0.9 -0.5 -0.1 -0.4 -2.3z"/>
 </g>
 <g fill="#d6af9a">
  <path d="M2438 790.5 c-1.6 -2 -0.4 -9.3 1.3 -7.6 1.7 1.7 3.9 1.3 3.5 -0.6 -0.2 -1 -1.1 -1.7 -2 -1.5 -1.6 0.2 -1.6 0 0 -3.8 1.5 -3.6 2.1 -4 5.2 -4 3.9 0 7.8 -2.2 10.8 -6 2.7 -3.5 32.8 -58.1 36.5 -66 4.5 -9.9 7.7 -19.5 10 -30 2.1 -9.4 2.1 -11.2 2.4 -176.7 l0.4 -167.3 8.8 0 c8.7 0 9 0.1 11.5 3.1 l2.6 3.1 0 165.1 c0 113.3 -0.3 168.7 -1.1 176.6 -1.6 16.5 -5.7 31.6 -12.1 45.2 -5.6 11.8 -30.8 57.9 -35.4 64.9 -4.2 6.3 -6 7 -17.4 7 -10 0 -10.1 0 -9.4 -2.2 2 -6.5 2.4 -7.1 3.9 -5.8 1.3 1.1 1.5 0.2 1.5 -6.5 0 -4.3 -0.2 -7.6 -0.4 -7.4 -2.4 2.4 -8.6 10.5 -8.6 11.1 0 0.5 0.7 0.8 1.5 0.8 1.2 0 1.2 0.7 -0.4 4.8 -2.2 5.6 -4.2 6.4 -5.8 2.2 -0.8 -2.1 -1.6 -2.8 -2.7 -2.4 -1.2 0.5 -1.3 1.1 -0.6 2.4 0.6 1 1 2.1 1 2.4 0 1.2 -3.8 0.5 -5 -0.9z"/>
  <path d="M160.5 698.4 c-4.4 -0.2 -9 -0.6 -10.2 -0.9 -2.1 -0.5 -2.1 -0.7 -0.9 -3.8 0.7 -1.7 1.6 -4 2 -5.1 0.5 -1.5 0.9 -1.6 2.1 -0.6 1.3 1.1 1.5 0.6 1.5 -3.7 l0 -5 25.8 -0.7 c28.2 -0.7 54.1 -2.2 64.2 -3.6 7.9 -1.1 9 -2.4 9 -10.2 l0 -5.8 9.5 0 c13.5 0 13.5 0.1 13.5 17.4 0 16.8 -0.2 17.1 -11.5 18.5 -17.2 2.2 -84.6 4.4 -105 3.5z"/>
  <path d="M923.4 698 c-21.4 -2.1 -41.3 -8.1 -53.4 -16.2 -6.9 -4.6 -18.1 -15.8 -13.5 -13.5 5.1 2.5 18.6 6.4 29 8.3 8.8 1.7 15.3 1.9 55.5 1.9 25 -0.1 52.1 -0.5 60.3 -0.9 18.4 -1 18.9 -1.3 19.5 -11.5 l0.4 -7.1 9.3 0 c13 0 13 0 13 18.6 0 18.9 0.7 18.2 -18.1 19.4 -20.4 1.3 -91.4 2 -102 1z"/>
  <path d="M1148.9 698 c-29.5 -2 -48.7 -9 -62.9 -22.8 -5.6 -5.5 -6.7 -6.9 -4.3 -5.8 4.2 2.1 16.2 5.3 26.4 7.1 17.4 3.2 84 2.8 120.9 -0.6 14.9 -1.4 16.4 -2.3 16.8 -10.8 0.3 -5.3 0.6 -6.1 2.2 -6.1 1.7 0 2 0.7 2 5.5 0 4.6 0.4 6 2.5 8 2.1 2.2 3.3 2.5 9.5 2.5 l7 0 0 6.5 c0 6.6 -1.3 11 -3.6 11.9 -8.3 3.2 -90.3 6.5 -116.5 4.6z"/>
  <path d="M1446 698.5 c-1.4 -0.2 -5.9 -0.7 -10.2 -1 l-7.6 -0.7 1.2 -3.1 c0.7 -1.8 1.6 -4 2 -5.1 0.5 -1.5 0.9 -1.6 2.1 -0.6 1.3 1.1 1.5 0.6 1.5 -3.7 l0 -5 39.8 -0.7 c46 -0.8 57.6 -1.6 60 -4 1.1 -1.1 1.8 -3.9 2 -8.6 l0.4 -7 8.4 0 8.4 0 0 5.5 c0 4.6 0.4 6 2.5 8.1 2.3 2.3 2.5 3.3 2.5 10.8 0 12.4 -0.1 12.5 -17.5 13.6 -14.6 0.9 -91.1 2.1 -95.5 1.5z"/>
  <path d="M1980.2 697.9 c-24.4 -0.8 -52 -3.1 -58.5 -5 -4.9 -1.3 -7.7 -5.7 -7.7 -12.1 0 -3.9 0.3 -4.8 1.8 -4.8 0.9 0 7.1 0.5 13.7 1 6.6 0.5 25.7 1.2 42.5 1.5 24.8 0.6 33 0.4 43.9 -0.9 72.7 -8.7 113.4 -48.8 123.8 -121.9 1.5 -10.3 1.8 -20.1 1.8 -63.2 0 -53 -0.6 -62.8 -4.6 -82.4 -4.2 -20.8 -10.4 -36.4 -20.4 -51.8 l-5.7 -8.6 4.9 4 c18.7 15.7 32.3 36.6 39.4 60.3 1.3 4.4 3 8 3.7 8 0.9 0 1.2 18.2 1.2 87.4 0 48.1 -0.4 87.6 -0.8 87.8 -0.5 0.2 -2.2 4.8 -4 10.3 -10.7 34.1 -31.8 59.5 -61.8 74.4 -11.3 5.5 -22.4 9.4 -22.4 7.7 0 -2 1.2 -2.7 2.7 -1.5 1.1 0.9 1.3 -0.2 1.3 -6.6 0 -4.3 -0.2 -7.6 -0.4 -7.4 -2.4 2.4 -8.6 10.5 -8.6 11.1 0 0.5 0.7 0.8 1.4 0.8 1.2 0 1.3 0.6 0.4 3 -1.2 3.6 -5.3 5.1 -7.1 2.6 -1.3 -1.7 -3.2 -0.9 -3.2 1.4 0 1.8 -8.2 3.3 -26.3 4.9 -13.3 1.2 -15.8 1.2 -51 0z m78.8 -11.3 c0 -0.8 -0.4 -1.7 -0.8 -2 -1.3 -0.8 -3.5 1.1 -2.8 2.3 1 1.6 3.6 1.4 3.6 -0.3z m-2.4 -4.7 c0.3 -0.6 0.2 -1.5 -0.2 -1.9 -1.2 -1.2 -3.8 0.5 -3 1.9 0.9 1.4 2.3 1.4 3.2 0z m-2.3 -6.5 c-0.3 -0.8 -0.9 -1.4 -1.3 -1.4 -1.3 0 -2.2 1.9 -1.5 3 0.9 1.4 3.4 0 2.8 -1.6z"/>
  <path d="M2275 698.4 c-33.2 -2.9 -54.8 -11.2 -70 -26.8 l-4.5 -4.6 6.1 2.4 c6.7 2.7 18.1 5.7 29.4 7.8 8.6 1.5 86.7 1.8 112.4 0.4 13.7 -0.8 15.1 -1 17.3 -3.2 1.9 -1.9 2.3 -3.3 2.3 -8.9 l0 -6.5 9.4 0 c9.1 0 9.5 0.1 11.6 2.7 2 2.6 2.1 3.7 1.8 16.5 -0.4 18.2 0.2 17.6 -18.4 18.8 -14.9 1 -89.9 2.1 -97.4 1.4z"/>
  <path d="M2666 697.9 c-18.3 -2.1 -39.7 -8.3 -52 -15.2 -6.7 -3.7 -15.3 -10.2 -19.9 -15.1 l-3.5 -3.6 8.4 3.6 c19.9 8.4 39.2 11.4 72.8 11.4 15.2 0 23.2 0.4 22.2 1 -1.1 0.7 -1.2 1.2 -0.3 2.1 1.4 1.4 3.6 0.2 2.9 -1.6 -0.4 -1 1.3 -1.4 6.8 -1.7 l7.3 -0.3 -2.3 3.1 c-2.8 3.6 -2.9 4.4 -1 4.4 1.2 0 1 1.1 -0.7 6 -1.2 3.3 -2.5 6 -2.8 6 -0.3 0 -1.3 -1.8 -2.2 -4 -1.1 -2.8 -2 -3.8 -3 -3.4 -1.3 0.5 -1.4 1 -0.1 3.9 0.8 1.9 1.4 3.7 1.4 4 0 0.8 -25.5 0.4 -34 -0.6z m33 -11.3 c0 -0.8 -0.4 -1.7 -0.8 -2 -1.3 -0.8 -3.5 1.1 -2.8 2.3 1 1.6 3.6 1.4 3.6 -0.3z"/>
  <path d="M2708 698.2 c0 -0.5 0.6 -2.5 1.4 -4.3 0.7 -1.9 1.6 -4.2 2 -5.3 0.5 -1.5 0.9 -1.6 2.1 -0.6 1.3 1.1 1.5 0.5 1.5 -4.2 l0 -5.4 21.2 -1.2 c26.8 -1.6 46.3 -3.9 50 -5.8 6.1 -3.2 5.8 7.3 5.8 -176.4 l0 -168 8.5 0 c7.7 0 8.8 0.2 11 2.4 1.3 1.3 2.6 3.9 3 5.7 0.3 1.9 0.4 81.2 0.3 176.4 -0.2 142.1 -0.5 173.4 -1.6 175.3 -2.3 4 -8.6 6 -24.2 7.6 -28.2 2.9 -81 5.4 -81 3.8z"/>
  <path d="M141.6 693.5 c-1.1 -2.4 -1.9 -3.3 -3 -2.9 -1.2 0.5 -1.3 1 -0.5 2.6 0.6 1.1 0.9 2.2 0.6 2.4 -0.2 0.2 -4.8 -0.7 -10.2 -2.1 -13.7 -3.4 -24.9 -9.2 -33.5 -17.2 -3.9 -3.6 -6.9 -6.7 -6.7 -6.9 0.1 -0.2 4.3 1 9.2 2.5 11.1 3.6 25.4 5.9 40.7 6.7 l11.8 0.6 -2 2.8 c-2.4 3.3 -2.4 3.8 -0.6 4.2 1.1 0.2 1 1.3 -0.7 5.6 -1.1 2.8 -2.4 5.2 -2.8 5.2 -0.5 0 -1.5 -1.6 -2.3 -3.5z m-2.6 -6.9 c0 -0.8 -0.4 -1.7 -0.8 -2 -1.3 -0.8 -3.5 1.1 -2.8 2.3 1 1.6 3.6 1.4 3.6 -0.3z m-2.4 -4.7 c0.3 -0.6 0.2 -1.5 -0.2 -1.9 -1.2 -1.2 -3.8 0.5 -3 1.9 0.9 1.4 2.3 1.4 3.2 0z"/>
  <path d="M1421.3 693 c-0.8 -2.1 -1.6 -2.8 -2.7 -2.4 -1.2 0.5 -1.3 1 -0.5 2.5 0.9 1.8 0.7 1.9 -1.8 1.3 -15.8 -3.6 -29.5 -10.6 -39.3 -20.1 l-7.5 -7.2 7.2 2.9 c9.8 3.9 24.1 6.9 39.9 8.2 l13.3 1.2 -2 2.7 c-2.3 3.3 -2.4 3.9 -0.4 3.9 1.2 0 1.2 0.7 -0.4 4.8 -2.2 5.6 -4.2 6.4 -5.8 2.2z m-2.3 -6.4 c0 -0.8 -0.4 -1.7 -0.8 -2 -1.3 -0.8 -3.5 1.1 -2.8 2.3 1 1.6 3.6 1.4 3.6 -0.3z m-2.4 -4.7 c0.3 -0.6 0.2 -1.5 -0.2 -1.9 -1.2 -1.2 -3.8 0.5 -3 1.9 0.9 1.4 2.3 1.4 3.2 0z"/>
  <path d="M324.7 693 c-3 -2.3 -4.7 -7.4 -4.7 -13.7 l0 -4.3 7.8 0 c9.1 0 11.6 -1.3 13.2 -6.8 0.6 -2.4 1 -29.6 1 -76.9 l0 -73.3 76 0 76 0 0 10 0 10 -65 0 -65 0 0 75.6 0 75.6 -2.9 2.9 -2.9 2.9 -15.5 0 c-14 0 -15.7 -0.2 -18 -2z"/>
  <path d="M521.8 692.5 c-2.6 -2.5 -3.8 -6.9 -3.8 -13.7 l0 -3.8 8 0 c7.5 0 8.3 -0.2 10.5 -2.6 l2.5 -2.7 0 -139.1 c0 -94.9 -0.4 -142 -1.1 -148.1 -1.6 -13 -5.3 -26.8 -9.6 -35.5 -2 -4.1 -3.9 -7.9 -4.1 -8.3 -1.3 -2.6 5.4 2.7 12.9 10.2 12.2 12.3 17.9 24.3 22.5 47.1 1.6 7.7 1.8 21.1 2.1 149.4 0.3 106.6 0.1 141.7 -0.8 143.8 -2.2 5.3 -3.9 5.8 -21 5.8 -15.3 0 -15.7 0 -18.1 -2.5z"/>
  <path d="M681.3 692.6 c-2.5 -2.1 -2.8 -3.1 -3.1 -10 l-0.4 -7.6 7.9 0 c7.3 0 8.2 -0.2 10.4 -2.6 l2.4 -2.6 0.3 -162.9 0.2 -162.9 50.5 0 50.4 0 2.6 -2.3 c2.2 -1.8 2.7 -3.4 3.2 -8.5 l0.6 -6.2 7.9 0 c8.8 0 11.1 0.8 13.1 4.7 1.3 2.4 1.2 3 -1.6 7.1 -3.5 5.2 -8.3 16.2 -9.2 21.5 l-0.7 3.7 -10.4 0 -10.3 0 -0.3 -5 -0.3 -5.1 -4 5.1 -4 5 -32.2 0 -32.3 0 -0.2 162.6 -0.3 162.6 -3.3 2.9 -3.2 2.9 -15.5 0 c-14.8 0 -15.5 -0.1 -18.2 -2.4z m95.3 -330.7 c0.3 -0.6 0.2 -1.5 -0.2 -1.9 -1.2 -1.2 -3.8 0.5 -3 1.9 0.9 1.4 2.3 1.4 3.2 0z m-2.3 -6.5 c-0.3 -0.8 -0.9 -1.4 -1.3 -1.4 -1.3 0 -2.2 1.9 -1.5 3 0.9 1.4 3.4 0 2.8 -1.6z"/>
  <path d="M1276.9 692.1 c-2.7 -2.7 -2.9 -3.5 -2.9 -10 l0 -7.1 7.8 0 c7 0 8.1 -0.3 10.1 -2.4 1.3 -1.4 3.3 -2.6 4.4 -2.8 1.9 -0.3 5.2 -6.5 7.1 -13.2 0.4 -1.6 0.7 -1.7 2 -0.6 1.4 1.1 1.6 0.4 1.6 -6.5 0 -4.3 -0.2 -7.6 -0.4 -7.4 -2.4 2.4 -8.6 10.5 -8.6 11.1 0 0.5 0.6 0.8 1.4 0.8 1.2 0 1 1.1 -0.7 6 -1.2 3.3 -2.5 6 -2.9 6 -0.5 0 -0.8 -35 -0.8 -77.9 0 -74.3 0.1 -77.9 1.8 -78.3 1 -0.3 2.5 -2.4 3.5 -4.9 0.9 -2.4 2.1 -5.7 2.7 -7.3 0.9 -2.3 1.3 -2.6 2.5 -1.6 1.3 1.1 1.5 0.2 1.5 -6.5 0 -4.3 -0.2 -7.6 -0.4 -7.4 -2.4 2.4 -8.6 10.5 -8.6 11.1 0 0.5 0.6 0.8 1.4 0.8 1.2 0 1 1.1 -0.7 6 -1.2 3.3 -2.5 6 -2.9 6 -0.5 0 -0.8 -35 -0.8 -77.9 0 -74.3 0.1 -77.9 1.8 -78.3 1 -0.3 2.5 -2.4 3.5 -4.9 0.9 -2.4 2.1 -5.7 2.7 -7.3 0.9 -2.3 1.3 -2.6 2.5 -1.6 1.3 1.1 1.5 0.5 1.5 -3.9 0 -4.8 0.1 -5.1 2.5 -5.1 3.4 0 7.2 3.9 8 8.1 0.3 1.9 0.4 82.2 0.3 178.4 -0.3 189.6 0 177.9 -5.5 180.4 -1.4 0.6 -8.9 1.1 -17.4 1.1 l-15.1 0 -2.9 -2.9z"/>
  <path d="M1580.9 692.1 c-2.7 -2.7 -2.9 -3.5 -2.9 -10 l0 -7.1 7.5 0 c6.9 0 7.8 -0.2 10 -2.6 l2.5 -2.7 0 -75.3 0 -75.3 32.3 0.5 c17.7 0.3 33.1 0.7 34.2 1 1.2 0.2 4.2 4.1 7.8 10 l5.8 9.6 -28.6 -0.7 -28.5 -0.8 0 74.2 c0 79.6 0.1 78.4 -4.9 81.1 -1.1 0.5 -8.6 1 -17.1 1 l-15.2 0 -2.9 -2.9z"/>
  <path d="M1783.5 692.8 c-1.4 -1.3 -4.6 -5.7 -7 -9.8 l-4.4 -7.5 15.9 -0.3 c15.7 -0.2 16 -0.3 17.6 -2.7 1 -1.5 1.3 -3.2 0.9 -4.7 -0.4 -1.3 -21.2 -36.4 -46.2 -78.1 -25 -41.8 -45.1 -76.2 -44.7 -76.6 0.5 -0.4 4.1 -1.8 7.9 -3.1 29.8 -9.7 53 -31.3 62.8 -58.5 4.6 -13.1 6.1 -22.7 6.1 -40 -0.1 -24.3 -4 -42.1 -12.5 -56.9 -2.1 -3.8 -3.8 -7 -3.6 -7.2 0.1 -0.1 3.3 2.3 7 5.4 21.3 18 31.8 43.8 31.8 78.2 -0.1 15.2 -1.2 24 -3.7 27.8 -1 1.6 -1.3 2.7 -0.7 2.9 0.7 0.3 0.6 1.9 -0.3 4.9 -2.3 7.6 -2.8 8 -4.6 3.5 -1.2 -2.9 -2.1 -3.9 -3.1 -3.5 -1.3 0.5 -1.2 1.4 0.8 6.2 l2.4 5.7 -3.6 6.5 c-10.8 19.9 -32.9 37.3 -57.2 45.1 -5.1 1.7 -7.1 2.8 -7.1 4 0 0.9 20.5 35.9 45.5 77.8 25 41.8 45.5 76.9 45.5 77.9 0 1 -0.8 2.6 -1.8 3.5 -1.6 1.5 -4.6 1.7 -21.5 1.7 -18.9 0 -19.7 -0.1 -22.2 -2.2z m19.5 -230.2 c0 -0.8 -0.4 -1.7 -0.8 -2 -1.3 -0.8 -3.5 1.1 -2.8 2.3 1 1.6 3.6 1.4 3.6 -0.3z m-2.4 -4.7 c0.3 -0.6 0.2 -1.5 -0.2 -1.9 -1.2 -1.2 -3.8 0.5 -3 1.9 0.9 1.4 2.3 1.4 3.2 0z m-2.3 -6.5 c-0.3 -0.8 -0.9 -1.4 -1.3 -1.4 -1.3 0 -2.2 1.9 -1.5 3 0.9 1.4 3.4 0 2.8 -1.6z"/>
  <path d="M1938.3 639.3 l-3.3 -0.4 0 -64.3 c0 -61.3 0.1 -64.4 1.8 -64.8 1 -0.3 2.5 -2.4 3.5 -4.9 0.9 -2.4 2.1 -5.7 2.7 -7.3 0.9 -2.3 1.3 -2.6 2.5 -1.6 1.3 1.1 1.5 0.2 1.5 -6.5 0 -4.3 -0.2 -7.6 -0.4 -7.4 -2.4 2.4 -8.6 10.5 -8.6 11.1 0 0.5 0.6 0.8 1.4 0.8 1.2 0 1 1.1 -0.7 6 -1.2 3.3 -2.5 6 -2.9 6 -0.5 0 -0.8 -35.1 -0.8 -78 0 -70.4 0.2 -78 1.6 -78 0.9 0 2.2 -1.7 3.1 -3.9 1.5 -3.9 1.7 -4 7.7 -4.6 11.5 -1.3 57.7 -1 66.1 0.3 17.4 2.8 38.4 10.5 38.1 14 -0.1 1.3 0.6 1.6 2.5 1.4 2 -0.2 4 0.9 8.3 4.8 6.9 6.4 7.4 8.5 1.4 6.2 -2.4 -0.9 -4.6 -2.1 -5 -2.6 -0.3 -0.5 -1.9 -1 -3.5 -1.1 -1.5 -0.1 -7.1 -1.1 -12.3 -2.1 -8.3 -1.7 -13.7 -1.9 -42.6 -1.8 -18.2 0.1 -35.2 0.4 -37.8 0.8 l-4.6 0.7 0 139 0 138.9 -8.2 -0.2 c-4.6 0 -9.8 -0.3 -11.5 -0.5z m118.3 -277.4 c0.3 -0.6 0.2 -1.5 -0.2 -1.9 -1.2 -1.2 -3.8 0.5 -3 1.9 0.9 1.4 2.3 1.4 3.2 0z"/>
  <path d="M110 631.7 c-10.6 -5.1 -16.2 -14.7 -18 -31.2 -0.6 -5.5 -1 -59.9 -1 -141.2 l0 -132.3 8.1 0 c8.7 0 11.1 0.8 13.1 4.3 1 1.7 1.4 32.8 1.8 149.2 0.4 107.9 0.8 147.9 1.7 150.3 1.4 3.9 0.7 4 -5.7 0.9z"/>
  <path d="M876.2 631.4 c-7.1 -3.5 -12.7 -10.2 -15.4 -18.3 -2.2 -6.4 -2.3 -7.9 -2.6 -58.8 l-0.3 -52.3 78.9 0 78.9 0 2.3 -2.5 c1.8 -1.9 2.5 -4 2.8 -8.5 l0.4 -6 8.4 0 8.4 0 0 18.5 0 18.5 -79 0 -79 0 0 41.3 c0.1 38.2 1 63 2.6 68.5 0.8 2.8 0 2.8 -6.4 -0.4z"/>
  <path d="M1102.4 632.1 c-10.2 -4.7 -16.4 -14.2 -18.3 -28.4 -0.7 -5.3 -1.1 -52.1 -1.1 -142.3 l0 -134.4 8.3 0 c8.2 0.1 9.7 0.6 12.7 4.4 1.3 1.7 1.6 20.4 2.1 149.5 0.3 81.2 0.9 148.8 1.3 150.4 1 3.2 0.5 3.3 -5 0.8z"/>
  <path d="M1392.5 631.8 c-5.2 -2.7 -11.2 -8.4 -13.6 -13 -4.5 -8.8 -4.9 -13.4 -4.9 -66.5 l0 -50.3 78.1 0 c54 0 78.7 -0.3 80.1 -1.1 2.6 -1.4 4.8 -6.8 4.8 -11.9 l0 -4 8.5 0 8.5 0 0 18.5 0 18.5 -59.5 0 -59.5 0 0 -4.2 0 -4.2 -3.6 4.2 c-3.3 3.9 -3.9 4.2 -8.6 4.2 -3.5 0 -5.4 -0.5 -6.3 -1.6 -1 -1.5 -1.3 -1.5 -2.7 0 -1.3 1.2 -3.6 1.6 -9.7 1.6 l-8.1 0 0 45.8 c0 40.9 0.7 58.6 2.5 64.3 0.8 2.5 -0.9 2.4 -6 -0.3z m21.8 -116.4 c-0.3 -0.8 -0.9 -1.4 -1.3 -1.4 -1.3 0 -2.2 1.9 -1.5 3 0.9 1.4 3.4 0 2.8 -1.6z"/>
  <path d="M2223.2 631.4 c-7.1 -3.5 -12.7 -10.2 -15.4 -18.3 -2.2 -6.4 -2.2 -8 -2.6 -58.8 l-0.3 -52.3 78.9 0 78.9 0 2.3 -2.5 c1.8 -1.9 2.5 -4 2.8 -8.5 l0.4 -6 7.7 0 c12.2 0 15.1 3.5 15.1 18.5 0 9.5 -1.5 14.3 -5.1 16.9 -2.1 1.4 -9.8 1.6 -80.2 1.6 l-77.8 0 0.4 53.8 c0.2 29.5 0.7 54.7 1.1 56 1.1 2.8 0.2 2.8 -6.2 -0.4z"/>
  <path d="M2609.1 624.5 c-13.9 -10.2 -22.4 -28.4 -26.3 -56 -1.7 -12.5 -1.8 -66.9 0 -70.9 1 -2.3 1.5 -2.6 2.7 -1.6 1.3 1.1 1.5 0.2 1.5 -6.6 l0 -7.8 -3 3.4 -2.9 3.5 0.2 -74 c0.2 -77.1 0.5 -81.6 4.2 -78.5 1.3 1.1 1.5 0.5 1.5 -3.9 l0 -5.1 5.8 0 c5 0 6.2 0.4 8.3 2.6 l2.4 2.6 0.6 127.6 c0.5 109.7 0.8 128.8 2.1 135.7 2.5 12.5 4.7 20.3 7.8 27.2 1.6 3.5 2.5 6.3 2 6.3 -0.4 0 -3.5 -2 -6.9 -4.5z"/>
  <path d="M1598.7 480.3 c-0.4 -0.3 -0.7 -31.1 -0.7 -68.4 l0 -67.7 4.8 -0.6 c11.2 -1.3 48 -1.7 64.7 -0.7 28.2 1.8 46 6.5 58.3 15.5 5.2 3.8 12.6 11.5 11.9 12.3 -0.2 0.1 -2.7 -0.7 -5.6 -1.8 -2.9 -1.1 -10.5 -2.9 -17 -4.1 -10.6 -2 -15.1 -2.2 -51.1 -2.2 -21.7 -0.1 -40.3 0.2 -41.2 0.6 -1.7 0.7 -1.8 4.5 -1.8 59.3 l0 58.5 -10.8 0 c-6 0 -11.2 -0.3 -11.5 -0.7z"/>
  <path d="M341.8 441.3 c-0.4 -46.1 -0.2 -52.9 1.8 -62.8 4.1 -21 14.6 -31.3 35.8 -35 6.6 -1.1 16.3 -1.5 38.5 -1.5 37.9 0 47.8 1.6 58.8 9.3 3.7 2.6 11 11.4 10.2 12.1 -0.2 0.2 -4.9 -0.3 -10.4 -1.1 -14 -2 -67.8 -1.3 -78 1.1 -17.9 4.1 -26.6 12.7 -31.7 31.4 -2 7.1 -2.2 10.9 -2.6 45.5 l-0.4 37.7 -10.9 0 -10.9 0 -0.2 -36.7z"/>
  <path d="M858 421.4 c0 -34.5 0.3 -43.8 1.5 -49.2 4.5 -19.5 16.2 -27 45.5 -29.1 8 -0.6 36.9 -1.1 64.2 -1.1 57.1 0 51.8 1.1 51.8 -10.4 l0 -6.6 3.3 0 c1.7 0 5.6 0.3 8.5 0.6 l5.2 0.7 0 18.1 0 18.1 -49.7 -0.3 c-63.5 -0.4 -78.4 0.7 -90.3 6.8 -4.8 2.5 -10.3 8 -12.5 12.6 -4.2 8.8 -4.7 13.7 -5.2 48.7 l-0.5 33.7 -10.9 0 -10.9 0 0 -42.6z"/>
  <path d="M1373.8 427.8 c-0.2 -43.9 0 -48.5 1.8 -56.9 4.1 -18.3 16.6 -25.9 45.8 -27.9 7.7 -0.5 36.5 -1 63.9 -1 l49.7 0 1 -2.6 c0.6 -1.4 1 -5.2 1 -8.5 l0 -5.9 3.3 0 c1.7 0 5.6 0.3 8.5 0.6 l5.2 0.7 0 18.1 0 18.1 -59.5 0 -59.4 0 -0.3 -4.3 -0.3 -4.3 -4.3 5.4 c-4.5 5.7 -10.5 8.9 -11.6 6.1 -0.3 -0.8 -1.2 -1.1 -2.1 -0.8 -0.9 0.4 -1.4 1.2 -1.1 2 0.3 0.7 -1.3 2.3 -4 3.9 -5.7 3.4 -9.8 9.1 -12.6 17.4 -2 6.1 -2.2 9.1 -2.6 41.4 l-0.4 34.7 -10.9 0 -10.9 0 -0.2 -36.2z m42.8 -65.9 c0.3 -0.6 0.2 -1.5 -0.2 -1.9 -1.2 -1.2 -3.8 0.5 -3 1.9 0.9 1.4 2.3 1.4 3.2 0z m-2.3 -6.5 c-0.3 -0.8 -0.9 -1.4 -1.3 -1.4 -1.3 0 -2.2 1.9 -1.5 3 0.9 1.4 3.4 0 2.8 -1.6z"/>
  <path d="M2205 421.8 c0 -46.3 0.5 -51.4 5.7 -61 4.5 -8.4 13.4 -13.5 28.3 -16.5 6 -1.2 19.7 -1.6 67 -2 53.3 -0.4 59.6 -0.6 60.8 -2.1 0.7 -0.9 1.2 -4.5 1.2 -8.5 l0 -7 9.3 0.7 c13.1 1 13.1 1.1 13.5 17.9 0.2 9.4 -0.1 13.9 -1.1 15.7 l-1.3 2.5 -60.4 0.6 c-60.9 0.6 -66 0.9 -76.8 4.5 -6.5 2.2 -9.3 3.9 -13.3 8.1 -9.2 9.6 -10.3 15.5 -10 56.6 l0.2 32.7 -11.5 0 -11.6 0 0 -42.2z"/>
  <path d="M253.5 431 c-1 -3.3 1.7 -17.3 3.7 -18.8 0.9 -0.7 2.7 -3.9 3.8 -7.1 1.8 -4.9 2.5 -5.8 4.2 -5.3 1.6 0.4 1.9 0.1 1.6 -1.4 -0.2 -1 -1 -1.8 -1.6 -1.6 -1.6 0.3 -1.9 1.3 11.2 -39.3 l11.4 -35 12.1 -0.3 c11.6 -0.3 12.1 -0.2 13.5 2 2 3.3 1.3 9.2 -1.7 13.6 -6.9 9.9 -13.2 29.4 -14.4 44.2 -0.3 4.1 -1.1 8 -1.7 8.5 -0.7 0.6 -4 9.6 -7.4 20.2 -4.6 14.2 -6.8 19.6 -8.4 20.8 -1.7 1.1 -5 1.5 -14 1.5 -10.8 0 -11.7 -0.2 -12.3 -2z m23.1 -23 c1.2 -3 2.5 -6.4 2.8 -7.4 0.4 -1.6 0.7 -1.7 2 -0.6 1.4 1.1 1.6 0.4 1.6 -6.5 0 -4.3 -0.2 -7.6 -0.4 -7.4 -2.4 2.4 -8.6 10.5 -8.6 11.1 0 0.5 0.6 0.8 1.4 0.8 1.2 0 1 1.1 -0.7 6 -1.2 3.3 -2.5 6 -2.8 6 -0.3 0 -1.3 -1.8 -2.2 -4 -1.1 -2.8 -2 -3.8 -3 -3.4 -1.2 0.4 -1.1 1.4 0.7 6 1.8 4.7 2.4 5.4 4.5 5.2 2 -0.2 3 -1.5 4.7 -5.8z"/>
  <path d="M577.3 363.2 c-5.2 -1.5 -6.3 -3.7 -6.3 -11.7 l0 -7.5 40.1 0 40 0 1.5 3.5 c0.7 1.9 1.4 6.4 1.4 10 l0 6.5 -37.2 -0.1 c-20.5 -0.1 -38.3 -0.4 -39.5 -0.7z"/>
  <path d="M1295 336.5 l0 -9.5 3.6 0 3.5 0 -2 2.9 c-2.5 3.4 -2.6 4.1 -0.7 4.1 1.2 0 1 1.1 -0.7 6 -1.2 3.3 -2.5 6 -2.9 6 -0.5 0 -0.8 -4.3 -0.8 -9.5z"/>
  <path d="M1935 344 c0 -1.1 0.6 -2 1.4 -2 0.9 0 1.2 0.7 0.9 2 -0.3 1.1 -0.9 2 -1.4 2 -0.5 0 -0.9 -0.9 -0.9 -2z"/>
  <path d="M651.4 184.6 c-1.8 -4.6 -1.9 -5.6 -0.7 -6 1 -0.4 1.9 0.6 3 3.4 0.9 2.2 1.9 4 2.2 4 0.3 0 1.6 -2.7 2.8 -6 1.7 -4.9 1.9 -6 0.7 -6 -0.8 0 -1.4 -0.3 -1.4 -0.8 0 -0.6 6.2 -8.7 8.6 -11.1 0.2 -0.2 0.4 3.1 0.4 7.4 0 6.9 -0.2 7.6 -1.6 6.5 -1.3 -1.1 -1.6 -1 -2 0.6 -0.3 1 -1.6 4.4 -2.8 7.4 -1.7 4.3 -2.7 5.6 -4.7 5.8 -2.1 0.2 -2.7 -0.5 -4.5 -5.2z"/>
  <path d="M647.4 174.9 c-0.7 -1.2 1.5 -3.1 2.8 -2.3 0.4 0.3 0.8 1.2 0.8 2 0 1.7 -2.6 1.9 -3.6 0.3z"/>
  <path d="M645.4 169.9 c-0.8 -1.4 1.8 -3.1 3 -1.9 0.9 0.9 0 3 -1.4 3 -0.5 0 -1.2 -0.5 -1.6 -1.1z"/>
  <path d="M643.5 165 c-0.7 -1.1 0.2 -3 1.5 -3 0.4 0 1 0.6 1.3 1.4 0.6 1.6 -1.9 3 -2.8 1.6z"/>
  <path d="M1163.4 152.6 c-1.8 -4.6 -1.9 -5.6 -0.7 -6 1 -0.4 1.9 0.6 3 3.4 0.9 2.2 1.9 4 2.2 4 0.3 0 1.6 -2.7 2.8 -6 1.7 -4.9 1.9 -6 0.7 -6 -0.8 0 -1.4 -0.3 -1.4 -0.8 0 -0.6 6.2 -8.7 8.6 -11.1 0.2 -0.2 0.4 3.1 0.4 7.4 0 6.9 -0.2 7.6 -1.6 6.5 -1.3 -1.1 -1.6 -1 -2 0.6 -0.3 1 -1.6 4.4 -2.8 7.4 -1.7 4.3 -2.7 5.6 -4.7 5.8 -2.1 0.2 -2.7 -0.5 -4.5 -5.2z"/>
  <path d="M1159.4 142.9 c-0.7 -1.2 1.5 -3.1 2.8 -2.3 0.4 0.3 0.8 1.2 0.8 2 0 1.7 -2.6 1.9 -3.6 0.3z"/>
  <path d="M1157.4 137.9 c-0.8 -1.4 1.8 -3.1 3 -1.9 0.9 0.9 0 3 -1.4 3 -0.5 0 -1.2 -0.5 -1.6 -1.1z"/>
  <path d="M1155.5 133 c-0.7 -1.1 0.2 -3 1.5 -3 0.4 0 1 0.6 1.3 1.4 0.6 1.6 -1.9 3 -2.8 1.6z"/>
 </g>
</svg>